<svg width="28" height="20" viewBox="0 0 28 20" fill="none" xmlns="http://www.w3.org/2000/svg">
<path d="M24.3262 0.613281H3.67309C2.11768 0.613281 0.856766 1.87419 0.856766 3.42961V16.5724C0.856766 18.1278 2.11768 19.3888 3.67309 19.3888H24.3262C25.8816 19.3888 27.1425 18.1278 27.1425 16.5724V3.42961C27.1425 1.87419 25.8816 0.613281 24.3262 0.613281ZM25.2649 16.5724C25.2649 17.0909 24.8446 17.5112 24.3261 17.5112H3.67309C3.1546 17.5112 2.7343 17.0909 2.7343 16.5724V10.9398H25.2649V16.5724ZM25.2649 9.06225H2.7343V7.18472H25.2649V9.06225ZM25.2649 5.30714H2.7343V3.42961C2.7343 2.91112 3.1546 2.49081 3.67309 2.49081H24.3262C24.8446 2.49081 25.2649 2.91112 25.2649 3.42961V5.30714H25.2649Z" fill="white"/>
</svg>
