<svg width="28" height="21" viewBox="0 0 28 21" fill="none" xmlns="http://www.w3.org/2000/svg">
<path d="M1.34337 0.333984H17.5484C18.1737 0.333984 18.6774 0.837749 18.6774 1.4633V5.99165C20.9189 6.20755 25.5844 7.41437 27.2946 13.5813C27.3223 13.681 27.3333 13.7806 27.3333 13.8803V17.0745C27.3333 17.7 26.8297 18.2038 26.2043 18.2038H25.2026C24.8539 19.7815 23.4979 20.9607 21.8763 20.9607C20.2603 20.9607 18.9043 19.7815 18.5501 18.2038H17.5484H10.4974C10.1487 19.7815 8.78726 20.9607 7.17119 20.9607C5.55512 20.9607 4.19917 19.7815 3.84496 18.2038H1.33783C0.712437 18.2038 0.208799 17.7 0.208799 17.0745V1.4633C0.214333 0.837749 0.717972 0.333984 1.34337 0.333984ZM25.0753 14.0353C24.0735 9.64533 20.3875 8.43297 18.6829 8.23921V15.9396H18.7659C19.3028 14.6996 20.4927 13.836 21.8819 13.836C23.2655 13.836 24.4609 14.6996 24.9978 15.9396H25.0808C25.0753 15.9452 25.1804 14.5003 25.0753 14.0353ZM21.8763 18.702C22.5128 18.702 23.0275 18.1207 23.0275 17.4011C23.0275 16.687 22.5073 16.1002 21.8763 16.1002C21.2399 16.1002 20.7251 16.6814 20.7251 17.4011C20.7251 18.1152 21.2399 18.702 21.8763 18.702ZM7.17672 18.702C7.81319 18.702 8.32789 18.1207 8.32789 17.4011C8.32789 16.687 7.80765 16.1002 7.17672 16.1002C6.54025 16.1002 6.02555 16.6814 6.02555 17.4011C6.02001 18.1152 6.54025 18.702 7.17672 18.702ZM2.4724 15.9452H4.0608C4.59765 14.7051 5.78757 13.8415 7.17119 13.8415C8.55481 13.8415 9.75026 14.7051 10.2871 15.9452H16.4193V2.59262H2.4724V15.9452Z" fill="white"/>
</svg>
