<svg width="25" height="25" viewBox="0 0 25 25" fill="none" xmlns="http://www.w3.org/2000/svg">
<g clip-path="url(#clip0)">
<path d="M8.04005 4.44336C3.6068 4.44336 0 8.04977 0 12.4826C0 16.9155 3.6068 20.5219 8.04005 20.5219C12.4733 20.5219 16.0801 16.9155 16.0801 12.4826C16.0801 8.04977 12.4733 4.44336 8.04005 4.44336Z" fill="#FFBC4F"/>
<path d="M16.96 4.44336C12.5267 4.44336 8.91992 8.04977 8.91992 12.4826C8.91992 16.9155 12.5267 20.5219 16.96 20.5219C21.3932 20.5219 25 16.9155 25 12.4826C25 8.04977 21.3932 4.44336 16.96 4.44336Z" fill="white"/>
<path d="M12.0514 15.1209C12.0514 14.7163 11.7235 14.3885 11.319 14.3885H9.14879C9.27296 14.8974 9.44557 15.3874 9.66167 15.8533H11.319C11.7235 15.8533 12.0514 15.5254 12.0514 15.1209Z" fill="#FFBC4F"/>
<path d="M12.0514 10.354C12.0514 9.94969 11.7235 9.62163 11.319 9.62163H9.44655C9.26726 10.0906 9.1305 10.5805 9.04143 11.0865H11.319C11.7235 11.0865 12.0514 10.7586 12.0514 10.354Z" fill="#FFBC4F"/>
<path d="M14.0663 12.7375C14.0663 12.3329 13.7383 12.0051 13.3339 12.0051H8.93442C8.92507 12.1632 8.91992 12.3222 8.91992 12.4827C8.91992 12.8168 8.94071 13.1462 8.98058 13.4699H13.3339C13.7383 13.4699 14.0663 13.142 14.0663 12.7375Z" fill="#FFBC4F"/>
</g>
<defs>
<clipPath id="clip0">
<rect width="25" height="25" fill="white"/>
</clipPath>
</defs>
</svg>
