<svg width="20" height="20" viewBox="0 0 20 20" fill="none" xmlns="http://www.w3.org/2000/svg">
<path d="M18.53 4.68031C18.3415 4.44734 18.1223 4.23462 17.8794 4.04477C17.9119 4.64715 17.8561 5.28894 17.711 5.96824C17.3148 7.82416 16.3674 9.40123 14.9713 10.5287C13.5764 11.6553 11.8345 12.2509 9.93415 12.2509H7.16293L6.26591 16.4535C6.08974 17.2782 5.35005 17.8766 4.50689 17.8766H3.25768L3.03274 18.9092C2.97497 19.1751 3.04055 19.4529 3.21125 19.6648C3.38185 19.8767 3.63944 19.9999 3.91158 19.9999H6.96542C7.38975 19.9999 7.75645 19.7033 7.84495 19.2883L8.89384 14.374H12.3927C14.0852 14.374 15.6315 13.8476 16.8649 12.8516C18.0988 11.8552 18.9374 10.455 19.29 8.80284C19.6471 7.13227 19.3914 5.74523 18.53 4.68031Z" fill="white"/>
<path d="M5.38652 16.2658L6.43541 11.3516H9.93425C11.6266 11.3516 13.1731 10.825 14.4064 9.829C15.6403 8.8326 16.4789 7.43243 16.8316 5.78032C17.1886 4.10971 16.933 2.72272 16.0714 1.6578C15.2445 0.635216 13.8309 0 12.3826 0H4.75952C4.33661 0 3.97083 0.294692 3.88077 0.707868L0.57431 15.8868C0.516446 16.1526 0.582025 16.4304 0.752815 16.6423C0.92333 16.8542 1.18082 16.9774 1.45306 16.9774H4.50699C4.93132 16.9774 5.29779 16.6808 5.38652 16.2658ZM8.18525 3.45764H10.5838C11.1481 3.45764 11.6526 3.6941 11.9682 4.1065C12.3033 4.54456 12.4013 5.1503 12.237 5.76838C12.2348 5.77624 12.2329 5.78409 12.2309 5.79208C11.9292 7.06554 10.6745 8.10163 9.43428 8.10163H7.1358L8.18525 3.45764Z" fill="white"/>
</svg>
