<svg width="27" height="30" viewBox="0 0 27 30" fill="none" xmlns="http://www.w3.org/2000/svg">
<path d="M13.6525 0.714844C17.8674 0.714844 21.2964 4.14389 21.2964 8.35872C21.2964 12.5736 17.8674 16.0026 13.6525 16.0026C9.43771 16.0026 6.00867 12.5736 6.00867 8.35872C6.00867 4.14389 9.43771 0.714844 13.6525 0.714844ZM26.0614 22.0305C23.5267 26.4849 18.7719 29.252 13.6525 29.252C8.53319 29.252 3.7784 26.4849 1.24369 22.0305L0.857422 21.3516L1.37502 20.7667C2.82619 19.127 4.91312 18.1866 7.10065 18.1866H20.2044C22.392 18.1866 24.4789 19.127 25.93 20.7668L26.4476 21.3517L26.0614 22.0305Z" fill="white"/>
</svg>
