<svg width="28" height="10" viewBox="0 0 28 10" fill="none" xmlns="http://www.w3.org/2000/svg">
<path d="M10.2624 0.306641L8.75673 9.67606H11.1633L12.668 0.306641H10.2624ZM17.5215 4.12322C16.6805 3.70792 16.1649 3.42762 16.1649 3.00286C16.1752 2.61666 16.6009 2.221 17.5515 2.221C18.3333 2.20136 18.908 2.3851 19.344 2.56792L19.5624 2.6654L19.8896 0.705079C19.4142 0.521335 18.6605 0.318876 17.7296 0.318876C15.353 0.318876 13.6796 1.5545 13.6692 3.32171C13.6496 4.62582 14.8673 5.34948 15.7786 5.7836C16.7096 6.22893 17.0265 6.51765 17.0265 6.91332C17.0162 7.52079 16.2737 7.80109 15.5809 7.80109C14.6209 7.80109 14.1053 7.65673 13.3225 7.31823L13.0056 7.17387L12.669 9.2111C13.2344 9.4624 14.274 9.68357 15.3531 9.69488C17.8788 9.69488 19.5222 8.47797 19.5429 6.59457C19.5511 5.5614 18.9089 4.77008 17.5215 4.12322ZM26.0592 0.335636H24.1973C23.6236 0.335636 23.1876 0.500667 22.9392 1.08943L19.3645 9.67606H21.8901L22.5857 7.81703H25.4114L25.7723 9.68357H27.9998L26.0592 0.335636ZM23.2861 5.94092C23.3349 5.94565 24.2555 2.90621 24.2555 2.90621L24.9887 5.94092C24.9887 5.94092 23.7615 5.94092 23.2861 5.94092ZM6.74583 0.306641L4.388 6.6723L4.13115 5.41693C3.69518 3.96847 2.32836 2.39446 0.802979 1.61259L2.96205 9.66671H5.50836L9.29213 0.307668H6.74583V0.306641Z" fill="white"/>
</svg>
