<svg width="30" height="30" viewBox="0 0 30 30" fill="none" xmlns="http://www.w3.org/2000/svg">
<g clip-path="url(#clip0)">
<path d="M29.375 16.2503C29.7204 16.2503 30 15.9708 30 15.6253V12.5002C30 11.1214 28.8788 10.0001 27.4999 10.0001H22.7954C22.6159 9.60254 22.4997 9.1878 22.4997 8.75009C22.4997 7.61843 23.1278 6.57227 24.1391 6.01989C24.2862 5.93932 24.3955 5.80261 24.4407 5.64083C24.4864 5.47969 24.4651 5.30637 24.3821 5.16046L22.8592 2.50046C22.5265 1.9206 21.9894 1.50615 21.3467 1.33406C20.707 1.16313 20.038 1.2529 19.4655 1.58613L1.23871 12.1974C0.0557801 12.8859 -0.351283 14.4155 0.330476 15.6058L1.90523 18.3585C1.98885 18.505 2.12801 18.6113 2.29097 18.6533C2.45334 18.6955 2.62666 18.6704 2.77075 18.5837C3.2749 18.2797 3.81451 18.1253 4.37422 18.1253C5.73856 18.1253 6.93039 19.0242 7.3361 20.3244C6.9315 21.5819 5.76434 22.5005 4.37422 22.5005C4.02874 22.5005 3.74918 22.78 3.74918 23.1255V26.2506C3.74918 27.6294 4.8704 28.7507 6.24927 28.7507H27.5C28.8788 28.7507 30.0001 27.6295 30.0001 26.2506V23.1255C30.0001 22.78 29.7205 22.5005 29.375 22.5005C27.652 22.5005 26.2499 21.0985 26.2499 19.3754C26.2499 17.6523 27.6519 16.2503 29.375 16.2503ZM20.0949 2.66652C20.3775 2.50169 20.7095 2.45593 21.0233 2.54142C21.3425 2.62685 21.6086 2.83317 21.7741 3.12187L23.0027 5.26793C21.9084 6.08885 21.2497 7.37374 21.2497 8.75009C21.2497 9.17397 21.3195 9.59422 21.443 10.0001H7.49759L20.0949 2.66652ZM4.37416 16.8754C3.80226 16.8754 3.23154 16.9938 2.69504 17.2221L1.41572 14.9851C1.07329 14.3881 1.27656 13.6221 1.86738 13.2779L3.78334 12.1625C3.7681 12.2741 3.74918 12.3846 3.74918 12.5003V15.6253C3.74918 15.9708 4.02874 16.2504 4.37422 16.2504C5.52421 16.2504 6.5201 16.8819 7.06276 17.8096C6.31432 17.2207 5.37673 16.8754 4.37416 16.8754ZM24.9998 19.3754C24.9998 21.5758 26.6326 23.402 28.7499 23.706V26.2506C28.7499 26.9397 28.189 27.5006 27.4999 27.5006H12.4994V26.4068C12.4994 26.0613 12.2199 25.7818 11.8744 25.7818C11.5289 25.7818 11.2494 26.0613 11.2494 26.4068V27.5006H6.24922C5.56013 27.5006 4.9992 26.9397 4.9992 26.2506V23.706C7.11655 23.402 8.74931 21.5758 8.74931 19.3754C8.74931 17.175 7.11655 15.3488 4.9992 15.0448V12.5002C4.9992 11.8111 5.56013 11.2502 6.24922 11.2502H11.2494V12.6565C11.2494 13.002 11.5289 13.2815 11.8744 13.2815C12.2199 13.2815 12.4994 13.002 12.4994 12.6565V11.2502H27.4999C28.189 11.2502 28.7499 11.8111 28.7499 12.5002V15.0448C26.6326 15.3488 24.9998 17.175 24.9998 19.3754Z" fill="white"/>
<path d="M11.8746 15.7816C11.5291 15.7816 11.2495 16.0612 11.2495 16.4067V17.6567C11.2495 18.0022 11.5291 18.2817 11.8746 18.2817C12.22 18.2817 12.4996 18.0022 12.4996 17.6567V16.4067C12.4996 16.0612 12.22 15.7816 11.8746 15.7816Z" fill="white"/>
<path d="M11.8746 20.7816C11.5291 20.7816 11.2495 21.0612 11.2495 21.4067V22.6567C11.2495 23.0022 11.5291 23.2817 11.8746 23.2817C12.22 23.2817 12.4996 23.0022 12.4996 22.6567V21.4067C12.4996 21.0612 12.22 20.7816 11.8746 20.7816Z" fill="white"/>
<path d="M23.4995 13.8754C23.2242 13.6697 22.8317 13.7246 22.6248 14.0005L15.1245 24.0008C14.917 24.2767 14.9732 24.6686 15.2497 24.8755C15.362 24.9598 15.4932 25.0006 15.6238 25.0006C15.8142 25.0006 16.0016 24.9145 16.1243 24.7503L23.6246 14.75C23.8321 14.4741 23.776 14.0823 23.4995 13.8754Z" fill="white"/>
<path d="M16.8746 18.7505C17.9262 18.7505 18.7496 17.6524 18.7496 16.2504C18.7496 14.8483 17.9262 13.7502 16.8746 13.7502C15.8229 13.7502 14.9995 14.8483 14.9995 16.2504C14.9995 17.6524 15.8229 18.7505 16.8746 18.7505ZM16.8746 15.0003C17.1297 15.0003 17.4996 15.4874 17.4996 16.2504C17.4996 17.0133 17.1297 17.5004 16.8746 17.5004C16.6194 17.5004 16.2495 17.0133 16.2495 16.2504C16.2495 15.4874 16.6194 15.0003 16.8746 15.0003Z" fill="white"/>
<path d="M21.8748 20.0005C20.8231 20.0005 19.9998 21.0986 19.9998 22.5006C19.9998 23.9026 20.8231 25.0007 21.8748 25.0007C22.9265 25.0007 23.7499 23.9026 23.7499 22.5006C23.7499 21.0986 22.9265 20.0005 21.8748 20.0005ZM21.8748 23.7506C21.6197 23.7506 21.2498 23.2635 21.2498 22.5006C21.2498 21.7377 21.6197 21.2506 21.8748 21.2506C22.1299 21.2506 22.4999 21.7377 22.4999 22.5006C22.4999 23.2635 22.1299 23.7506 21.8748 23.7506Z" fill="white"/>
</g>
<defs>
<clipPath id="clip0">
<rect width="30" height="30" fill="white"/>
</clipPath>
</defs>
</svg>
