<svg width="30" height="30" viewBox="0 0 30 30" fill="none" xmlns="http://www.w3.org/2000/svg">
<g clip-path="url(#clip0)">
<path d="M29.4115 11.3789C29.7366 11.3789 30 11.1154 30 10.7904V6.79939C30 6.47438 29.7366 6.21094 29.4115 6.21094H0.588455C0.263443 6.21094 0 6.47438 0 6.79939V10.7904C0 11.1154 0.263443 11.3789 0.588455 11.3789C2.59712 11.3789 4.23134 13.0131 4.23134 15.0217C4.23134 17.0304 2.59712 18.6646 0.588455 18.6646C0.263443 18.6646 0 18.9281 0 19.2531V23.2441C0 23.5691 0.263443 23.8326 0.588455 23.8326H5.82047C6.14548 23.8326 6.40892 23.5691 6.40892 23.2441C6.40892 22.9191 6.14548 22.6556 5.82047 22.6556H1.17691V19.8058C3.55797 19.5147 5.40825 17.4802 5.40825 15.0217C5.40825 12.5633 3.55797 10.5288 1.17691 10.2377V7.38785H21.3879V8.56453C21.3879 8.88954 21.6513 9.15298 21.9763 9.15298C22.3013 9.15298 22.5648 8.88954 22.5648 8.56453V7.38785H28.8231V10.2377C26.442 10.5288 24.5918 12.5633 24.5918 15.0217C24.5918 17.4802 26.442 19.5147 28.8231 19.8058V22.6556H22.5648V21.4787C22.5648 21.1537 22.3013 20.8905 21.9763 20.8905C21.6513 20.8905 21.3879 21.1537 21.3879 21.4787V22.6556H10.6524C10.3274 22.6556 10.0639 22.9191 10.0639 23.2441C10.0639 23.5691 10.3274 23.8326 10.6524 23.8326H29.4115C29.7366 23.8326 30 23.5691 30 23.2441V19.2531C30 18.9281 29.7366 18.6646 29.4115 18.6646C27.4029 18.6646 25.7687 17.0304 25.7687 15.0217C25.7687 13.0131 27.4029 11.3789 29.4115 11.3789Z" fill="white"/>
<path d="M21.9764 17.7626C22.3014 17.7626 22.5648 17.4992 22.5648 17.1741V12.8693C22.5648 12.5443 22.3014 12.2809 21.9764 12.2809C21.6514 12.2809 21.3879 12.5443 21.3879 12.8693V17.1741C21.3879 17.4992 21.6514 17.7626 21.9764 17.7626Z" fill="white"/>
<path d="M12.5308 14.1874C12.9671 13.7512 13.2074 13.171 13.2074 12.5541C13.2074 11.9371 12.9671 11.3569 12.5308 10.9206C11.6302 10.02 10.1646 10.02 9.26398 10.9206C8.82773 11.3569 8.5874 11.9371 8.5874 12.5541C8.5874 13.171 8.82773 13.7512 9.26398 14.1874C9.71442 14.6379 10.3058 14.8629 10.8975 14.8629C11.4889 14.8629 12.0806 14.6379 12.5308 14.1874ZM9.76431 12.5541C9.76431 12.2513 9.88219 11.9668 10.0962 11.7528C10.3171 11.5319 10.6073 11.4214 10.8975 11.4214C11.1877 11.4214 11.4777 11.5319 11.6986 11.7528C11.9128 11.9668 12.0307 12.2513 12.0307 12.5541C12.0307 12.8567 11.9128 13.1412 11.6986 13.3552C11.2569 13.7972 10.5379 13.7972 10.0962 13.3552C9.88219 13.1412 9.76431 12.8567 9.76431 12.5541Z" fill="white"/>
<path d="M14.5448 16.1384C13.6439 17.0391 13.6439 18.5046 14.5448 19.4052C14.995 19.8557 15.5867 20.0809 16.1781 20.0809C16.7698 20.0809 17.3612 19.8557 17.8116 19.4052C18.7123 18.5046 18.7123 17.0391 17.8116 16.1384C16.9108 15.2378 15.4452 15.238 14.5448 16.1384ZM16.9794 16.9706C17.4212 17.4124 17.4212 18.1313 16.9794 18.573C16.5377 19.0148 15.8188 19.015 15.377 18.573C14.935 18.1313 14.935 17.4124 15.377 16.9706C15.5979 16.7498 15.8879 16.6392 16.1781 16.6392C16.4683 16.6392 16.7585 16.7498 16.9794 16.9706Z" fill="white"/>
<path d="M10.8818 18.6674L17.0108 12.5384C17.2404 12.3086 17.2404 11.936 17.0108 11.7062C16.7808 11.4764 16.4084 11.4764 16.1786 11.7062L10.0496 17.8352C9.83698 18.0478 9.82096 18.3987 10.0146 18.6291C10.2336 18.8898 10.6408 18.9082 10.8818 18.6674Z" fill="white"/>
<path d="M8.22562 22.6497C7.98026 22.6497 7.75573 22.808 7.67241 23.0388C7.5891 23.269 7.66143 23.5354 7.85071 23.6915C8.04046 23.8478 8.31328 23.8689 8.52477 23.7444C8.73603 23.6201 8.85001 23.3681 8.80332 23.1276C8.75045 22.854 8.50463 22.6497 8.22562 22.6497Z" fill="white"/>
</g>
<defs>
<clipPath id="clip0">
<rect width="30" height="30" fill="white"/>
</clipPath>
</defs>
</svg>
