<svg width="57" height="54" viewBox="0 0 57 54" fill="none" xmlns="http://www.w3.org/2000/svg">
<path d="M47.2182 52.0985C47.2183 52.3448 47.1699 52.5886 47.0757 52.8162C46.9816 53.0437 46.8435 53.2505 46.6695 53.4247C46.4954 53.5989 46.2887 53.7371 46.0612 53.8314C45.8338 53.9258 45.5899 53.9744 45.3437 53.9745H11.8541C11.6078 53.9744 11.364 53.9258 11.1365 53.8314C10.9091 53.7371 10.7024 53.5989 10.5283 53.4247C10.3543 53.2505 10.2162 53.0437 10.1221 52.8162C10.0279 52.5886 9.97951 52.3448 9.97961 52.0985L4.97363 21.5972C4.97344 21.351 5.02175 21.1072 5.11583 20.8797C5.20991 20.6521 5.34792 20.4454 5.52193 20.2713C5.69595 20.0971 5.90257 19.959 6.13 19.8647C6.35743 19.7704 6.60121 19.7219 6.8474 19.7219H49.6612C49.9075 19.7219 50.1513 19.7704 50.3787 19.8647C50.6062 19.9589 50.8129 20.0971 50.987 20.2712C51.161 20.4454 51.2991 20.6521 51.3933 20.8796C51.4874 21.1071 51.5358 21.3509 51.5357 21.5972L47.2182 52.0985Z" fill="white"/>
<path d="M49.9634 32.6885L31.7132 32.6798V22.4924H24.8057V32.679L6.7937 32.6834L7.93885 39.588H24.8057V53.9241H31.7132V39.5887H48.9886L49.9634 32.6885Z" fill="#92B553"/>
<path d="M52.8295 10.7667H3.3142C2.89316 10.7355 2.47019 10.791 2.07146 10.9299C1.67273 11.0687 1.30671 11.2878 0.996068 11.5737C0.685421 11.8596 0.43675 12.2063 0.265425 12.5921C0.0941002 12.978 0.00377263 13.3949 2.88906e-05 13.8171V20.7451C-0.00347427 21.5485 0.311734 22.3205 0.87655 22.8919C1.44137 23.4633 2.20969 23.7874 3.0131 23.7932H53.493C54.2966 23.7878 55.0651 23.4638 55.63 22.8924C56.1949 22.3209 56.51 21.5486 56.5061 20.7451V13.8171C56.5076 12.3 55.3704 10.7667 52.8295 10.7667Z" fill="#92B553"/>
<path d="M55.2542 20.745C55.2566 20.9785 55.213 21.2102 55.1258 21.4269C55.0386 21.6435 54.9095 21.8409 54.7461 22.0076C54.5826 22.1744 54.3878 22.3073 54.1729 22.3987C53.958 22.4902 53.7272 22.5384 53.4937 22.5406H3.01376C2.78023 22.5384 2.54944 22.4902 2.33455 22.3987C2.11966 22.3073 1.92488 22.1744 1.76138 22.0076C1.59788 21.8409 1.46885 21.6435 1.38166 21.4269C1.29447 21.2102 1.25086 20.9785 1.25327 20.745V13.817C1.25934 13.5598 1.31891 13.3066 1.42818 13.0737C1.53746 12.8407 1.69406 12.6331 1.88799 12.4639C2.08192 12.2948 2.30894 12.168 2.5546 12.0914C2.80026 12.0148 3.05917 11.9903 3.31484 12.0192H52.8286C54.4693 12.0192 55.2542 12.8231 55.2542 13.817V20.745Z" fill="white"/>
<path d="M41.4994 0.933875C33.2209 0.665672 27.7166 12.0252 27.7166 12.0252C43.4426 16.3296 47.337 7.15443 47.4985 6.31401C48.4975 1.10488 41.4994 0.933875 41.4994 0.933875ZM44.4877 6.53326C44.3415 7.0777 41.8612 12.8035 31.1338 10.5622C31.1338 10.5622 35.4192 3.013 41.1713 3.19936C41.1698 3.19936 45.4311 2.97061 44.4877 6.53618V6.53326Z" fill="white"/>
<path d="M8.01351 8.68692C8.28098 9.50906 13.333 18.2216 28.5614 11.9404C28.5614 11.9404 21.6232 1.23716 13.3564 2.54309C13.3564 2.54309 6.36045 3.58886 8.01351 8.68692ZM13.9688 4.77349C19.7129 3.86657 24.952 10.899 24.952 10.899C14.4767 14.488 11.2729 9.05743 11.0595 8.53052C9.66877 5.07457 13.9688 4.77349 13.9688 4.77349Z" fill="white"/>
</svg>
