<svg width="252" height="144" viewBox="0 0 252 144" fill="none" xmlns="http://www.w3.org/2000/svg">
<path d="M114.054 142.211C113.893 140.357 114.233 138.493 115.039 136.816C115.845 135.138 117.088 133.709 118.637 132.677C120.187 131.646 121.985 131.05 123.843 130.953C125.702 130.856 127.553 131.261 129.201 132.126C129.997 129.997 130.812 127.829 132.223 126.047C133.634 124.266 135.762 122.901 138.033 122.981V142.211H114.054Z" fill="#263238"/>
<path d="M50.9259 67.8152L38.675 92.5283L42.3329 92.6675L31.9524 112.305H37.4048L28.8994 129.752H76.4422L65.9741 112.305L70.9902 112.087L60.9581 92.4591L64.6654 92.2412L50.9259 67.8152Z" fill="#263238"/>
<path d="M52.9978 96.4834C53.0582 96.4834 52.9538 106.95 52.7647 119.856C52.5757 132.762 52.3736 143.228 52.3133 143.228C52.2529 143.227 52.3573 132.763 52.5463 119.853C52.7354 106.942 52.9374 96.4826 52.9978 96.4834Z" fill="#D7DDE9"/>
<path d="M58.8245 102.244C58.5921 102.647 58.3256 103.029 58.028 103.386C57.5095 104.072 56.7704 105.001 55.9392 106.014L53.8013 108.601C53.5209 108.971 53.2139 109.321 52.8828 109.647C53.1152 109.244 53.3816 108.862 53.6793 108.505C54.1978 107.819 54.9369 106.89 55.7685 105.876L57.9064 103.29C58.1867 102.919 58.4935 102.57 58.8245 102.244Z" fill="#D7DDE9"/>
<path d="M52.8821 109.647C51.9462 109.055 51.0501 108.402 50.1993 107.693C49.3034 107.041 48.4514 106.331 47.6489 105.567C48.5849 106.159 49.4811 106.812 50.3318 107.521C51.2277 108.173 52.0797 108.883 52.8821 109.647Z" fill="#D7DDE9"/>
<path d="M52.5566 121.769C52.2386 121.558 51.9395 121.32 51.6629 121.056C51.1263 120.6 50.3844 119.97 49.5519 119.292C48.7193 118.613 47.9522 118.014 47.3968 117.58C47.0825 117.362 46.7879 117.118 46.5165 116.849C46.8605 117.016 47.1859 117.22 47.4873 117.456C48.0679 117.858 48.8522 118.441 49.6885 119.122C50.5248 119.804 51.2529 120.455 51.7648 120.942C52.057 121.189 52.3225 121.466 52.5566 121.769Z" fill="#D7DDE9"/>
<path d="M59.3319 114.276C59.2749 114.398 59.2011 114.511 59.1126 114.611C58.9613 114.819 58.7295 115.108 58.4348 115.459C57.8479 116.162 56.9894 117.094 56.0236 118.1C55.0578 119.106 54.185 120.017 53.5697 120.692C53.2523 121.07 52.9142 121.43 52.5569 121.771C52.6139 121.65 52.6877 121.537 52.7761 121.436C52.9274 121.229 53.1593 120.939 53.454 120.588C54.0408 119.885 54.8993 118.953 55.8656 117.947C56.8318 116.941 57.7037 116.03 58.3191 115.356C58.6364 114.977 58.9745 114.617 59.3319 114.276Z" fill="#D7DDE9"/>
<path d="M150.651 95.9367H200.326L209.608 82.7576L219.336 96.3081L230.769 96.1261L218.445 79.5303L163.059 79.7604L150.651 95.9367Z" fill="#D7DDE9"/>
<path d="M175.493 96.1267V142.322H225.095V96.1267H219.41L209.608 82.7578L200.294 95.9243L175.493 96.1267Z" fill="#BDC5D5"/>
<path d="M194.103 122.294H182.501V142.324H194.103V122.294Z" fill="#D7DDE9"/>
<path d="M219.335 121.73H201.058V133.052H219.335V121.73Z" fill="#D7DDE9"/>
<path d="M206.545 121.731H206.125V133.158H206.545V121.731Z" fill="#263238"/>
<path d="M214.145 121.731H213.726V133.158H214.145V121.731Z" fill="#263238"/>
<path d="M213.936 127.58H206.335V127.999H213.936V127.58Z" fill="#263238"/>
<path d="M219.335 99.0703H201.058V110.392H219.335V99.0703Z" fill="#D7DDE9"/>
<path d="M206.545 99.0703H206.125V110.498H206.545V99.0703Z" fill="#263238"/>
<path d="M214.145 99.0703H213.726V110.498H214.145V99.0703Z" fill="#263238"/>
<path d="M213.936 104.919H206.335V105.338H213.936V104.919Z" fill="#263238"/>
<path d="M192.893 99.1724H181.366V110.086H192.893V99.1724Z" fill="#D7DDE9"/>
<path d="M175.493 96.1267H155.36V142.324H175.493V96.1267Z" fill="#D7DDE9"/>
<path d="M187.339 99.1724H186.92V110.086H187.339V99.1724Z" fill="#263238"/>
<path d="M192.893 104.688H181.366V105.107H192.893V104.688Z" fill="#263238"/>
<path d="M209.579 94.0214C210.929 94.0214 212.023 92.9271 212.023 91.5771C212.023 90.2272 210.929 89.1328 209.579 89.1328C208.229 89.1328 207.135 90.2272 207.135 91.5771C207.135 92.9271 208.229 94.0214 209.579 94.0214Z" fill="#D7DDE9"/>
<path d="M192.146 88.5791L195.231 84.7745V75.6235H188.77V88.65L192.146 88.5791Z" fill="#BDC5D5"/>
<path d="M192.146 88.5791V75.6235H195.231V84.775L192.146 88.5791Z" fill="#263238"/>
<path d="M195.666 74.2766H188.051V75.6235H195.666V74.2766Z" fill="#263238"/>
<path d="M175.493 116.335H138.033V142.324H175.493V116.335Z" fill="#BDC5D5"/>
<path d="M161.486 116.335H138.033V142.324H161.486V116.335Z" fill="#D7DDE9"/>
<path d="M157.996 124.714H142.657V142.278H157.996V124.714Z" fill="#BDC5D5"/>
<path d="M173.43 124.642H163.549V127.159H173.43V124.642Z" fill="#263238"/>
<path d="M150.651 95.9366V97.2743H200.294V95.9241L150.651 95.9366Z" fill="#263238"/>
<path d="M200.294 97.2745L209.579 84.2418L209.607 82.7578L200.325 95.9368L200.294 97.2745Z" fill="#263238"/>
<path d="M230.529 96.1267H219.41V96.9898H230.529V96.1267Z" fill="#263238"/>
<path d="M190.147 119.225H186.044V120.785H190.147V119.225Z" fill="#D7DDE9"/>
<path d="M251.659 142.324C251.659 142.384 195.319 142.433 125.836 142.433C56.3283 142.433 0 142.384 0 142.324C0 142.263 56.3283 142.214 125.836 142.214C195.319 142.214 251.659 142.263 251.659 142.324Z" fill="#263238"/>
<path d="M154.305 20.7313C145.021 7.96102 131.52 2.00764 117.435 2.00806C117.435 2.00806 82.9374 2.00806 72.7217 32.89C68.9565 44.2711 69.7907 56.6306 74.3591 67.7137C76.0743 71.9267 78.2348 75.9444 80.8037 79.6984C89.7108 92.5643 117.435 127.698 117.435 127.698H123.461C131.199 116.951 150.68 81.2482 156.515 69.8017C163.841 55.4284 164.967 35.3968 154.305 20.7313ZM123.189 77.8577C117.361 77.8573 111.664 76.1288 106.818 72.8906C101.973 69.6525 98.1961 65.0502 95.9662 59.6657C93.7362 54.2812 93.1529 48.3564 94.2902 42.6405C95.4274 36.9246 98.234 31.6742 102.355 27.5534C106.476 23.4325 111.727 20.6262 117.443 19.4894C123.159 18.3526 129.084 18.9362 134.468 21.1666C139.852 23.397 144.454 27.1739 147.692 32.0197C150.93 36.8655 152.658 42.5626 152.658 48.3906C152.658 52.2604 151.896 56.0924 150.415 59.6676C148.934 63.2429 146.763 66.4914 144.027 69.2278C141.29 71.9641 138.041 74.1346 134.466 75.6153C130.891 77.096 127.059 77.858 123.189 77.8577Z" fill="#FFA647"/>
<path opacity="0.4" d="M154.305 20.7313C145.021 7.96102 131.52 2.00764 117.435 2.00806C117.435 2.00806 82.9374 2.00806 72.7217 32.89C68.9565 44.2711 69.7907 56.6306 74.3591 67.7137C76.0743 71.9267 78.2348 75.9444 80.8037 79.6984C89.7108 92.5643 117.435 127.698 117.435 127.698H123.461C131.199 116.951 150.68 81.2482 156.515 69.8017C163.841 55.4284 164.967 35.3968 154.305 20.7313ZM123.189 77.8577C117.361 77.8573 111.664 76.1288 106.818 72.8906C101.973 69.6525 98.1961 65.0502 95.9662 59.6657C93.7362 54.2812 93.1529 48.3564 94.2902 42.6405C95.4274 36.9246 98.234 31.6742 102.355 27.5534C106.476 23.4325 111.727 20.6262 117.443 19.4894C123.159 18.3526 129.084 18.9362 134.468 21.1666C139.852 23.397 144.454 27.1739 147.692 32.0197C150.93 36.8655 152.658 42.5626 152.658 48.3906C152.658 52.2604 151.896 56.0924 150.415 59.6676C148.934 63.2429 146.763 66.4914 144.027 69.2278C141.29 71.9641 138.041 74.1346 134.466 75.6153C130.891 77.096 127.059 77.858 123.189 77.8577Z" fill="black"/>
<path d="M160.371 20.9733C151.087 8.20297 137.586 2.24958 123.501 2.25C123.501 2.25 89.0035 2.25 78.7873 33.1316C75.0225 44.5127 75.8563 56.8722 80.4247 67.9556C82.1403 72.1686 84.3009 76.1863 86.8698 79.9404C95.7768 92.8063 123.501 127.938 123.501 127.938C123.501 127.938 155.53 83.8728 162.581 70.0415C169.907 55.6699 171.034 35.6388 160.371 20.9733ZM123.228 78.0997C117.4 78.0993 111.703 76.3708 106.857 73.1327C102.012 69.8946 98.2353 65.2925 96.0052 59.9081C93.7752 54.5238 93.1918 48.5991 94.3289 42.8832C95.466 37.1673 98.2724 31.917 102.393 27.796C106.514 23.6751 111.765 20.8687 117.481 19.7316C123.196 18.5945 129.121 19.1779 134.505 21.4079C139.89 23.638 144.492 27.4146 147.73 32.2601C150.968 37.1056 152.697 42.8025 152.697 48.6304C152.726 52.5085 151.984 56.3537 150.513 59.9423C149.043 63.5309 146.873 66.7912 144.131 69.5335C141.388 72.2758 138.128 74.4454 134.54 75.916C130.951 77.3866 127.106 78.1289 123.228 78.0997Z" fill="#FFA647"/>
<path d="M123.189 18.9226C117.099 18.9232 111.16 20.81 106.186 24.3236C101.212 27.8371 97.4488 32.805 95.4132 38.5442C97.6863 33.5175 101.543 29.3735 106.394 26.7456C111.245 24.1178 116.822 23.1508 122.275 23.9924C127.727 24.8341 132.753 27.438 136.586 31.4062C140.419 35.3744 142.846 40.4885 143.498 45.9667C144.149 51.4449 142.989 56.9858 140.194 61.7422C137.399 66.4986 133.123 70.2089 128.021 72.3059C122.918 74.4029 117.269 74.7711 111.937 73.3544C106.605 71.9376 101.884 68.8138 98.4955 64.4604C101.281 68.7396 105.13 72.2216 109.666 74.5652C114.202 76.9088 119.269 78.0336 124.37 77.8292C129.472 77.6248 134.433 76.0983 138.767 73.3994C143.101 70.7004 146.659 66.9216 149.093 62.4334C151.527 57.9451 152.752 52.9015 152.65 47.7969C152.548 42.6923 151.121 37.7018 148.509 33.3148C145.897 28.9278 142.19 25.2947 137.751 22.7716C133.313 20.2486 128.295 18.9223 123.189 18.9226Z" fill="#FFA647"/>
<path opacity="0.4" d="M123.189 18.9226C117.099 18.9232 111.16 20.81 106.186 24.3236C101.212 27.8371 97.4488 32.805 95.4132 38.5442C97.6863 33.5175 101.543 29.3735 106.394 26.7456C111.245 24.1178 116.822 23.1508 122.275 23.9924C127.727 24.8341 132.753 27.438 136.586 31.4062C140.419 35.3744 142.846 40.4885 143.498 45.9667C144.149 51.4449 142.989 56.9858 140.194 61.7422C137.399 66.4986 133.123 70.2089 128.021 72.3059C122.918 74.4029 117.269 74.7711 111.937 73.3544C106.605 71.9376 101.884 68.8138 98.4955 64.4604C101.281 68.7396 105.13 72.2216 109.666 74.5652C114.202 76.9088 119.269 78.0336 124.37 77.8292C129.472 77.6248 134.433 76.0983 138.767 73.3994C143.101 70.7004 146.659 66.9216 149.093 62.4334C151.527 57.9451 152.752 52.9015 152.65 47.7969C152.548 42.6923 151.121 37.7018 148.509 33.3148C145.897 28.9278 142.19 25.2947 137.751 22.7716C133.313 20.2486 128.295 18.9223 123.189 18.9226Z" fill="black"/>
<path d="M181.946 61.9015C180.758 61.093 179.32 60.7381 177.893 60.9014C175.477 61.1768 171.979 61.5301 171.979 61.5301L171.992 61.645L155.085 62.6863L149.91 52.1821L142.063 57.3516C142.063 57.3516 143.095 59.0049 147.493 67.1255C148.351 68.7106 149.676 69.9939 151.287 70.802C152.898 71.6101 154.719 71.904 156.503 71.644L176.41 68.7306V68.6925C178.464 68.5764 180.695 68.3844 181.018 68.0897C181.635 67.5254 182.198 65.4718 182.198 65.4718C182.198 65.4718 185.743 67.582 186.429 67.6286C187.114 67.6751 187.236 67.105 187.662 66.5001C187.954 66.0893 184.297 63.5024 181.946 61.9015Z" fill="#FFBE9D"/>
<path d="M150.951 51.4982C150.951 51.4982 147.664 45.1725 144.653 39.2007C140.954 31.8648 132.8 30.3976 132.8 30.3976L120.986 28.8466C120.986 28.8466 111.114 24.3793 101.913 35.4665L94.3494 43.8986L95.9549 45.3423L103.44 52.0725L104.92 53.403L108.308 49.9157L106.733 58.7511L103.954 71.067L103.962 71.0741L109.969 70.3485L114.035 45.5096L136.937 47.3364L135.14 62.9971C135.508 62.9409 138.28 62.3947 139.18 58.6295C139.476 57.4307 139.483 56.1785 139.199 54.9766L140.523 58.3687L150.951 51.4982Z" fill="#455A64"/>
<path d="M114.035 45.4929L109.969 70.3322L103.962 71.0578C107.976 74.5176 112.849 76.8305 118.067 77.7527C123.285 78.6749 128.655 78.1723 133.612 76.2978L135.14 62.9796L136.937 47.3189L114.035 45.4929Z" fill="#263238"/>
<path d="M115.392 27.6107L114.894 47.7869L118.716 48.3905L119.228 27.9452C119.228 27.9452 117.887 27.3143 115.392 27.6107Z" fill="#263238"/>
<path d="M131.557 47.8954L134.703 30.5663C134.883 30.3731 137.47 31.3007 138.246 32.1831L135.42 48.2592L131.557 47.8954Z" fill="#263238"/>
<path d="M118.855 45.4226C118.893 45.5339 118.913 45.6508 118.912 45.7685C118.944 46.0864 118.948 46.4065 118.923 46.7251C118.894 47.2122 118.729 47.6814 118.448 48.0799C118.276 48.3201 118.046 48.5133 117.78 48.6416C117.488 48.7753 117.161 48.8148 116.845 48.7548C116.549 48.6923 116.269 48.5697 116.022 48.3946C115.775 48.2194 115.567 47.9955 115.411 47.7366C115.168 47.3175 115.024 46.8491 114.988 46.3662C114.96 46.0479 114.961 45.7278 114.991 45.4096C114.99 45.2919 115.011 45.175 115.051 45.0642C115.093 45.0642 115.044 45.5672 115.142 46.3482C115.196 46.8017 115.346 47.2384 115.581 47.6297C115.727 47.8603 115.917 48.0596 116.141 48.216C116.365 48.3723 116.617 48.4825 116.884 48.5402C117.149 48.5869 117.422 48.557 117.67 48.454C117.919 48.351 118.133 48.1792 118.287 47.9587C118.556 47.5918 118.722 47.1602 118.77 46.7079C118.857 45.9252 118.812 45.4222 118.855 45.4226Z" fill="#455A64"/>
<path d="M116.591 47.2055C116.431 47.142 116.293 47.0322 116.195 46.8902C116.096 46.7481 116.043 46.58 116.04 46.4073C116.037 46.2347 116.086 46.0651 116.18 45.92C116.274 45.775 116.408 45.6611 116.567 45.5927C116.725 45.5242 116.901 45.5044 117.071 45.5357C117.24 45.5669 117.397 45.6479 117.521 45.7683C117.645 45.8887 117.73 46.0431 117.766 46.212C117.802 46.3809 117.787 46.5568 117.723 46.7172C117.638 46.9318 117.471 47.1038 117.258 47.1953C117.046 47.2869 116.806 47.2906 116.591 47.2055Z" fill="#455A64"/>
<path d="M134.514 47.3154C134.514 47.488 134.462 47.6567 134.366 47.8003C134.271 47.9438 134.134 48.0557 133.975 48.1217C133.815 48.1878 133.64 48.2051 133.471 48.1714C133.301 48.1377 133.146 48.0546 133.024 47.9325C132.902 47.8105 132.819 47.655 132.785 47.4857C132.751 47.3164 132.768 47.1409 132.834 46.9814C132.901 46.8219 133.012 46.6856 133.156 46.5897C133.299 46.4938 133.468 46.4426 133.641 46.4426C133.872 46.4426 134.094 46.5346 134.258 46.6983C134.422 46.8619 134.514 47.0839 134.514 47.3154Z" fill="#455A64"/>
<path d="M135.686 46.7108C135.677 47.0595 135.61 47.4043 135.487 47.7307C135.37 48.1009 135.171 48.4397 134.904 48.7212C134.735 48.8976 134.527 49.0332 134.297 49.1178C134.068 49.2023 133.822 49.2335 133.578 49.2092C133.092 49.1589 132.643 48.9271 132.321 48.5602C132.069 48.2617 131.9 47.9021 131.832 47.5177C131.783 47.2641 131.776 47.0045 131.809 46.7485C131.836 46.5691 131.871 46.4743 131.884 46.4769C131.888 46.8144 131.921 47.1509 131.982 47.4829C132.066 47.8322 132.234 48.1557 132.471 48.4253C132.767 48.7438 133.168 48.9444 133.6 48.9899C133.812 49.0115 134.027 48.9856 134.228 48.914C134.43 48.8425 134.613 48.7271 134.764 48.5762C135.018 48.3199 135.215 48.0129 135.343 47.6753C135.565 47.0922 135.649 46.7003 135.686 46.7108Z" fill="#455A64"/>
<path d="M116.537 54.9966C116.507 54.9932 116.495 54.8288 116.502 54.5633C116.506 54.4312 116.514 54.2747 116.525 54.1019C116.533 54.0088 116.54 53.919 116.547 53.8297L116.559 53.6858L116.567 53.612L116.57 53.5751V53.5562V53.547V53.539C116.462 53.6355 116.718 53.4061 116.691 53.43C117.184 53.4471 117.671 53.5367 118.138 53.6959C117.648 53.7519 117.153 53.7355 116.668 53.6473C116.641 53.6707 116.896 53.4417 116.788 53.539V53.547V53.5567L116.786 53.5755L116.782 53.6133L116.774 53.6879L116.758 53.8339C116.747 53.9249 116.736 54.0155 116.724 54.1099C116.701 54.2856 116.677 54.4433 116.654 54.5755C116.61 54.8389 116.566 54.9999 116.537 54.9966Z" fill="#455A64"/>
<path d="M115.924 60.7744C115.881 59.8016 115.985 58.8278 116.231 57.8857C116.274 58.8586 116.171 59.8324 115.924 60.7744Z" fill="#455A64"/>
<path d="M116.775 65.7749C116.296 65.6579 115.837 65.471 115.412 65.2203C115.425 65.2438 115.299 65.0128 115.352 65.1105V65.1017V65.092L115.354 65.0732L115.358 65.0359L115.366 64.9617L115.384 64.8171L115.419 64.5442C115.444 64.3702 115.468 64.2138 115.492 64.0831C115.54 63.8215 115.585 63.6609 115.615 63.6639C115.644 63.6668 115.657 63.8315 115.646 64.0994C115.641 64.2323 115.633 64.3903 115.619 64.5655C115.612 64.6594 115.604 64.7496 115.597 64.8401L115.582 64.9852L115.575 65.0594L115.571 65.0967V65.1155V65.1247V65.1331C115.625 65.2312 115.498 65.0007 115.511 65.0241C115.967 65.2112 116.393 65.4641 116.775 65.7749Z" fill="#455A64"/>
<path d="M120.647 67.6986C119.944 67.5117 119.285 67.1844 118.71 66.7366C119.414 66.9235 120.073 67.2508 120.647 67.6986Z" fill="#455A64"/>
<path d="M125.258 68.7616C124.853 69.0425 124.409 69.2622 123.939 69.4139C123.76 69.4072 123.889 69.4118 123.849 69.4101H123.847L123.843 69.408L123.835 69.4038L123.817 69.3954L123.784 69.3787L123.717 69.3451L123.588 69.2789L123.344 69.1506C123.189 69.0668 123.05 68.9901 122.936 68.9222C122.707 68.7863 122.572 68.6887 122.586 68.6618C122.599 68.635 122.758 68.6836 123.005 68.7838C123.128 68.8341 123.273 68.8974 123.433 68.9704L123.684 69.0873L123.816 69.1506L123.882 69.1833L123.916 69.2001L123.933 69.208L123.942 69.2122L123.946 69.2148H123.948L123.859 69.2114C124.301 68.9934 124.772 68.8419 125.258 68.7616Z" fill="#455A64"/>
<path d="M128.391 67.4918C128.414 67.5476 128.081 67.7351 127.649 67.9113C127.216 68.0874 126.847 68.1839 126.824 68.1277C126.801 68.0715 127.134 67.8844 127.567 67.7083C128 67.5321 128.368 67.4356 128.391 67.4918Z" fill="#455A64"/>
<path d="M131.466 64.8464C131.525 65.336 131.51 65.8315 131.424 66.317C131.289 66.4968 131.387 66.3668 131.356 66.4071H131.354H131.35L131.341 66.4104L131.323 66.4176L131.289 66.4318L131.219 66.4595L131.084 66.5127L130.826 66.61C130.661 66.6712 130.512 66.7232 130.385 66.7638C130.133 66.8451 129.969 66.8816 129.958 66.8535C129.946 66.8254 130.088 66.7387 130.327 66.6205C130.446 66.5618 130.59 66.4947 130.75 66.4239L131.002 66.3145L131.136 66.2583L131.205 66.2298L131.24 66.2155L131.258 66.2084L131.266 66.2046H131.271H131.273C131.243 66.2465 131.341 66.1149 131.206 66.2943C131.221 65.8015 131.309 65.3137 131.466 64.8464Z" fill="#455A64"/>
<path d="M132.026 59.4143C132.078 60.3288 131.984 61.2457 131.746 62.1303C131.694 61.2158 131.789 60.2989 132.026 59.4143Z" fill="#455A64"/>
<path d="M130.999 55.0816C131.489 55.0256 131.984 55.042 132.47 55.1303C132.664 55.3698 132.523 55.197 132.567 55.2506V55.2548V55.2595V55.2691L132.565 55.288L132.561 55.3253L132.553 55.3996L132.536 55.5443L132.502 55.8177C132.478 55.9918 132.454 56.1482 132.43 56.2791C132.384 56.5413 132.339 56.7019 132.31 56.6985C132.28 56.6952 132.268 56.5308 132.277 56.2627C132.281 56.1298 132.289 55.9717 132.301 55.7963L132.324 55.5216L132.337 55.3765L132.344 55.3022L132.348 55.2645V55.2456V55.2364V55.2318V55.228C132.39 55.2813 132.251 55.1076 132.445 55.3471C131.952 55.3301 131.465 55.2406 130.999 55.0816Z" fill="#455A64"/>
<path d="M125.856 54.527C126.722 54.4742 127.592 54.5679 128.427 54.8041C127.561 54.8574 126.691 54.7637 125.856 54.527Z" fill="#455A64"/>
<path d="M120.713 53.9725C121.579 53.9192 122.449 54.0129 123.284 54.2496C122.418 54.3024 121.548 54.2088 120.713 53.9725Z" fill="#455A64"/>
<path d="M93.7612 46.8689C93.7352 47.3719 93.7222 47.8791 93.7222 48.3906C93.7213 50.3817 93.9213 52.3678 94.3191 54.3188L94.3317 54.3762C94.382 54.6193 94.4428 54.8587 94.4993 55.1002C94.7291 56.0467 94.9994 56.9811 95.3004 57.9016C95.3398 58.0161 95.3767 58.1318 95.417 58.2458C96.5006 58.0043 99.6366 55.2896 103.246 51.8963L95.7666 45.1711C94.7186 46.2154 94.0965 46.7515 93.7612 46.8689Z" fill="#FFBE9D"/>
<path d="M140.969 3.33276C141.229 6.22771 144.532 8.67077 147.437 8.58023C149.04 8.53034 150.661 7.81771 152.202 8.26374C154.783 9.01074 155.827 12.6129 158.471 13.0958C160.449 13.4571 162.276 11.8537 164.283 11.746C165.758 11.6672 167.15 12.4041 168.372 13.2345C169.594 14.065 170.762 15.0257 172.163 15.4982C173.565 15.9706 174.846 15.1314 176.257 14.7017C176.608 15.6017 176.835 16.7059 177.286 17.6591C177.736 18.6124 178.28 20.3118 177.481 20.6815C177.481 20.6815 175.255 21.8347 173.968 21.7714C174.487 22.2959 175.136 22.6737 175.849 22.8667C176.561 23.0596 177.312 23.0608 178.026 22.8701C178.383 25.0227 178.651 27.5068 177.194 29.1308C176.514 29.8337 175.643 30.3219 174.688 30.5346C170.016 31.7407 165.135 28.4764 160.394 29.3676C158.447 29.7331 156.666 30.7841 154.702 31.041C153.732 31.1625 152.748 31.0883 151.808 30.8229C150.867 30.5574 149.99 30.106 149.227 29.4955C147.357 27.9818 146.07 25.4498 143.697 25.052C142.645 24.8764 141.578 25.1778 140.551 25.4679C139.523 25.7579 138.445 26.0359 137.401 25.8137C136.358 25.5915 135.375 24.7024 135.422 23.6364" fill="#263238"/>
<path d="M131.682 31.4669C132.205 28.5464 132.81 25.4812 132.81 25.4812C132.81 25.4812 136.684 25.5194 138.329 20.7444C139.898 16.1915 141.031 5.23923 141.031 5.23923C138.549 3.69582 135.654 2.9484 132.735 3.0972C129.815 3.24601 127.011 4.28392 124.698 6.07175L120.836 29.8635C120.388 32.6251 122.405 35.2103 125.366 35.6676C128.357 36.1288 131.183 34.2491 131.682 31.4669Z" fill="#FFBE9D"/>
<path d="M138.151 13.4442C138.124 13.6087 138.033 13.756 137.899 13.8548C137.764 13.9535 137.596 13.9958 137.431 13.9726C137.35 13.9649 137.271 13.941 137.199 13.9022C137.127 13.8635 137.064 13.8108 137.013 13.7472C136.961 13.6836 136.923 13.6104 136.901 13.532C136.878 13.4535 136.872 13.3713 136.882 13.2902C136.909 13.1257 136.999 12.9784 137.134 12.8795C137.268 12.7807 137.435 12.7381 137.601 12.7609C137.682 12.7686 137.761 12.7925 137.833 12.8312C137.905 12.87 137.969 12.9227 138.02 12.9864C138.071 13.0501 138.109 13.1234 138.132 13.202C138.154 13.2807 138.161 13.363 138.151 13.4442Z" fill="#263238"/>
<path d="M139.295 12.9177C139.203 12.9864 138.788 12.5492 138.11 12.4314C137.434 12.3057 136.875 12.5656 136.816 12.4696C136.787 12.4276 136.892 12.2922 137.137 12.1724C137.466 12.0208 137.834 11.9747 138.19 12.0403C138.543 12.101 138.867 12.2727 139.115 12.5303C139.296 12.7269 139.34 12.8862 139.295 12.9177Z" fill="#263238"/>
<path d="M131.191 12.3419C131.164 12.5064 131.073 12.6538 130.939 12.7526C130.804 12.8514 130.637 12.8938 130.471 12.8708C130.39 12.863 130.311 12.839 130.239 12.8002C130.167 12.7615 130.104 12.7087 130.053 12.6451C130.002 12.5815 129.964 12.5082 129.941 12.4297C129.919 12.3512 129.912 12.269 129.922 12.1879C129.949 12.0234 130.04 11.8761 130.174 11.7772C130.308 11.6784 130.476 11.6358 130.641 11.6586C130.723 11.6663 130.802 11.6903 130.874 11.7291C130.946 11.7678 131.009 11.8206 131.06 11.8843C131.111 11.948 131.149 12.0213 131.172 12.0998C131.194 12.1784 131.201 12.2607 131.191 12.3419Z" fill="#263238"/>
<path d="M132.18 11.9182C132.087 11.9865 131.672 11.5493 130.994 11.4319C130.318 11.3061 129.759 11.5656 129.7 11.4696C129.671 11.4277 129.776 11.2923 130.021 11.1728C130.35 11.0213 130.718 10.9752 131.074 11.0408C131.427 11.1015 131.751 11.273 132 11.5304C132.18 11.727 132.225 11.8884 132.18 11.9182Z" fill="#263238"/>
<path d="M133.752 17.3782C134.129 17.329 134.511 17.3273 134.888 17.3732C135.064 17.3862 135.234 17.3803 135.284 17.2676C135.33 17.0914 135.321 16.9054 135.259 16.7344C135.17 16.2872 135.077 15.8179 134.979 15.3263C134.599 13.3246 134.356 11.691 134.437 11.6764C134.517 11.6617 134.892 13.2722 135.272 15.2739C135.361 15.7669 135.447 16.2376 135.528 16.6862C135.601 16.9141 135.59 17.1602 135.499 17.3812C135.463 17.4378 135.414 17.4854 135.357 17.5206C135.3 17.5558 135.236 17.5775 135.169 17.5841C135.069 17.5932 134.968 17.5895 134.868 17.5732C134.489 17.5555 134.114 17.49 133.752 17.3782Z" fill="#263238"/>
<path d="M132.81 25.4813C130.491 25.1094 128.322 24.1015 126.542 22.5696C126.542 22.5696 127.544 26.2245 132.54 26.6303L132.81 25.4813Z" fill="#EB996E"/>
<path d="M133.18 18.961C133.08 18.7759 132.934 18.6195 132.756 18.5064C132.579 18.3933 132.375 18.3273 132.165 18.3146C132.013 18.3017 131.86 18.3197 131.715 18.3674C131.571 18.415 131.437 18.4915 131.322 18.5921C131.212 18.6889 131.134 18.8171 131.099 18.9595C131.064 19.1019 131.074 19.2517 131.126 19.3886C131.214 19.5295 131.341 19.6411 131.493 19.709C131.644 19.777 131.812 19.7982 131.975 19.77C132.316 19.7129 132.641 19.5889 132.933 19.4053C133.019 19.3642 133.097 19.3073 133.162 19.2376C133.193 19.2045 133.213 19.163 133.221 19.1182C133.228 19.0735 133.222 19.0275 133.204 18.9861" fill="#EB996E"/>
<path d="M131.677 17.4972C131.788 17.5102 131.66 18.2463 132.198 18.8806C132.736 19.5148 133.533 19.5706 133.521 19.6745C133.523 19.7227 133.321 19.7869 132.989 19.7374C132.556 19.6676 132.163 19.4476 131.877 19.1162C131.603 18.7977 131.463 18.385 131.487 17.9655C131.513 17.6502 131.627 17.4826 131.677 17.4972Z" fill="#263238"/>
<path d="M128.02 2.56273C129.332 5.45517 133.585 8.97975 136.87 10.2298C136.571 9.63243 134.725 7.9523 134.427 7.35537C135.752 8.79572 137.667 10.7508 139.692 11.2384C139.925 11.3163 140.177 11.3242 140.415 11.261C140.548 11.1911 140.662 11.0912 140.75 10.9692C140.837 10.8473 140.895 10.7066 140.918 10.5584C141.311 9.09881 141.544 7.60071 141.612 6.09067C141.681 4.81665 141.262 3.56419 140.438 2.58956C139.319 1.33198 137.491 0.729182 135.733 0.354424C134.272 -0.0186665 132.752 -0.0981745 131.26 0.120511C129.806 0.400113 128.449 1.23892 128.012 2.47177" fill="#263238"/>
<path d="M120.188 13.4658C120.163 12.3415 120.205 11.2168 120.314 10.0975C120.645 7.54047 121.442 -1.75221 130.021 0.638867L129.108 3.01947C129.108 3.01947 129.767 9.00094 125.363 12.2132C125.363 12.2132 125.382 18.1834 122.333 20.3376C122.333 20.3376 120.206 16.289 120.188 13.4658" fill="#263238"/>
<path d="M125.548 11.8077C125.041 11.6029 124.488 11.5416 123.949 11.6304C123.408 11.7238 122.925 12.0282 122.608 12.4767C122.316 12.9435 122.212 13.5037 122.318 14.0441C122.426 14.58 122.652 15.0851 122.98 15.5226C123.193 15.8521 123.482 16.1264 123.822 16.3232C123.993 16.4196 124.185 16.4721 124.381 16.4762C124.577 16.4802 124.771 16.4356 124.946 16.3463" fill="#FFBE9D"/>
<path d="M124.698 14.9403C124.754 14.9701 124.47 15.2476 124.012 15.0338C123.769 14.9008 123.588 14.677 123.509 14.4113C123.414 14.1154 123.377 13.8036 123.402 13.4937C123.42 13.162 123.557 12.8479 123.786 12.6079C123.883 12.5056 124.002 12.4266 124.134 12.3771C124.266 12.3276 124.408 12.3087 124.548 12.322C125.044 12.3979 125.135 12.7672 125.079 12.7672C125.033 12.8003 124.872 12.5903 124.534 12.6108C124.324 12.652 124.135 12.7672 124.001 12.9355C123.868 13.1039 123.8 13.3144 123.808 13.5289C123.772 14.0797 123.892 14.6108 124.158 14.7864C124.431 14.9906 124.671 14.8912 124.698 14.9403Z" fill="#EB996E"/>
<path d="M175.21 12.2125C175.153 12.3383 175.075 12.4538 174.979 12.5541C174.703 12.8446 174.348 13.0485 173.958 13.141C173.341 13.2957 172.69 13.2498 172.1 13.0102C171.341 12.6762 170.635 12.2329 170.004 11.6944C169.285 11.1494 168.478 10.5055 167.447 10.28C166.913 10.1794 166.364 10.2033 165.841 10.3496C165.283 10.514 164.742 10.7343 164.228 11.0073C163.691 11.2769 163.149 11.5791 162.566 11.8403C161.972 12.129 161.328 12.3007 160.67 12.3458C159.975 12.3689 159.291 12.1693 158.717 11.7761C158.149 11.3647 157.653 10.8617 157.25 10.2876C156.411 9.17042 155.733 7.96021 154.707 7.16626C154.212 6.77481 153.62 6.52594 152.994 6.4465C152.389 6.37577 151.777 6.40295 151.181 6.52699C150.003 6.74413 148.905 7.11679 147.825 7.25303C146.821 7.37653 145.802 7.28828 144.834 6.99397C143.432 6.57571 142.177 5.76584 141.219 4.65948C140.867 4.26009 140.574 3.81283 140.347 3.33105C140.372 3.35594 140.393 3.38416 140.41 3.41489L140.574 3.6727C141.574 5.21949 143.105 6.34778 144.878 6.84557C145.826 7.1228 146.822 7.20017 147.802 7.07278C148.857 6.93318 149.947 6.55633 151.145 6.32871C151.762 6.19804 152.396 6.16789 153.022 6.23942C153.684 6.32148 154.312 6.58232 154.837 6.99397C155.913 7.82648 156.595 9.05388 157.424 10.1543C157.813 10.7087 158.29 11.1951 158.838 11.5938C159.373 11.9623 160.012 12.1501 160.662 12.1299C161.293 12.087 161.911 11.9233 162.48 11.6479C163.053 11.3938 163.595 11.0949 164.138 10.8254C164.665 10.5487 165.22 10.3263 165.792 10.1618C166.344 10.0112 166.923 9.99037 167.484 10.101C168.574 10.3492 169.385 11.0182 170.1 11.5707C170.716 12.1078 171.405 12.5537 172.147 12.8945C172.713 13.1348 173.34 13.1914 173.94 13.0563C174.32 12.9747 174.67 12.7891 174.951 12.5202C175.136 12.3337 175.201 12.205 175.21 12.2125Z" fill="#263238"/>
<path d="M78.6599 95.4824L71.0565 110.82L73.3269 110.907L66.8843 123.094H70.268L64.9891 133.922H94.4962L87.9987 123.094L91.1116 122.959L84.8853 110.777L87.1863 110.642L78.6599 95.4824Z" fill="#455A64"/>
<path d="M79.9457 113.275C80.0061 113.275 79.96 119.773 79.8426 127.782C79.7252 135.791 79.5814 142.286 79.5211 142.286C79.4607 142.286 79.5072 135.791 79.6242 127.778C79.7412 119.765 79.8862 113.274 79.9457 113.275Z" fill="#263238"/>
<path d="M83.5621 117.218C83.4475 117.466 83.2937 117.693 83.1068 117.892C82.6912 118.394 82.2492 118.874 81.7826 119.33C81.2431 119.867 80.7589 120.352 80.4194 120.715C80.2503 120.926 80.0587 121.118 79.848 121.288C79.9625 121.04 80.1163 120.812 80.3033 120.614C80.7189 120.111 81.1611 119.631 81.6279 119.176C82.167 118.638 82.6512 118.153 82.9907 117.792C83.1597 117.581 83.3513 117.388 83.5621 117.218Z" fill="#263238"/>
<path d="M79.874 121.445C78.7045 120.718 77.6155 119.869 76.6252 118.913C77.7945 119.64 78.8835 120.489 79.874 121.445Z" fill="#263238"/>
<path d="M79.6723 128.968C79.014 128.502 78.3825 127.999 77.7809 127.462C77.1333 126.982 76.5134 126.465 75.9243 125.914C77.3266 126.729 78.5915 127.759 79.6723 128.968Z" fill="#263238"/>
<path d="M83.8768 124.318C83.9317 124.36 83.0665 125.481 81.8533 126.719L80.3229 128.318C80.1283 128.556 79.9103 128.774 79.6723 128.968C79.6174 128.926 80.4822 127.806 81.6957 126.568L83.2262 124.968C83.4209 124.731 83.6388 124.513 83.8768 124.318Z" fill="#263238"/>
</svg>
