<svg width="18" height="14" viewBox="0 0 18 14" fill="none" xmlns="http://www.w3.org/2000/svg">
<path d="M14.2361 13.2531C14.3872 13.2537 14.5364 13.2197 14.6723 13.1537C14.8082 13.0876 14.9271 12.9913 15.0199 12.8721C15.1128 12.7529 15.177 12.6139 15.2078 12.466C15.2385 12.3181 15.2349 12.1651 15.1973 12.0188C14.5727 9.69085 12.2224 7.96021 9.4179 7.96021C6.61345 7.96021 4.26258 9.69085 3.63832 12.0188C3.60069 12.1651 3.59711 12.3181 3.62787 12.4661C3.65863 12.614 3.7229 12.7529 3.81575 12.8721C3.9086 12.9913 4.02755 13.0877 4.16345 13.1537C4.29936 13.2198 4.4486 13.2538 4.5997 13.2531L8.25969 12.7635C8.99237 12.6656 9.73476 12.6645 10.4677 12.7602L14.2361 13.2531Z" fill="white"/>
<path d="M4.51361 2.57726C5.10276 2.17211 5.56463 1.61301 6.05959 1.09712C6.12676 1.01109 6.22026 0.949422 6.3258 0.921559C6.39919 0.917909 6.47177 0.938307 6.53252 0.97965C6.59327 1.02099 6.63888 1.08102 6.66241 1.15064C6.70579 1.2915 6.71074 1.4414 6.67676 1.58482C6.46152 2.85934 5.52006 3.9166 4.41469 4.58661C3.83247 4.96046 3.17136 5.19393 2.48349 5.26861C1.84657 5.31926 1.13199 5.17475 0.628936 4.75948C0.196273 4.40244 -0.0356734 3.8008 0.575254 3.55045C1.08557 3.34096 1.88151 3.46014 2.43217 3.36138C3.17386 3.25101 3.88346 2.98369 4.51361 2.57726Z" fill="white"/>
<path d="M13.6237 2.57726C13.0345 2.17211 12.5728 1.61301 12.0777 1.09712C12.0106 1.01106 11.9172 0.949387 11.8116 0.921559C11.7383 0.917909 11.6657 0.938307 11.6049 0.97965C11.5442 1.02099 11.4986 1.08102 11.475 1.15064C11.4316 1.29149 11.4266 1.44141 11.4607 1.58482C11.6758 2.85934 12.6174 3.9166 13.7228 4.58661C14.305 4.96046 14.9661 5.19393 15.654 5.26861C16.2907 5.31926 17.0055 5.17475 17.5083 4.75948C17.941 4.40244 18.173 3.8008 17.5622 3.55045C17.0519 3.34096 16.2559 3.46014 15.7053 3.36138C14.9635 3.25099 14.2539 2.98367 13.6237 2.57726Z" fill="white"/>
</svg>
