<svg width="16" height="13" viewBox="0 0 16 13" fill="none" xmlns="http://www.w3.org/2000/svg">
<path d="M1.927 4.13633C2.5978 4.13633 3.14159 3.21978 3.14159 2.08916C3.14159 0.958542 2.5978 0.0419922 1.927 0.0419922C1.2562 0.0419922 0.712402 0.958542 0.712402 2.08916C0.712402 3.21978 1.2562 4.13633 1.927 4.13633Z" fill="white"/>
<path d="M14.0732 4.13633C14.744 4.13633 15.2878 3.21978 15.2878 2.08916C15.2878 0.958542 14.744 0.0419922 14.0732 0.0419922C13.4024 0.0419922 12.8586 0.958542 12.8586 2.08916C12.8586 3.21978 13.4024 4.13633 14.0732 4.13633Z" fill="white"/>
<path d="M12.1697 6.73291C12.4218 6.73312 12.6697 6.79774 12.8898 6.92062C13.11 7.04351 13.2951 7.2206 13.4276 7.43509C13.5601 7.64958 13.6357 7.89437 13.6471 8.14624C13.6584 8.39811 13.6053 8.64871 13.4927 8.87428C12.5696 10.7312 10.4831 12.0258 8.05694 12.0258C5.63079 12.0258 3.54445 10.7307 2.62123 8.87428C2.50855 8.64873 2.45536 8.39813 2.46671 8.14626C2.47806 7.89438 2.55357 7.64958 2.68607 7.43508C2.81858 7.22058 3.00369 7.04349 3.22384 6.9206C3.444 6.79771 3.6919 6.73311 3.94403 6.73291H12.1697Z" fill="white"/>
</svg>
