<svg width="17" height="13" viewBox="0 0 17 13" fill="none" xmlns="http://www.w3.org/2000/svg">
<path d="M12.7215 12.1118C12.7738 12.1305 12.83 12.1354 12.8847 12.1258C12.9394 12.1163 12.9907 12.0928 13.0335 12.0575C13.0764 12.0222 13.1093 11.9764 13.1292 11.9245C13.149 11.8727 13.1551 11.8166 13.1468 11.7617C12.8598 9.75151 10.9335 8.19727 8.59882 8.19727C6.26417 8.19727 4.33853 9.75033 4.05138 11.7592C4.04301 11.8141 4.04908 11.8703 4.06898 11.9223C4.08888 11.9742 4.12194 12.02 4.16491 12.0553C4.20787 12.0906 4.25927 12.1141 4.31407 12.1236C4.36887 12.133 4.42518 12.128 4.47747 12.1091L6.67724 11.2963C7.90314 10.8434 9.25017 10.8412 10.4775 11.2902L12.7215 12.1118Z" fill="white"/>
<path d="M3.94586 5.99995C4.46339 5.99995 4.88293 5.29275 4.88293 4.42038C4.88293 3.54802 4.46339 2.84082 3.94586 2.84082C3.42833 2.84082 3.00879 3.54802 3.00879 4.42038C3.00879 5.29275 3.42833 5.99995 3.94586 5.99995Z" fill="white"/>
<path d="M13.3168 5.99995C13.8344 5.99995 14.2539 5.29275 14.2539 4.42038C14.2539 3.54802 13.8344 2.84082 13.3168 2.84082C12.7993 2.84082 12.3798 3.54802 12.3798 4.42038C12.3798 5.29275 12.7993 5.99995 13.3168 5.99995Z" fill="white"/>
<path d="M5.00835 3.27359C4.44469 2.84329 3.11345 2.05139 0.94372 2.04768C0.889214 2.04838 0.835372 2.03565 0.786944 2.01063C0.738516 1.98561 0.696986 1.94906 0.666023 1.90419C0.553595 1.73538 0.454503 1.45076 0.834834 1.22895C1.18909 1.04365 1.57839 0.935008 1.9774 0.910083C2.37641 0.885157 2.77619 0.944507 3.15075 1.08427C3.15075 1.08427 4.535 1.7764 5.09208 2.66485C5.11638 2.70435 5.134 2.74758 5.14424 2.79281L5.22409 3.13229C5.23042 3.15968 5.2282 3.18835 5.21772 3.21443C5.20724 3.24052 5.189 3.26276 5.16549 3.27817C5.14197 3.29357 5.1143 3.30138 5.0862 3.30057C5.0581 3.29975 5.03093 3.29033 5.00835 3.27359Z" fill="white"/>
<path d="M12.1894 3.27359C12.753 2.84329 14.0843 2.05139 16.254 2.04768C16.3085 2.04838 16.3623 2.03565 16.4108 2.01063C16.4592 1.98561 16.5007 1.94906 16.5317 1.90419C16.6441 1.73538 16.7432 1.45076 16.3629 1.22895C16.0086 1.04365 15.6193 0.935008 15.2203 0.910083C14.8213 0.885157 14.4215 0.944507 14.047 1.08427C14.047 1.08427 12.6627 1.7764 12.1056 2.66485C12.0813 2.70435 12.0637 2.74758 12.0535 2.79281L11.9736 3.13229C11.9673 3.15968 11.9695 3.18835 11.98 3.21443C11.9905 3.24052 12.0087 3.26276 12.0322 3.27817C12.0557 3.29357 12.0834 3.30138 12.1115 3.30057C12.1396 3.29975 12.1668 3.29033 12.1894 3.27359Z" fill="white"/>
</svg>
