<svg width="20" height="14" viewBox="0 0 20 14" fill="none" xmlns="http://www.w3.org/2000/svg">
<path d="M15.6475 6.84131C15.9292 6.84169 16.2064 6.91133 16.4548 7.04411C16.7032 7.17689 16.9151 7.36871 17.0719 7.60269C17.2286 7.83667 17.3254 8.10562 17.3538 8.38583C17.3821 8.66604 17.3411 8.94893 17.2343 9.20956C16.1475 11.8768 13.2767 13.7835 9.90627 13.7835C6.53579 13.7835 3.66482 11.8774 2.57801 9.20956C2.47128 8.94886 2.4303 8.66591 2.4587 8.38564C2.4871 8.10538 2.584 7.83641 2.74086 7.60242C2.89772 7.36844 3.10974 7.17662 3.35821 7.04389C3.60668 6.91117 3.88399 6.8416 4.16569 6.84131H15.6475Z" fill="white"/>
<path d="M0.505623 2.42423C0.496028 2.40097 0.488954 2.37675 0.484522 2.35198C0.216112 0.845347 3.09198 0.460292 4.01672 0.750815C4.50352 0.905511 4.95537 1.15393 5.34679 1.4821C5.49281 1.60634 6.43274 2.78194 5.75683 2.79747C5.65632 2.78995 5.56087 2.7505 5.48437 2.68488C4.8672 2.24884 4.53902 1.6028 3.76013 1.4166C3.33422 1.31685 2.88959 1.33076 2.47075 1.45694C2.05191 1.58312 1.67358 1.81715 1.37365 2.13557C1.18509 2.33983 0.709716 2.92071 0.505623 2.42423Z" fill="white"/>
<path d="M19.493 2.42423C19.5026 2.40095 19.5097 2.37674 19.5143 2.35198C19.7825 0.845347 16.9066 0.460292 15.9821 0.750815C15.4952 0.905491 15.0433 1.15391 14.6518 1.4821C14.5058 1.60634 13.5661 2.78194 14.2418 2.79747C14.3423 2.78989 14.4378 2.75045 14.5144 2.68488C15.1316 2.24884 15.4598 1.6028 16.2387 1.4166C16.6645 1.31683 17.1092 1.33072 17.528 1.45691C17.9468 1.58309 18.3251 1.81714 18.625 2.13557C18.8135 2.33983 19.2889 2.92071 19.493 2.42423Z" fill="white"/>
</svg>
