<svg width="76" height="76" viewBox="0 0 76 76" fill="none" xmlns="http://www.w3.org/2000/svg">
<rect width="76" height="76" rx="4" fill="#F2F6FC"/>
<path d="M25.9431 31.448H27.0951V33.112C27.4151 33.144 27.7458 33.208 28.0871 33.304C28.4285 33.4 28.7698 33.5387 29.1111 33.72L28.6471 34.952C27.9218 34.568 27.2125 34.376 26.5191 34.376C26.0391 34.376 25.6445 34.4827 25.3351 34.696C25.0365 34.9093 24.8871 35.2293 24.8871 35.656C24.8871 36.0507 25.0205 36.344 25.2871 36.536C25.5645 36.7173 25.9485 36.888 26.4391 37.048L27.1751 37.288C27.9965 37.5547 28.6151 37.912 29.0311 38.36C29.4578 38.808 29.6711 39.3787 29.6711 40.072C29.6711 40.456 29.6018 40.808 29.4631 41.128C29.3245 41.4373 29.1271 41.7147 28.8711 41.96C28.6258 42.1947 28.3325 42.3867 27.9911 42.536C27.6498 42.6853 27.2711 42.7813 26.8551 42.824V44.552H25.7031V42.824C25.2231 42.8027 24.7965 42.7333 24.4231 42.616C24.0498 42.4987 23.6605 42.328 23.2551 42.104L23.8311 40.872C24.2578 41.128 24.6738 41.304 25.0791 41.4C25.4951 41.496 25.8738 41.544 26.2151 41.544C26.7485 41.544 27.1805 41.432 27.5111 41.208C27.8418 40.984 28.0071 40.648 28.0071 40.2C28.0071 39.8053 27.8685 39.5013 27.5911 39.288C27.3138 39.064 26.8871 38.8613 26.3111 38.68L25.5431 38.424C25.2018 38.3173 24.8871 38.1893 24.5991 38.04C24.3218 37.8907 24.0765 37.7147 23.8631 37.512C23.6605 37.2987 23.5005 37.0533 23.3831 36.776C23.2658 36.4987 23.2071 36.184 23.2071 35.832C23.2071 35.032 23.4578 34.3973 23.9591 33.928C24.4605 33.448 25.1218 33.176 25.9431 33.112V31.448ZM33.2239 32.92H34.4879V43H32.8719V34.552L31.0479 35.4L30.6639 34.104L33.2239 32.92ZM40.2304 32.76C40.8064 32.76 41.3344 32.8613 41.8144 33.064C42.305 33.256 42.7264 33.5653 43.0784 33.992C43.4304 34.408 43.7077 34.9467 43.9104 35.608C44.113 36.2587 44.2144 37.0427 44.2144 37.96C44.2144 38.8773 44.1024 39.6613 43.8784 40.312C43.665 40.9627 43.3717 41.5013 42.9984 41.928C42.6357 42.3547 42.2144 42.6693 41.7344 42.872C41.2544 43.064 40.7477 43.16 40.2144 43.16C39.6384 43.16 39.105 43.064 38.6144 42.872C38.1344 42.6693 37.713 42.36 37.3504 41.944C36.9984 41.5173 36.721 40.9787 36.5184 40.328C36.3157 39.6667 36.2144 38.8773 36.2144 37.96C36.2144 37.0853 36.321 36.3227 36.5344 35.672C36.7584 35.0107 37.0517 34.4667 37.4144 34.04C37.7877 33.6133 38.2144 33.2933 38.6944 33.08C39.185 32.8667 39.697 32.76 40.2304 32.76ZM37.9264 37.96C37.9264 38.76 37.9904 39.416 38.1184 39.928C38.2464 40.4293 38.417 40.8293 38.6304 41.128C38.8437 41.416 39.089 41.6187 39.3664 41.736C39.6437 41.8427 39.9317 41.896 40.2304 41.896C40.529 41.896 40.817 41.8373 41.0944 41.72C41.3717 41.592 41.6117 41.3787 41.8144 41.08C42.0277 40.7813 42.193 40.3813 42.3104 39.88C42.4384 39.368 42.5024 38.728 42.5024 37.96C42.5024 37.16 42.4384 36.5093 42.3104 36.008C42.1824 35.496 42.0117 35.096 41.7984 34.808C41.5957 34.5093 41.3557 34.3067 41.0784 34.2C40.801 34.0827 40.513 34.024 40.2144 34.024C39.9157 34.024 39.6277 34.088 39.3504 34.216C39.073 34.3333 38.8277 34.5413 38.6144 34.84C38.4117 35.1387 38.2464 35.544 38.1184 36.056C37.9904 36.5573 37.9264 37.192 37.9264 37.96ZM49.1916 32.76C49.7676 32.76 50.2956 32.8613 50.7756 33.064C51.2663 33.256 51.6876 33.5653 52.0396 33.992C52.3916 34.408 52.669 34.9467 52.8716 35.608C53.0743 36.2587 53.1756 37.0427 53.1756 37.96C53.1756 38.8773 53.0636 39.6613 52.8396 40.312C52.6263 40.9627 52.333 41.5013 51.9596 41.928C51.597 42.3547 51.1756 42.6693 50.6956 42.872C50.2156 43.064 49.709 43.16 49.1756 43.16C48.5996 43.16 48.0663 43.064 47.5756 42.872C47.0956 42.6693 46.6743 42.36 46.3116 41.944C45.9596 41.5173 45.6823 40.9787 45.4796 40.328C45.277 39.6667 45.1756 38.8773 45.1756 37.96C45.1756 37.0853 45.2823 36.3227 45.4956 35.672C45.7196 35.0107 46.013 34.4667 46.3756 34.04C46.749 33.6133 47.1756 33.2933 47.6556 33.08C48.1463 32.8667 48.6583 32.76 49.1916 32.76ZM46.8876 37.96C46.8876 38.76 46.9516 39.416 47.0796 39.928C47.2076 40.4293 47.3783 40.8293 47.5916 41.128C47.805 41.416 48.0503 41.6187 48.3276 41.736C48.605 41.8427 48.893 41.896 49.1916 41.896C49.4903 41.896 49.7783 41.8373 50.0556 41.72C50.333 41.592 50.573 41.3787 50.7756 41.08C50.989 40.7813 51.1543 40.3813 51.2716 39.88C51.3996 39.368 51.4636 38.728 51.4636 37.96C51.4636 37.16 51.3996 36.5093 51.2716 36.008C51.1436 35.496 50.973 35.096 50.7596 34.808C50.557 34.5093 50.317 34.3067 50.0396 34.2C49.7623 34.0827 49.4743 34.024 49.1756 34.024C48.877 34.024 48.589 34.088 48.3116 34.216C48.0343 34.3333 47.789 34.5413 47.5756 34.84C47.373 35.1387 47.2076 35.544 47.0796 36.056C46.9516 36.5573 46.8876 37.192 46.8876 37.96Z" fill="#878787"/>
</svg>
