<svg width="76" height="76" viewBox="0 0 76 76" fill="none" xmlns="http://www.w3.org/2000/svg">
<rect width="76" height="76" rx="4" fill="#F2F6FC"/>
<path d="M25.1384 31.448H26.2904V33.112C26.6104 33.144 26.9411 33.208 27.2824 33.304C27.6238 33.4 27.9651 33.5387 28.3064 33.72L27.8424 34.952C27.1171 34.568 26.4078 34.376 25.7144 34.376C25.2344 34.376 24.8398 34.4827 24.5304 34.696C24.2318 34.9093 24.0824 35.2293 24.0824 35.656C24.0824 36.0507 24.2158 36.344 24.4824 36.536C24.7598 36.7173 25.1438 36.888 25.6344 37.048L26.3704 37.288C27.1918 37.5547 27.8104 37.912 28.2264 38.36C28.6531 38.808 28.8664 39.3787 28.8664 40.072C28.8664 40.456 28.7971 40.808 28.6584 41.128C28.5198 41.4373 28.3224 41.7147 28.0664 41.96C27.8211 42.1947 27.5278 42.3867 27.1864 42.536C26.8451 42.6853 26.4664 42.7813 26.0504 42.824V44.552H24.8984V42.824C24.4184 42.8027 23.9918 42.7333 23.6184 42.616C23.2451 42.4987 22.8558 42.328 22.4504 42.104L23.0264 40.872C23.4531 41.128 23.8691 41.304 24.2744 41.4C24.6904 41.496 25.0691 41.544 25.4104 41.544C25.9438 41.544 26.3758 41.432 26.7064 41.208C27.0371 40.984 27.2024 40.648 27.2024 40.2C27.2024 39.8053 27.0638 39.5013 26.7864 39.288C26.5091 39.064 26.0824 38.8613 25.5064 38.68L24.7384 38.424C24.3971 38.3173 24.0824 38.1893 23.7944 38.04C23.5171 37.8907 23.2718 37.7147 23.0584 37.512C22.8558 37.2987 22.6958 37.0533 22.5784 36.776C22.4611 36.4987 22.4024 36.184 22.4024 35.832C22.4024 35.032 22.6531 34.3973 23.1544 33.928C23.6558 33.448 24.3171 33.176 25.1384 33.112V31.448ZM36.2673 32.888V34.216L32.6193 34.248L32.3313 36.696C32.5766 36.6533 32.87 36.632 33.2113 36.632C33.6273 36.632 34.038 36.6907 34.4433 36.808C34.8593 36.9147 35.2273 37.0907 35.5473 37.336C35.878 37.5813 36.1446 37.9013 36.3473 38.296C36.5606 38.68 36.6673 39.1493 36.6673 39.704C36.6673 40.184 36.582 40.632 36.4113 41.048C36.2406 41.464 35.9846 41.832 35.6433 42.152C35.3126 42.4613 34.8966 42.7067 34.3953 42.888C33.894 43.0693 33.3073 43.16 32.6353 43.16C32.2086 43.16 31.7926 43.112 31.3873 43.016C30.982 42.92 30.6246 42.7973 30.3153 42.648L30.6833 41.384C30.95 41.512 31.238 41.6187 31.5473 41.704C31.8566 41.7893 32.1873 41.832 32.5393 41.832C33.3073 41.832 33.8993 41.656 34.3153 41.304C34.742 40.952 34.9553 40.4453 34.9553 39.784C34.9553 39.1227 34.726 38.632 34.2673 38.312C33.8193 37.9813 33.2593 37.816 32.5873 37.816C32.2993 37.816 32.006 37.8373 31.7073 37.88C31.4193 37.912 31.1313 37.9547 30.8433 38.008L31.3393 32.92L36.2673 32.888ZM42.0351 32.76C42.6111 32.76 43.1391 32.8613 43.6191 33.064C44.1097 33.256 44.5311 33.5653 44.8831 33.992C45.2351 34.408 45.5124 34.9467 45.7151 35.608C45.9177 36.2587 46.0191 37.0427 46.0191 37.96C46.0191 38.8773 45.9071 39.6613 45.6831 40.312C45.4697 40.9627 45.1764 41.5013 44.8031 41.928C44.4404 42.3547 44.0191 42.6693 43.5391 42.872C43.0591 43.064 42.5524 43.16 42.0191 43.16C41.4431 43.16 40.9097 43.064 40.4191 42.872C39.9391 42.6693 39.5177 42.36 39.1551 41.944C38.8031 41.5173 38.5257 40.9787 38.3231 40.328C38.1204 39.6667 38.0191 38.8773 38.0191 37.96C38.0191 37.0853 38.1257 36.3227 38.3391 35.672C38.5631 35.0107 38.8564 34.4667 39.2191 34.04C39.5924 33.6133 40.0191 33.2933 40.4991 33.08C40.9897 32.8667 41.5017 32.76 42.0351 32.76ZM39.7311 37.96C39.7311 38.76 39.7951 39.416 39.9231 39.928C40.0511 40.4293 40.2217 40.8293 40.4351 41.128C40.6484 41.416 40.8937 41.6187 41.1711 41.736C41.4484 41.8427 41.7364 41.896 42.0351 41.896C42.3337 41.896 42.6217 41.8373 42.8991 41.72C43.1764 41.592 43.4164 41.3787 43.6191 41.08C43.8324 40.7813 43.9977 40.3813 44.1151 39.88C44.2431 39.368 44.3071 38.728 44.3071 37.96C44.3071 37.16 44.2431 36.5093 44.1151 36.008C43.9871 35.496 43.8164 35.096 43.6031 34.808C43.4004 34.5093 43.1604 34.3067 42.8831 34.2C42.6057 34.0827 42.3177 34.024 42.0191 34.024C41.7204 34.024 41.4324 34.088 41.1551 34.216C40.8777 34.3333 40.6324 34.5413 40.4191 34.84C40.2164 35.1387 40.0511 35.544 39.9231 36.056C39.7951 36.5573 39.7311 37.192 39.7311 37.96ZM50.9963 32.76C51.5723 32.76 52.1003 32.8613 52.5803 33.064C53.071 33.256 53.4923 33.5653 53.8443 33.992C54.1963 34.408 54.4736 34.9467 54.6763 35.608C54.879 36.2587 54.9803 37.0427 54.9803 37.96C54.9803 38.8773 54.8683 39.6613 54.6443 40.312C54.431 40.9627 54.1376 41.5013 53.7643 41.928C53.4016 42.3547 52.9803 42.6693 52.5003 42.872C52.0203 43.064 51.5136 43.16 50.9803 43.16C50.4043 43.16 49.871 43.064 49.3803 42.872C48.9003 42.6693 48.479 42.36 48.1163 41.944C47.7643 41.5173 47.487 40.9787 47.2843 40.328C47.0816 39.6667 46.9803 38.8773 46.9803 37.96C46.9803 37.0853 47.087 36.3227 47.3003 35.672C47.5243 35.0107 47.8176 34.4667 48.1803 34.04C48.5536 33.6133 48.9803 33.2933 49.4603 33.08C49.951 32.8667 50.463 32.76 50.9963 32.76ZM48.6923 37.96C48.6923 38.76 48.7563 39.416 48.8843 39.928C49.0123 40.4293 49.183 40.8293 49.3963 41.128C49.6096 41.416 49.855 41.6187 50.1323 41.736C50.4096 41.8427 50.6976 41.896 50.9963 41.896C51.295 41.896 51.583 41.8373 51.8603 41.72C52.1376 41.592 52.3776 41.3787 52.5803 41.08C52.7936 40.7813 52.959 40.3813 53.0763 39.88C53.2043 39.368 53.2683 38.728 53.2683 37.96C53.2683 37.16 53.2043 36.5093 53.0763 36.008C52.9483 35.496 52.7776 35.096 52.5643 34.808C52.3616 34.5093 52.1216 34.3067 51.8443 34.2C51.567 34.0827 51.279 34.024 50.9803 34.024C50.6816 34.024 50.3936 34.088 50.1163 34.216C49.839 34.3333 49.5936 34.5413 49.3803 34.84C49.1776 35.1387 49.0123 35.544 48.8843 36.056C48.7563 36.5573 48.6923 37.192 48.6923 37.96Z" fill="#878787"/>
</svg>
