<svg width="76" height="76" viewBox="0 0 76 76" fill="none" xmlns="http://www.w3.org/2000/svg">
<rect width="76" height="76" rx="4" fill="#F2F6FC"/>
<path d="M26.4625 31.448H27.6145V33.112C27.9345 33.144 28.2652 33.208 28.6065 33.304C28.9478 33.4 29.2892 33.5387 29.6305 33.72L29.1665 34.952C28.4412 34.568 27.7318 34.376 27.0385 34.376C26.5585 34.376 26.1638 34.4827 25.8545 34.696C25.5558 34.9093 25.4065 35.2293 25.4065 35.656C25.4065 36.0507 25.5398 36.344 25.8065 36.536C26.0838 36.7173 26.4678 36.888 26.9585 37.048L27.6945 37.288C28.5158 37.5547 29.1345 37.912 29.5505 38.36C29.9772 38.808 30.1905 39.3787 30.1905 40.072C30.1905 40.456 30.1212 40.808 29.9825 41.128C29.8438 41.4373 29.6465 41.7147 29.3905 41.96C29.1452 42.1947 28.8518 42.3867 28.5105 42.536C28.1692 42.6853 27.7905 42.7813 27.3745 42.824V44.552H26.2225V42.824C25.7425 42.8027 25.3158 42.7333 24.9425 42.616C24.5692 42.4987 24.1798 42.328 23.7745 42.104L24.3505 40.872C24.7772 41.128 25.1932 41.304 25.5985 41.4C26.0145 41.496 26.3932 41.544 26.7345 41.544C27.2678 41.544 27.6998 41.432 28.0305 41.208C28.3612 40.984 28.5265 40.648 28.5265 40.2C28.5265 39.8053 28.3878 39.5013 28.1105 39.288C27.8332 39.064 27.4065 38.8613 26.8305 38.68L26.0625 38.424C25.7212 38.3173 25.4065 38.1893 25.1185 38.04C24.8412 37.8907 24.5958 37.7147 24.3825 37.512C24.1798 37.2987 24.0198 37.0533 23.9025 36.776C23.7852 36.4987 23.7265 36.184 23.7265 35.832C23.7265 35.032 23.9772 34.3973 24.4785 33.928C24.9798 33.448 25.6412 33.176 26.4625 33.112V31.448ZM33.7432 32.92H35.0072V43H33.3912V34.552L31.5672 35.4L31.1832 34.104L33.7432 32.92ZM40.7497 32.76C41.3257 32.76 41.8537 32.8613 42.3337 33.064C42.8244 33.256 43.2457 33.5653 43.5977 33.992C43.9497 34.408 44.2271 34.9467 44.4297 35.608C44.6324 36.2587 44.7337 37.0427 44.7337 37.96C44.7337 38.8773 44.6217 39.6613 44.3977 40.312C44.1844 40.9627 43.8911 41.5013 43.5177 41.928C43.1551 42.3547 42.7337 42.6693 42.2537 42.872C41.7737 43.064 41.2671 43.16 40.7337 43.16C40.1577 43.16 39.6244 43.064 39.1337 42.872C38.6537 42.6693 38.2324 42.36 37.8697 41.944C37.5177 41.5173 37.2404 40.9787 37.0377 40.328C36.8351 39.6667 36.7337 38.8773 36.7337 37.96C36.7337 37.0853 36.8404 36.3227 37.0537 35.672C37.2777 35.0107 37.5711 34.4667 37.9337 34.04C38.3071 33.6133 38.7337 33.2933 39.2137 33.08C39.7044 32.8667 40.2164 32.76 40.7497 32.76ZM38.4457 37.96C38.4457 38.76 38.5097 39.416 38.6377 39.928C38.7657 40.4293 38.9364 40.8293 39.1497 41.128C39.3631 41.416 39.6084 41.6187 39.8857 41.736C40.1631 41.8427 40.4511 41.896 40.7497 41.896C41.0484 41.896 41.3364 41.8373 41.6137 41.72C41.8911 41.592 42.1311 41.3787 42.3337 41.08C42.5471 40.7813 42.7124 40.3813 42.8297 39.88C42.9577 39.368 43.0217 38.728 43.0217 37.96C43.0217 37.16 42.9577 36.5093 42.8297 36.008C42.7017 35.496 42.5311 35.096 42.3177 34.808C42.1151 34.5093 41.8751 34.3067 41.5977 34.2C41.3204 34.0827 41.0324 34.024 40.7337 34.024C40.4351 34.024 40.1471 34.088 39.8697 34.216C39.5924 34.3333 39.3471 34.5413 39.1337 34.84C38.9311 35.1387 38.7657 35.544 38.6377 36.056C38.5097 36.5573 38.4457 37.192 38.4457 37.96ZM49.711 32.76C50.287 32.76 50.815 32.8613 51.295 33.064C51.7857 33.256 52.207 33.5653 52.559 33.992C52.911 34.408 53.1883 34.9467 53.391 35.608C53.5937 36.2587 53.695 37.0427 53.695 37.96C53.695 38.8773 53.583 39.6613 53.359 40.312C53.1457 40.9627 52.8523 41.5013 52.479 41.928C52.1163 42.3547 51.695 42.6693 51.215 42.872C50.735 43.064 50.2283 43.16 49.695 43.16C49.119 43.16 48.5857 43.064 48.095 42.872C47.615 42.6693 47.1937 42.36 46.831 41.944C46.479 41.5173 46.2017 40.9787 45.999 40.328C45.7963 39.6667 45.695 38.8773 45.695 37.96C45.695 37.0853 45.8017 36.3227 46.015 35.672C46.239 35.0107 46.5323 34.4667 46.895 34.04C47.2683 33.6133 47.695 33.2933 48.175 33.08C48.6657 32.8667 49.1777 32.76 49.711 32.76ZM47.407 37.96C47.407 38.76 47.471 39.416 47.599 39.928C47.727 40.4293 47.8977 40.8293 48.111 41.128C48.3243 41.416 48.5697 41.6187 48.847 41.736C49.1243 41.8427 49.4123 41.896 49.711 41.896C50.0097 41.896 50.2977 41.8373 50.575 41.72C50.8523 41.592 51.0923 41.3787 51.295 41.08C51.5083 40.7813 51.6737 40.3813 51.791 39.88C51.919 39.368 51.983 38.728 51.983 37.96C51.983 37.16 51.919 36.5093 51.791 36.008C51.663 35.496 51.4923 35.096 51.279 34.808C51.0763 34.5093 50.8363 34.3067 50.559 34.2C50.2817 34.0827 49.9937 34.024 49.695 34.024C49.3963 34.024 49.1083 34.088 48.831 34.216C48.5537 34.3333 48.3083 34.5413 48.095 34.84C47.8923 35.1387 47.727 35.544 47.599 36.056C47.471 36.5573 47.407 37.192 47.407 37.96ZM58.6723 32.76C59.2483 32.76 59.7763 32.8613 60.2563 33.064C60.7469 33.256 61.1683 33.5653 61.5203 33.992C61.8723 34.408 62.1496 34.9467 62.3523 35.608C62.5549 36.2587 62.6563 37.0427 62.6563 37.96C62.6563 38.8773 62.5443 39.6613 62.3203 40.312C62.1069 40.9627 61.8136 41.5013 61.4403 41.928C61.0776 42.3547 60.6563 42.6693 60.1763 42.872C59.6963 43.064 59.1896 43.16 58.6563 43.16C58.0803 43.16 57.5469 43.064 57.0563 42.872C56.5763 42.6693 56.1549 42.36 55.7923 41.944C55.4403 41.5173 55.1629 40.9787 54.9603 40.328C54.7576 39.6667 54.6563 38.8773 54.6563 37.96C54.6563 37.0853 54.7629 36.3227 54.9763 35.672C55.2003 35.0107 55.4936 34.4667 55.8563 34.04C56.2296 33.6133 56.6563 33.2933 57.1363 33.08C57.6269 32.8667 58.1389 32.76 58.6723 32.76ZM56.3683 37.96C56.3683 38.76 56.4323 39.416 56.5603 39.928C56.6883 40.4293 56.8589 40.8293 57.0723 41.128C57.2856 41.416 57.5309 41.6187 57.8083 41.736C58.0856 41.8427 58.3736 41.896 58.6723 41.896C58.9709 41.896 59.2589 41.8373 59.5363 41.72C59.8136 41.592 60.0536 41.3787 60.2563 41.08C60.4696 40.7813 60.6349 40.3813 60.7523 39.88C60.8803 39.368 60.9443 38.728 60.9443 37.96C60.9443 37.16 60.8803 36.5093 60.7523 36.008C60.6243 35.496 60.4536 35.096 60.2403 34.808C60.0376 34.5093 59.7976 34.3067 59.5203 34.2C59.2429 34.0827 58.9549 34.024 58.6563 34.024C58.3576 34.024 58.0696 34.088 57.7923 34.216C57.5149 34.3333 57.2696 34.5413 57.0563 34.84C56.8536 35.1387 56.6883 35.544 56.5603 36.056C56.4323 36.5573 56.3683 37.192 56.3683 37.96Z" fill="#878787"/>
</svg>
