<svg width="76" height="76" viewBox="0 0 76 76" fill="none" xmlns="http://www.w3.org/2000/svg">
<rect width="76" height="76" rx="4" fill="#FFEBD7"/>
<path d="M20.9469 31.448H22.0989V33.112C22.4189 33.144 22.7495 33.208 23.0909 33.304C23.4322 33.4 23.7735 33.5387 24.1149 33.72L23.6509 34.952C22.9255 34.568 22.2162 34.376 21.5229 34.376C21.0429 34.376 20.6482 34.4827 20.3389 34.696C20.0402 34.9093 19.8909 35.2293 19.8909 35.656C19.8909 36.0507 20.0242 36.344 20.2909 36.536C20.5682 36.7173 20.9522 36.888 21.4429 37.048L22.1789 37.288C23.0002 37.5547 23.6189 37.912 24.0349 38.36C24.4615 38.808 24.6749 39.3787 24.6749 40.072C24.6749 40.456 24.6055 40.808 24.4669 41.128C24.3282 41.4373 24.1309 41.7147 23.8749 41.96C23.6295 42.1947 23.3362 42.3867 22.9949 42.536C22.6535 42.6853 22.2749 42.7813 21.8589 42.824V44.552H20.7069V42.824C20.2269 42.8027 19.8002 42.7333 19.4269 42.616C19.0535 42.4987 18.6642 42.328 18.2589 42.104L18.8349 40.872C19.2615 41.128 19.6775 41.304 20.0829 41.4C20.4989 41.496 20.8775 41.544 21.2189 41.544C21.7522 41.544 22.1842 41.432 22.5149 41.208C22.8455 40.984 23.0109 40.648 23.0109 40.2C23.0109 39.8053 22.8722 39.5013 22.5949 39.288C22.3175 39.064 21.8909 38.8613 21.3149 38.68L20.5469 38.424C20.2055 38.3173 19.8909 38.1893 19.6029 38.04C19.3255 37.8907 19.0802 37.7147 18.8669 37.512C18.6642 37.2987 18.5042 37.0533 18.3869 36.776C18.2695 36.4987 18.2109 36.184 18.2109 35.832C18.2109 35.032 18.4615 34.3973 18.9629 33.928C19.4642 33.448 20.1255 33.176 20.9469 33.112V31.448ZM28.7317 34.072C28.3904 34.072 28.0651 34.136 27.7557 34.264C27.4464 34.3813 27.1157 34.5787 26.7637 34.856L26.0437 33.784C26.5024 33.4107 26.9557 33.1493 27.4037 33C27.8624 32.84 28.3371 32.76 28.8277 32.76C29.3611 32.76 29.8304 32.84 30.2357 33C30.6411 33.1493 30.9771 33.3573 31.2438 33.624C31.5104 33.8907 31.7078 34.2053 31.8358 34.568C31.9744 34.9307 32.0437 35.3253 32.0437 35.752C32.0437 36.5093 31.7557 37.288 31.1797 38.088C30.6038 38.888 29.8144 39.7733 28.8117 40.744L27.8517 41.672H32.2358V43H26.1397L25.8357 41.864L27.2117 40.488C27.7771 39.9227 28.2571 39.4213 28.6517 38.984C29.0571 38.536 29.3824 38.1307 29.6277 37.768C29.8837 37.4053 30.0704 37.0693 30.1877 36.76C30.3051 36.4507 30.3637 36.1413 30.3637 35.832C30.3637 35.3093 30.2251 34.888 29.9478 34.568C29.6704 34.2373 29.2651 34.072 28.7317 34.072ZM37.2654 32.76C37.8414 32.76 38.3694 32.8613 38.8494 33.064C39.34 33.256 39.7614 33.5653 40.1134 33.992C40.4654 34.408 40.7427 34.9467 40.9454 35.608C41.148 36.2587 41.2494 37.0427 41.2494 37.96C41.2494 38.8773 41.1374 39.6613 40.9134 40.312C40.7 40.9627 40.4067 41.5013 40.0334 41.928C39.6707 42.3547 39.2494 42.6693 38.7694 42.872C38.2894 43.064 37.7827 43.16 37.2494 43.16C36.6734 43.16 36.14 43.064 35.6494 42.872C35.1694 42.6693 34.748 42.36 34.3854 41.944C34.0334 41.5173 33.756 40.9787 33.5534 40.328C33.3507 39.6667 33.2494 38.8773 33.2494 37.96C33.2494 37.0853 33.356 36.3227 33.5694 35.672C33.7934 35.0107 34.0867 34.4667 34.4494 34.04C34.8227 33.6133 35.2494 33.2933 35.7294 33.08C36.22 32.8667 36.732 32.76 37.2654 32.76ZM34.9614 37.96C34.9614 38.76 35.0254 39.416 35.1534 39.928C35.2814 40.4293 35.452 40.8293 35.6654 41.128C35.8787 41.416 36.124 41.6187 36.4014 41.736C36.6787 41.8427 36.9667 41.896 37.2654 41.896C37.564 41.896 37.852 41.8373 38.1294 41.72C38.4067 41.592 38.6467 41.3787 38.8494 41.08C39.0627 40.7813 39.228 40.3813 39.3454 39.88C39.4734 39.368 39.5374 38.728 39.5374 37.96C39.5374 37.16 39.4734 36.5093 39.3454 36.008C39.2174 35.496 39.0467 35.096 38.8334 34.808C38.6307 34.5093 38.3907 34.3067 38.1134 34.2C37.836 34.0827 37.548 34.024 37.2494 34.024C36.9507 34.024 36.6627 34.088 36.3854 34.216C36.108 34.3333 35.8627 34.5413 35.6494 34.84C35.4467 35.1387 35.2814 35.544 35.1534 36.056C35.0254 36.5573 34.9614 37.192 34.9614 37.96ZM46.2266 32.76C46.8026 32.76 47.3306 32.8613 47.8106 33.064C48.3013 33.256 48.7226 33.5653 49.0746 33.992C49.4266 34.408 49.704 34.9467 49.9066 35.608C50.1093 36.2587 50.2106 37.0427 50.2106 37.96C50.2106 38.8773 50.0986 39.6613 49.8746 40.312C49.6613 40.9627 49.368 41.5013 48.9946 41.928C48.632 42.3547 48.2106 42.6693 47.7306 42.872C47.2506 43.064 46.744 43.16 46.2106 43.16C45.6346 43.16 45.1013 43.064 44.6106 42.872C44.1306 42.6693 43.7093 42.36 43.3466 41.944C42.9946 41.5173 42.7173 40.9787 42.5146 40.328C42.312 39.6667 42.2106 38.8773 42.2106 37.96C42.2106 37.0853 42.3173 36.3227 42.5306 35.672C42.7546 35.0107 43.048 34.4667 43.4106 34.04C43.784 33.6133 44.2106 33.2933 44.6906 33.08C45.1813 32.8667 45.6933 32.76 46.2266 32.76ZM43.9226 37.96C43.9226 38.76 43.9866 39.416 44.1146 39.928C44.2426 40.4293 44.4133 40.8293 44.6266 41.128C44.84 41.416 45.0853 41.6187 45.3626 41.736C45.64 41.8427 45.928 41.896 46.2266 41.896C46.5253 41.896 46.8133 41.8373 47.0906 41.72C47.368 41.592 47.608 41.3787 47.8106 41.08C48.024 40.7813 48.1893 40.3813 48.3066 39.88C48.4346 39.368 48.4986 38.728 48.4986 37.96C48.4986 37.16 48.4346 36.5093 48.3066 36.008C48.1786 35.496 48.008 35.096 47.7946 34.808C47.592 34.5093 47.352 34.3067 47.0746 34.2C46.7973 34.0827 46.5093 34.024 46.2106 34.024C45.912 34.024 45.624 34.088 45.3466 34.216C45.0693 34.3333 44.824 34.5413 44.6106 34.84C44.408 35.1387 44.2426 35.544 44.1146 36.056C43.9866 36.5573 43.9226 37.192 43.9226 37.96ZM55.1879 32.76C55.7639 32.76 56.2919 32.8613 56.7719 33.064C57.2625 33.256 57.6839 33.5653 58.0359 33.992C58.3879 34.408 58.6652 34.9467 58.8679 35.608C59.0705 36.2587 59.1719 37.0427 59.1719 37.96C59.1719 38.8773 59.0599 39.6613 58.8359 40.312C58.6225 40.9627 58.3292 41.5013 57.9559 41.928C57.5932 42.3547 57.1719 42.6693 56.6919 42.872C56.2119 43.064 55.7052 43.16 55.1719 43.16C54.5959 43.16 54.0625 43.064 53.5719 42.872C53.0919 42.6693 52.6705 42.36 52.3079 41.944C51.9559 41.5173 51.6785 40.9787 51.4759 40.328C51.2732 39.6667 51.1719 38.8773 51.1719 37.96C51.1719 37.0853 51.2785 36.3227 51.4919 35.672C51.7159 35.0107 52.0092 34.4667 52.3719 34.04C52.7452 33.6133 53.1719 33.2933 53.6519 33.08C54.1425 32.8667 54.6545 32.76 55.1879 32.76ZM52.8839 37.96C52.8839 38.76 52.9479 39.416 53.0759 39.928C53.2039 40.4293 53.3745 40.8293 53.5879 41.128C53.8012 41.416 54.0465 41.6187 54.3239 41.736C54.6012 41.8427 54.8892 41.896 55.1879 41.896C55.4865 41.896 55.7745 41.8373 56.0519 41.72C56.3292 41.592 56.5692 41.3787 56.7719 41.08C56.9852 40.7813 57.1505 40.3813 57.2679 39.88C57.3959 39.368 57.4599 38.728 57.4599 37.96C57.4599 37.16 57.3959 36.5093 57.2679 36.008C57.1399 35.496 56.9692 35.096 56.7559 34.808C56.5532 34.5093 56.3132 34.3067 56.0359 34.2C55.7585 34.0827 55.4705 34.024 55.1719 34.024C54.8732 34.024 54.5852 34.088 54.3079 34.216C54.0305 34.3333 53.7852 34.5413 53.5719 34.84C53.3692 35.1387 53.2039 35.544 53.0759 36.056C52.9479 36.5573 52.8839 37.192 52.8839 37.96Z" fill="#FFA647"/>
</svg>
