<svg width="30" height="30" viewBox="0 0 30 30" fill="none" xmlns="http://www.w3.org/2000/svg">
<path d="M4.21043 24.4989L7.03125 25.909V29.4141C7.03125 29.7377 7.29363 30 7.61719 30H13.8281C14.1517 30 14.4141 29.7377 14.4141 29.4141V21.4131C14.4141 19.618 13.0674 18.1292 11.2857 17.9506C11.2788 17.9487 8.80717 17.5628 7.66049 16.4161L6.34459 15.1008C5.90186 14.6579 5.31334 14.4141 4.6875 14.4141V9.72656C4.6875 8.43422 3.63609 7.38281 2.34375 7.38281C1.05141 7.38281 0 8.43422 0 9.72656V17.6859C0 20.5695 1.62879 23.2078 4.21043 24.4989ZM1.17188 9.72656C1.17188 9.08039 1.69758 8.55469 2.34375 8.55469C2.98992 8.55469 3.51562 9.08039 3.51562 9.72656V14.7282C2.80102 15.1414 2.34375 15.9118 2.34375 16.7578C2.34375 17.3836 2.58762 17.9721 3.03041 18.4148L6.031 21.416C6.25969 21.6448 6.63076 21.6449 6.85963 21.4161C7.08844 21.1873 7.0885 20.8163 6.85969 20.5874L3.8591 17.5862C3.63762 17.3648 3.51562 17.0706 3.51562 16.7578C3.51562 16.2619 3.82951 15.8177 4.2968 15.6527C4.29697 15.6526 4.29715 15.6525 4.29732 15.6524H4.29738C4.70145 15.5092 5.1808 15.5942 5.51607 15.9295L6.83197 17.2448C8.19053 18.6033 11.1587 19.1146 11.1646 19.1162C12.349 19.2349 13.2422 20.2224 13.2422 21.4131V28.8281H8.20312V25.5469C8.20312 25.3249 8.07768 25.122 7.87922 25.0228L4.73455 23.4507C2.53705 22.3517 1.17188 20.1428 1.17188 17.6859V9.72656Z" fill="white"/>
<path d="M7.96875 14.4141H22.0312C22.3548 14.4141 22.6172 14.1517 22.6172 13.8281V0.585938C22.6172 0.262324 22.3548 0 22.0312 0H7.96875C7.6452 0 7.38281 0.262324 7.38281 0.585938V13.8281C7.38281 14.1517 7.6452 14.4141 7.96875 14.4141ZM13.2422 1.17188H16.7578V4.32967L15.2358 3.57645C15.0706 3.49459 14.8763 3.49547 14.7118 3.57861L13.2422 4.321V1.17188ZM8.55469 1.17188H12.0703V5.27344C12.0703 5.47693 12.1759 5.6659 12.3493 5.77254C12.5225 5.87912 12.7389 5.8882 12.9204 5.79645L14.9787 4.7567L17.0839 5.79861C17.2624 5.88697 17.4778 5.88 17.6528 5.77125C17.825 5.66432 17.9297 5.47605 17.9297 5.27344V1.17188H21.4453V13.2422H8.55469V1.17188Z" fill="white"/>
<path d="M19.6875 10.3125H16.1719C15.8483 10.3125 15.5859 10.5748 15.5859 10.8984C15.5859 11.2221 15.8483 11.4844 16.1719 11.4844H19.6875C20.0111 11.4844 20.2734 11.2221 20.2734 10.8984C20.2734 10.5748 20.0111 10.3125 19.6875 10.3125Z" fill="white"/>
<path d="M26.8945 23.6719C27.2181 23.6719 27.4805 23.4095 27.4805 23.0859C27.4805 22.7623 27.2181 22.5 26.8945 22.5C26.5709 22.5 26.3086 22.7623 26.3086 23.0859C26.3086 23.4095 26.5709 23.6719 26.8945 23.6719Z" fill="white"/>
<path d="M27.6562 7.38281C26.3639 7.38281 25.3125 8.43422 25.3125 9.72656V14.4141C24.6867 14.4141 24.0981 14.6579 23.6555 15.1006L22.3394 16.4162C21.6187 17.1369 19.793 17.8421 18.7577 17.9459L18.7185 17.9501C16.9326 18.1292 15.5859 19.618 15.5859 21.4131V29.4141C15.5859 29.7377 15.8483 30 16.1719 30H22.3828C22.7064 30 22.9688 29.7377 22.9688 29.4141V25.909L24.8865 24.9503C25.1759 24.8056 25.2933 24.4537 25.1486 24.1642C25.0039 23.8748 24.6521 23.7574 24.3625 23.9021L22.1208 25.0227C21.9223 25.122 21.7969 25.3249 21.7969 25.5469V28.8281H16.7578V21.4131C16.7578 20.2224 17.651 19.2349 18.8396 19.1157L18.8788 19.1115C20.1497 18.9841 22.2541 18.1587 23.1679 17.2449L24.484 15.9294C24.8194 15.594 25.2993 15.5095 25.7026 15.6524H25.7027C25.7029 15.6525 25.703 15.6526 25.7032 15.6527C26.5101 15.9377 26.753 16.974 26.141 17.5863L23.1404 20.5875C22.9116 20.8164 22.9116 21.1873 23.1404 21.4161C23.3692 21.6449 23.7403 21.6449 23.9691 21.4161L26.9696 18.4149C28.0529 17.3315 27.8272 15.5046 26.4844 14.7282V9.72656C26.4844 9.08039 27.0101 8.55469 27.6563 8.55469C28.3025 8.55469 28.8282 9.08039 28.8282 9.72656V17.6859C28.8282 18.758 28.5577 19.8223 28.0458 20.7638C27.8912 21.048 27.9963 21.4038 28.2807 21.5584C28.5649 21.7129 28.9208 21.6078 29.0753 21.3235C29.6803 20.2108 30 18.9529 30 17.6859V9.72656C30 8.43422 28.9486 7.38281 27.6562 7.38281Z" fill="white"/>
</svg>
