<svg width="60" height="56" viewBox="0 0 60 56" fill="none" xmlns="http://www.w3.org/2000/svg">
<path d="M2.75909 44.486L12.5264 25.646L22.6569 30.2585C25.4372 35.3864 27.8043 39.1261 28.1027 39.5908C28.255 39.8273 28.4639 40.022 28.7105 40.1573C28.9571 40.2926 29.2335 40.3643 29.5148 40.3659C29.8058 40.3668 30.0919 40.2916 30.3448 40.1476C30.5976 40.0037 30.8084 39.796 30.9561 39.5453C31.6595 38.4144 38.2951 26.6695 38.2951 26.6695L45.9908 30.4606L55.1851 51.2067L39.9669 43.7796C39.7385 43.6751 39.4907 43.6199 39.2396 43.6177C38.975 43.618 38.714 43.6796 38.4772 43.7975L21.2873 52.862L2.75909 44.486Z" fill="#C2C4C9"/>
<path d="M29.5155 0.816406C26.3779 0.81996 23.3698 2.06792 21.1512 4.28654C18.9326 6.50515 17.6846 9.51321 17.6811 12.6508C17.6811 18.013 27.4372 34.386 29.517 37.8168C31.6058 34.4114 41.3507 18.1972 41.3507 12.6508C41.3469 9.51314 40.0988 6.50508 37.88 4.28649C35.6613 2.0679 32.6532 0.81996 29.5155 0.816406ZM29.5155 21.8996C27.686 21.8996 25.8975 21.3571 24.3763 20.3407C22.8551 19.3242 21.6695 17.8795 20.9693 16.1893C20.2692 14.499 20.086 12.6391 20.443 10.8447C20.7999 9.05029 21.6809 7.40205 22.9746 6.10837C24.2682 4.8147 25.9165 3.93369 27.7109 3.57677C29.5052 3.21984 31.3652 3.40303 33.0554 4.10316C34.7457 4.80329 36.1904 5.98893 37.2068 7.51014C38.2233 9.03134 38.7658 10.8198 38.7658 12.6493C38.7632 15.1017 37.7879 17.453 36.0539 19.1872C34.3198 20.9214 31.9687 21.8968 29.5162 21.8996H29.5155Z" fill="#C2C4C9"/>
<path d="M29.5153 8.51489C28.6976 8.51504 27.8982 8.75765 27.2183 9.21207C26.5384 9.66649 26.0085 10.3123 25.6957 11.0679C25.3828 11.8234 25.301 12.6548 25.4605 13.4568C25.6201 14.2589 26.0139 14.9956 26.5922 15.5738C27.1704 16.1521 27.9071 16.5459 28.7092 16.7055C29.5112 16.865 30.3426 16.7832 31.0981 16.4703C31.8537 16.1575 32.4995 15.6276 32.9539 14.9477C33.4083 14.2678 33.651 13.4684 33.6511 12.6507C33.6499 11.5541 33.2138 10.5029 32.4385 9.72754C31.6631 8.95219 30.6118 8.51608 29.5153 8.51489Z" fill="#C2C4C9"/>
<path d="M29.5155 39.1439C29.4378 39.1438 29.3615 39.1239 29.2938 39.0861C29.226 39.0482 29.169 38.9936 29.1283 38.9275C28.6225 38.1151 16.7665 18.8797 16.7665 12.6507C16.7922 9.28666 18.1466 6.06915 20.5345 3.69945C22.9224 1.32975 26.1502 0 29.5144 0C32.8785 0 36.1063 1.32975 38.4942 3.69945C40.8821 6.06915 42.2365 9.28666 42.2622 12.6507C42.2622 19.0909 30.4062 38.1256 29.9011 38.932C29.86 38.997 29.8031 39.0506 29.7356 39.0877C29.6682 39.1247 29.5924 39.144 29.5155 39.1439ZM29.5155 0.813333C26.3779 0.816887 23.3698 2.06485 21.1512 4.28346C18.9326 6.50208 17.6846 9.51014 17.6811 12.6477C17.6811 18.0099 27.4371 34.3829 29.517 37.8138C31.6057 34.4083 41.3506 18.1942 41.3506 12.6477C41.3461 9.51059 40.0976 6.5033 37.879 4.28535C35.6603 2.06741 32.6526 0.819867 29.5155 0.816315V0.813333Z" fill="#C2C4C9"/>
<path d="M29.5164 22.8126C27.5065 22.8127 25.5418 22.2169 23.8706 21.1003C22.1993 19.9838 20.8968 18.3968 20.1275 16.54C19.3583 14.6831 19.1569 12.6399 19.5489 10.6686C19.9409 8.69738 20.9087 6.88663 22.3299 5.46539C23.751 4.04415 25.5617 3.07625 27.5329 2.68409C29.5041 2.29193 31.5474 2.49312 33.4043 3.26223C35.2612 4.03133 36.8483 5.33382 37.9649 7.00496C39.0816 8.67609 39.6776 10.6408 39.6776 12.6507C39.6744 15.3447 38.6029 17.9274 36.698 19.8325C34.7931 21.7375 32.2104 22.8092 29.5164 22.8126ZM29.5164 3.40112C27.6869 3.40112 25.8984 3.94365 24.3772 4.96008C22.856 5.97652 21.6704 7.42121 20.9702 9.11148C20.2701 10.8018 20.0869 12.6617 20.4439 14.4561C20.8008 16.2504 21.6818 17.8987 22.9755 19.1924C24.2691 20.486 25.9174 21.367 27.7118 21.724C29.5061 22.0809 31.3661 21.8977 33.0563 21.1976C34.7466 20.4974 36.1913 19.3118 37.2078 17.7906C38.2242 16.2694 38.7667 14.4809 38.7667 12.6514C38.7641 10.1989 37.7887 7.84752 36.0545 6.11331C34.3203 4.3791 31.969 3.40369 29.5164 3.40112Z" fill="#C2C4C9"/>
<path d="M29.5157 17.6995C28.5171 17.6995 27.5409 17.4034 26.7107 16.8487C25.8804 16.2939 25.2333 15.5054 24.8511 14.5828C24.469 13.6602 24.369 12.6451 24.5638 11.6657C24.7586 10.6863 25.2395 9.78669 25.9456 9.0806C26.6517 8.3745 27.5513 7.89363 28.5307 7.69882C29.5101 7.50401 30.5252 7.60399 31.4478 7.98613C32.3704 8.36826 33.1589 9.01541 33.7137 9.84569C34.2684 10.676 34.5645 11.6521 34.5645 12.6507C34.563 13.9892 34.0305 15.2725 33.084 16.219C32.1375 17.1655 30.8542 17.698 29.5157 17.6995ZM29.5157 8.51491C28.6979 8.51506 27.8985 8.75767 27.2186 9.21209C26.5388 9.66651 26.0089 10.3123 25.696 11.0679C25.3831 11.8234 25.3013 12.6548 25.4609 13.4568C25.6205 14.2589 26.0143 14.9956 26.5925 15.5738C27.1708 16.1521 27.9075 16.5459 28.7095 16.7055C29.5116 16.865 30.3429 16.7832 31.0985 16.4703C31.854 16.1575 32.4998 15.6276 32.9543 14.9477C33.4087 14.2678 33.6513 13.4684 33.6514 12.6507C33.6503 11.5542 33.2142 10.5029 32.4388 9.72756C31.6635 8.9522 30.6122 8.5161 29.5157 8.51491Z" fill="#C2C4C9"/>
<path d="M21.2835 51.9869C21.2585 51.9869 21.2335 51.9846 21.2089 51.9802C21.0898 51.9608 20.9832 51.8949 20.9126 51.797C20.842 51.6991 20.813 51.5772 20.8322 51.458L23.5595 34.9015C23.5677 34.8409 23.588 34.7826 23.6191 34.73C23.6502 34.6775 23.6916 34.6317 23.7408 34.5954C23.7899 34.5591 23.8458 34.533 23.9053 34.5188C23.9647 34.5045 24.0263 34.5023 24.0866 34.5122C24.1469 34.5222 24.2045 34.5442 24.2562 34.5769C24.3078 34.6096 24.3523 34.6523 24.3871 34.7025C24.422 34.7527 24.4463 34.8094 24.4588 34.8692C24.4714 34.929 24.4717 34.9907 24.46 35.0507L21.7334 51.602C21.7163 51.7091 21.6617 51.8067 21.5793 51.8772C21.4969 51.9478 21.392 51.9867 21.2835 51.9869Z" fill="white"/>
<path d="M38.9008 43.1535C38.8004 43.1547 38.7028 43.1206 38.625 43.0572C38.5472 42.9938 38.494 42.9051 38.4748 42.8066L36.404 31.2818C36.3948 31.2268 36.3968 31.1706 36.4097 31.1164C36.4225 31.0622 36.4461 31.011 36.4789 30.966C36.5118 30.921 36.5533 30.883 36.601 30.8542C36.6487 30.8255 36.7017 30.8065 36.7568 30.7984C36.8684 30.7774 36.9837 30.8015 37.0775 30.8654C37.1714 30.9293 37.236 31.0278 37.2574 31.1393L39.3282 42.6641C39.3371 42.7252 39.3326 42.7875 39.3151 42.8467C39.2976 42.9058 39.2675 42.9606 39.2269 43.007C39.1863 43.0535 39.1362 43.0907 39.0799 43.1159C39.0236 43.1412 38.9625 43.154 38.9008 43.1535Z" fill="white"/>
<path d="M58.5741 55.1775C58.5048 55.1778 58.4364 55.1619 58.3742 55.1312L39.244 45.8004L21.5528 55.1253C21.4913 55.1578 21.4232 55.1758 21.3536 55.1781C21.2841 55.1802 21.2149 55.1665 21.1515 55.138L0.268193 45.7086C0.211678 45.6829 0.160975 45.646 0.119179 45.6C0.0773833 45.5541 0.045369 45.5002 0.025065 45.4415C0.00476095 45.3828 -0.00340774 45.3206 0.00106975 45.2587C0.00554724 45.1968 0.0225756 45.1364 0.0511091 45.0813L11.3603 23.2588C11.4148 23.1548 11.5069 23.0756 11.6179 23.0374C11.7288 22.9991 11.8502 23.0046 11.9571 23.0529L21.044 27.1558C21.1474 27.2097 21.2262 27.301 21.2645 27.4111C21.3028 27.5212 21.2976 27.6417 21.25 27.7481C21.2023 27.8545 21.1159 27.9387 21.0083 27.9834C20.9007 28.0282 20.7801 28.0302 20.6711 27.9891L11.9788 24.0622L1.08729 45.0723L21.3245 54.2129L39.0232 44.888C39.0866 44.8544 39.1569 44.8363 39.2286 44.8352C39.3004 44.834 39.3713 44.8498 39.4357 44.8813L57.6469 53.7609L46.9135 29.5639L39.1485 25.7757C39.0945 25.7497 39.0462 25.7132 39.0064 25.6685C38.9666 25.6237 38.936 25.5714 38.9165 25.5148C38.8969 25.4581 38.8888 25.3982 38.8925 25.3384C38.8962 25.2786 38.9117 25.2201 38.9381 25.1663C38.9917 25.0581 39.0856 24.9753 39.1996 24.9358C39.3137 24.8963 39.4387 24.9033 39.5476 24.9552L47.4633 28.8164C47.5599 28.8632 47.637 28.9424 47.6812 29.0402L58.9897 54.5352C59.0206 54.6048 59.0337 54.681 59.0277 54.7569C59.0217 54.8328 58.9968 54.906 58.9553 54.9699C58.9138 55.0337 58.857 55.0861 58.79 55.1224C58.723 55.1587 58.648 55.1776 58.5719 55.1775H58.5741Z" fill="#C2C4C9"/>
</svg>
