<svg width="45" height="58" viewBox="0 0 45 58" fill="none" xmlns="http://www.w3.org/2000/svg">
<path d="M41.4409 57.3119H8.47479C8.36835 57.3119 8.26626 57.2696 8.19099 57.1944C8.11572 57.1191 8.07344 57.017 8.07344 56.9105V32.176H6.1838C6.07729 32.1758 5.97522 32.1334 5.89997 32.058C5.82473 31.9826 5.78247 31.8804 5.78247 31.7739V22.0353C5.78237 21.9825 5.79266 21.9303 5.81278 21.8815C5.83291 21.8327 5.86246 21.7883 5.89974 21.751C5.93701 21.7136 5.98129 21.684 6.03003 21.6638C6.07878 21.6436 6.13103 21.6332 6.1838 21.6332C6.1838 21.6332 20.0046 21.6238 29.2076 21.6238C34.7265 21.6238 36.5904 21.6238 37.2502 21.7097V21.6316H43.7358C43.7886 21.6316 43.8408 21.642 43.8896 21.6622C43.9383 21.6824 43.9826 21.7121 44.0199 21.7494C44.0571 21.7868 44.0867 21.8311 44.1068 21.8799C44.1269 21.9287 44.1373 21.9809 44.1372 22.0337V31.7723C44.1372 31.8788 44.0949 31.981 44.0197 32.0564C43.9444 32.1318 43.8423 32.1743 43.7358 32.1745H41.8462V56.909C41.8464 56.9622 41.836 57.0149 41.8157 57.064C41.7954 57.1131 41.7655 57.1577 41.7278 57.1952C41.6901 57.2327 41.6453 57.2623 41.5961 57.2823C41.5468 57.3024 41.4941 57.3124 41.4409 57.3119ZM8.88003 56.5085H41.0419V31.7739C41.0419 31.6674 41.0842 31.5654 41.1595 31.4901C41.2347 31.4148 41.3368 31.3725 41.4433 31.3725H43.3329V22.4366H37.2158C37.0596 22.4327 35.5253 22.428 29.206 22.428C20.9291 22.428 8.91907 22.4359 6.58437 22.4374V31.3717H8.47322C8.52599 31.3716 8.57828 31.382 8.62706 31.4021C8.67585 31.4222 8.72018 31.4518 8.75753 31.489C8.79488 31.5263 8.8245 31.5706 8.84472 31.6193C8.86494 31.6681 8.87536 31.7203 8.87536 31.7731L8.88003 56.5085Z" fill="white"/>
<path d="M7.74146 30.2162H8.47466C8.81698 30.2171 9.14943 30.3309 9.42049 30.54C9.69154 30.7491 9.88604 31.0417 9.97385 31.3726H24.1663V23.5837C17.6526 23.5837 10.8406 23.59 7.74146 23.5923V30.2162Z" fill="white"/>
<path d="M24.1662 32.9568H10.033V55.3527H24.1662V32.9568Z" fill="white"/>
<path d="M39.8831 32.9568H25.7507V55.3527H39.8831V32.9568Z" fill="white"/>
<path d="M37.1876 23.5923C37.0838 23.5923 36.0945 23.5837 29.2075 23.5837H25.7507V31.3718H39.9416C40.0297 31.0409 40.2244 30.7483 40.4956 30.5393C40.7667 30.3302 41.0993 30.2164 41.4416 30.2154H42.1741V23.5923H37.1876Z" fill="white"/>
<path d="M24.1758 20.4055C24.0847 20.4051 23.9964 20.374 23.9251 20.3173C22.4987 19.2826 20.9465 18.4338 19.3057 17.7913C16.5056 16.5537 13.8609 15.3847 13.1238 12.4769C12.8674 11.6019 12.8146 10.6798 12.9696 9.78122C13.1246 8.88267 13.4832 8.03151 14.0179 7.29292C14.5928 6.52557 15.4144 5.97954 16.3445 5.74662C17.2746 5.5137 18.2566 5.60809 19.1253 6.01391C22.2221 7.46158 23.7877 14.3056 24.5584 19.8394C24.5855 19.9006 24.5969 19.9677 24.5916 20.0344C24.5863 20.1012 24.5645 20.1656 24.5281 20.2218C24.4917 20.278 24.4418 20.3242 24.383 20.3563C24.3242 20.3884 24.2584 20.4053 24.1914 20.4055H24.1758ZM17.3325 6.40669C16.8092 6.41626 16.295 6.54599 15.8298 6.78591C15.3646 7.02582 14.9608 7.36947 14.6496 7.79031C14.1908 8.43242 13.8848 9.17085 13.7549 9.94924C13.625 10.7276 13.6746 11.5254 13.9 12.2817C14.541 14.8108 16.8992 15.8525 19.6282 17.0596C21.0228 17.628 22.365 18.3176 23.6393 19.1203C22.5829 12.1005 20.8674 7.72005 18.7825 6.74478C18.3301 6.527 17.8353 6.41158 17.3333 6.40669H17.3325Z" fill="white"/>
<path d="M26.0968 20.9178C26.0384 20.9178 25.9807 20.9051 25.9277 20.8805C25.8747 20.8559 25.8277 20.8201 25.79 20.7754C25.7523 20.7308 25.7248 20.6785 25.7094 20.6222C25.694 20.5659 25.6911 20.5068 25.7009 20.4492C26.5692 15.5511 27.8092 11.8522 31.2909 8.55243C33.0573 6.80356 35.4194 5.78693 37.9038 5.70629C38.7723 5.65794 39.6386 5.83498 40.4184 6.22026C41.1983 6.60554 41.8652 7.18595 42.3546 7.90511C44.3574 11.1331 41.8595 14.8194 39.1118 16.9948C35.9767 19.4779 31.3542 20.8709 26.0976 20.9209L26.0968 20.9178ZM37.9038 6.50664C35.6275 6.59928 33.467 7.53559 31.843 9.13336C28.6337 12.1732 27.4164 15.6057 26.5786 20.1057C31.4565 19.98 35.7143 18.6588 38.6159 16.3631C41.1045 14.3915 43.3993 11.1042 41.6752 8.32598C41.26 7.72001 40.6934 7.23326 40.0318 6.91409C39.3702 6.59493 38.6365 6.45446 37.9038 6.50664Z" fill="white"/>
<path d="M21.7317 21.0208H21.7083C17.3863 20.7702 14.573 19.7918 10.2823 14.9092C8.85648 13.2866 6.04625 10.7396 3.25476 11.9014C1.34093 12.6987 0.53432 15.316 0.884135 17.2845C0.893415 17.3364 0.892391 17.3896 0.881108 17.4411C0.869826 17.4926 0.848517 17.5413 0.81839 17.5846C0.788263 17.6278 0.749895 17.6648 0.705511 17.6932C0.661126 17.7216 0.611585 17.741 0.559699 17.7503C0.507814 17.7596 0.454605 17.7585 0.403118 17.7473C0.35163 17.736 0.302869 17.7147 0.259618 17.6845C0.216367 17.6544 0.179481 17.6161 0.151052 17.5717C0.122623 17.5273 0.103213 17.4778 0.0939332 17.4259C-0.31991 15.1021 0.634255 12.1224 2.94553 11.1589C5.35597 10.1547 8.17715 11.2979 10.8843 14.3783C15.0118 19.075 17.5737 19.9761 21.7543 20.2189C21.8583 20.2254 21.9557 20.2721 22.0259 20.3491C22.0961 20.4261 22.1336 20.5274 22.1305 20.6316C22.1274 20.7358 22.0838 20.8346 22.0091 20.9072C21.9344 20.9799 21.8343 21.0206 21.7301 21.0208H21.7317Z" fill="white"/>
<path d="M25.5477 16.5022C25.4468 16.5021 25.3496 16.4639 25.2757 16.3953C25.2017 16.3267 25.1563 16.2327 25.1487 16.1321C24.9472 13.6576 26.3535 6.16937 31.026 2.3261C33.8222 0.0257523 37.2555 -0.571594 41.2245 0.548126C41.327 0.577015 41.4139 0.645441 41.4659 0.738355C41.518 0.831268 41.531 0.94105 41.5021 1.04356C41.4732 1.14607 41.4048 1.23292 41.3119 1.28497C41.219 1.33703 41.1092 1.35006 41.0067 1.32117C37.3047 0.276411 34.1181 0.823754 31.5359 2.94685C27.0953 6.5996 25.7577 13.7154 25.949 16.0649C25.9532 16.1175 25.9469 16.1703 25.9307 16.2205C25.9144 16.2706 25.8884 16.3171 25.8542 16.3572C25.82 16.3973 25.7782 16.4302 25.7312 16.4542C25.6842 16.4781 25.633 16.4926 25.5805 16.4967L25.5477 16.5022Z" fill="white"/>
<path d="M38.0747 53.8347H31.9256C31.822 53.8347 31.7227 53.7936 31.6495 53.7204C31.5763 53.6471 31.5352 53.5478 31.5352 53.4443V47.2952C31.5352 47.1917 31.5763 47.0924 31.6495 47.0191C31.7227 46.9459 31.822 46.9048 31.9256 46.9048H38.0747C38.1782 46.9048 38.2775 46.9459 38.3507 47.0191C38.4239 47.0924 38.4651 47.1917 38.4651 47.2952V53.4443C38.4651 53.5478 38.4239 53.6471 38.3507 53.7204C38.2775 53.7936 38.1782 53.8347 38.0747 53.8347ZM32.316 53.0539H37.6842V47.6856H32.316V53.0539Z" fill="white"/>
<path d="M34.429 49.2144H33.1929C33.0894 49.2144 32.9901 49.1733 32.9168 49.1001C32.8436 49.0269 32.8025 48.9276 32.8025 48.824C32.8025 48.7205 32.8436 48.6211 32.9168 48.5479C32.9901 48.4747 33.0894 48.4336 33.1929 48.4336H34.429C34.5325 48.4336 34.6318 48.4747 34.705 48.5479C34.7783 48.6211 34.8194 48.7205 34.8194 48.824C34.8194 48.9276 34.7783 49.0269 34.705 49.1001C34.6318 49.1733 34.5325 49.2144 34.429 49.2144Z" fill="white"/>
<path d="M36.9995 50.7598H33.1929C33.0894 50.7598 32.9901 50.7187 32.9168 50.6455C32.8436 50.5723 32.8025 50.473 32.8025 50.3694C32.8025 50.2659 32.8436 50.1666 32.9168 50.0934C32.9901 50.0201 33.0894 49.979 33.1929 49.979H36.9995C37.103 49.979 37.2024 50.0201 37.2756 50.0934C37.3488 50.1666 37.3899 50.2659 37.3899 50.3694C37.3899 50.473 37.3488 50.5723 37.2756 50.6455C37.2024 50.7187 37.103 50.7598 36.9995 50.7598Z" fill="white"/>
<path d="M36.9996 52.3057H35.7635C35.66 52.3057 35.5607 52.2646 35.4874 52.1914C35.4142 52.1182 35.3731 52.0189 35.3731 51.9153C35.3731 51.8118 35.4142 51.7125 35.4874 51.6393C35.5607 51.566 35.66 51.5249 35.7635 51.5249H36.9996C37.1031 51.5249 37.2024 51.566 37.2757 51.6393C37.3489 51.7125 37.39 51.8118 37.39 51.9153C37.39 52.0189 37.3489 52.1182 37.2757 52.1914C37.2024 52.2646 37.1031 52.3057 36.9996 52.3057Z" fill="white"/>
</svg>
