<svg width="58" height="35" viewBox="0 0 58 35" fill="none" xmlns="http://www.w3.org/2000/svg">
<path d="M56.6755 26.1898C56.596 26.1787 56.5231 26.1395 56.47 26.0793C56.4169 26.0192 56.387 25.942 56.3857 25.8618V22.0942C56.3857 20.0951 55.5742 17.4178 54.0886 14.5394L53.9246 14.2188C52.5677 11.5937 51.8292 10.147 48.399 10.147H42.1333C41.6776 10.1467 41.2404 10.327 40.9175 10.6485C40.5946 10.97 40.4123 11.4064 40.4106 11.8621V22.668C40.4109 22.7122 40.4023 22.7559 40.3855 22.7967C40.3688 22.8376 40.3441 22.8746 40.3128 22.9059C40.2816 22.9371 40.2445 22.9618 40.2037 22.9786C40.1629 22.9953 40.1192 23.0039 40.075 23.0036H7.03639C6.83187 23.0032 6.63547 23.0837 6.49015 23.2276C6.34482 23.3715 6.2624 23.5671 6.26086 23.7716V28.2017C6.2624 28.4062 6.34482 28.6018 6.49015 28.7457C6.63547 28.8897 6.83187 28.9702 7.03639 28.9697H8.56486C8.609 28.9695 8.65274 28.978 8.69356 28.9948C8.73438 29.0116 8.77148 29.0363 8.80269 29.0675C8.83389 29.0987 8.8586 29.1358 8.87539 29.1766C8.89217 29.2174 8.9007 29.2612 8.90047 29.3053H9.47488C9.58026 28.0546 10.1515 26.8891 11.0755 26.0397C11.9996 25.1903 13.2089 24.7189 14.464 24.7189C15.7191 24.7189 16.9285 25.1903 17.8525 26.0397C18.7765 26.8891 19.3477 28.0546 19.4531 29.3053H39.9464C40.0517 28.0546 40.623 26.8891 41.547 26.0397C42.471 25.1903 43.6804 24.7189 44.9355 24.7189C46.1906 24.7189 47.3999 25.1903 48.3239 26.0397C49.2479 26.8891 49.8192 28.0546 49.9246 29.3053H50.499C50.4988 29.2612 50.5073 29.2174 50.5241 29.1766C50.5409 29.1358 50.5656 29.0987 50.5968 29.0675C50.628 29.0363 50.6651 29.0116 50.7059 28.9948C50.7467 28.978 50.7905 28.9695 50.8346 28.9697H56.614C56.6777 28.9699 56.7408 28.9574 56.7997 28.9331C56.8585 28.9088 56.912 28.8732 56.957 28.8281C57.0021 28.7831 57.0377 28.7296 57.062 28.6708C57.0863 28.6119 57.0988 28.5488 57.0986 28.4852V26.6651C57.0978 26.548 57.0544 26.4352 56.9766 26.3478C56.8987 26.2603 56.7917 26.2042 56.6755 26.1898ZM52.6558 20.433C52.4879 20.4324 52.3205 20.4149 52.1562 20.3808C51.2288 20.2168 44.5718 18.0768 43.4311 17.6966C41.9617 17.2114 41.9692 16.4214 41.9768 15.847V15.7496C41.9768 15.5114 41.9617 15.1833 41.9542 14.8025C41.9321 14.2658 41.9095 13.6317 41.9095 13.0132C41.9095 11.6633 42.6254 11.3903 43.6919 11.3903C44.3185 11.3903 47.2276 11.4569 48.45 11.4871C49.0089 11.4916 49.5593 11.6235 50.0594 11.873C50.5595 12.1224 50.9962 12.4826 51.336 12.9263C52.9242 14.8205 53.8046 17.6543 53.8046 18.8924C53.8046 19.3138 53.8046 20.433 52.6558 20.433Z" fill="white"/>
<path d="M44.9363 25.3848C44.0788 25.3848 43.2406 25.6391 42.5276 26.1155C41.8146 26.5919 41.2589 27.269 40.9307 28.0612C40.6026 28.8534 40.5167 29.7252 40.684 30.5662C40.8513 31.4072 41.2642 32.1797 41.8706 32.7861C42.4769 33.3924 43.2495 33.8053 44.0905 33.9726C44.9315 34.1399 45.8032 34.0541 46.5955 33.7259C47.3877 33.3978 48.0648 32.8421 48.5412 32.1291C49.0176 31.4161 49.2719 30.5779 49.2719 29.7204C49.2705 28.5709 48.8133 27.4689 48.0005 26.6562C47.1877 25.8434 46.0858 25.3861 44.9363 25.3848ZM44.9363 31.949C44.4955 31.949 44.0646 31.8183 43.6981 31.5734C43.3316 31.3285 43.046 30.9805 42.8773 30.5732C42.7086 30.166 42.6645 29.7179 42.7505 29.2856C42.8365 28.8533 43.0487 28.4561 43.3604 28.1445C43.6721 27.8328 44.0692 27.6205 44.5015 27.5345C44.9338 27.4485 45.382 27.4927 45.7892 27.6613C46.1964 27.83 46.5445 28.1157 46.7894 28.4822C47.0343 28.8487 47.165 29.2796 47.165 29.7204C47.1643 30.3113 46.9294 30.8778 46.5115 31.2956C46.0937 31.7134 45.5272 31.9484 44.9363 31.949Z" fill="white"/>
<path d="M14.4668 25.3848C13.6093 25.3848 12.7711 25.6391 12.0581 26.1155C11.3451 26.5919 10.7894 27.269 10.4613 28.0612C10.1331 28.8534 10.0472 29.7252 10.2145 30.5662C10.3818 31.4072 10.7948 32.1797 11.4011 32.7861C12.0074 33.3924 12.78 33.8053 13.621 33.9726C14.462 34.1399 15.3338 34.0541 16.126 33.7259C16.9182 33.3978 17.5953 32.8421 18.0717 32.1291C18.5481 31.4161 18.8024 30.5779 18.8024 29.7204C18.801 28.5709 18.3438 27.4689 17.531 26.6562C16.7182 25.8434 15.6163 25.3861 14.4668 25.3848ZM14.4668 31.949C14.026 31.949 13.5951 31.8183 13.2286 31.5734C12.8621 31.3285 12.5765 30.9805 12.4078 30.5732C12.2391 30.166 12.195 29.7179 12.281 29.2856C12.367 28.8533 12.5792 28.4561 12.8909 28.1445C13.2026 27.8328 13.5997 27.6205 14.032 27.5345C14.4643 27.4485 14.9125 27.4927 15.3197 27.6613C15.7269 27.83 16.075 28.1157 16.3199 28.4822C16.5648 28.8487 16.6955 29.2796 16.6955 29.7204C16.695 30.3113 16.4601 30.8779 16.0422 31.2957C15.6244 31.7136 15.0578 31.9486 14.4668 31.949Z" fill="white"/>
<path d="M2.28405 19.6273C2.07943 19.627 1.8833 19.5455 1.73867 19.4008C1.59404 19.256 1.51273 19.0598 1.51257 18.8552V2.28432C1.51288 2.07986 1.59429 1.88387 1.73892 1.73935C1.88355 1.59483 2.07959 1.51358 2.28405 1.51343H36.366C36.5704 1.51373 36.7664 1.59504 36.911 1.73953C37.0556 1.88401 37.137 2.07991 37.1375 2.28432V19.6273H2.28405Z" fill="white"/>
<path d="M44.9368 34.7237C43.9472 34.7237 42.9799 34.4303 42.1571 33.8805C41.3343 33.3307 40.693 32.5493 40.3143 31.6351C39.9356 30.7208 39.8366 29.7148 40.0296 28.7443C40.2227 27.7737 40.6992 26.8822 41.3989 26.1825C42.0986 25.4828 42.9901 25.0062 43.9607 24.8132C44.9312 24.6201 45.9373 24.7192 46.8515 25.0979C47.7657 25.4766 48.5471 26.1179 49.0969 26.9407C49.6467 27.7635 49.9401 28.7308 49.9401 29.7204C49.9387 31.0469 49.4112 32.3187 48.4732 33.2567C47.5352 34.1947 46.2633 34.7223 44.9368 34.7237ZM44.9368 25.3848C44.0793 25.3848 43.2411 25.6391 42.5281 26.1155C41.8151 26.5919 41.2594 27.269 40.9312 28.0612C40.6031 28.8534 40.5172 29.7252 40.6845 30.5662C40.8518 31.4072 41.2647 32.1797 41.8711 32.7861C42.4774 33.3924 43.2499 33.8054 44.091 33.9726C44.932 34.1399 45.8037 34.0541 46.596 33.7259C47.3882 33.3978 48.0653 32.8421 48.5417 32.1291C49.0181 31.4161 49.2724 30.5779 49.2724 29.7204C49.271 28.5709 48.8138 27.469 48.001 26.6562C47.1882 25.8434 46.0862 25.3862 44.9368 25.3848Z" fill="white"/>
<path d="M44.9366 32.6166C44.3634 32.6166 43.8031 32.4466 43.3265 32.1281C42.8499 31.8097 42.4784 31.3571 42.2591 30.8275C42.0397 30.2979 41.9823 29.7152 42.0941 29.1531C42.206 28.5909 42.482 28.0745 42.8873 27.6692C43.2926 27.2639 43.809 26.9878 44.3712 26.876C44.9334 26.7642 45.5161 26.8216 46.0456 27.0409C46.5752 27.2603 47.0278 27.6317 47.3463 28.1083C47.6647 28.5849 47.8347 29.1452 47.8347 29.7184C47.8347 30.4871 47.5294 31.2242 46.9859 31.7677C46.4424 32.3112 45.7052 32.6166 44.9366 32.6166ZM44.9366 27.4915C44.4958 27.4915 44.0649 27.6222 43.6984 27.8671C43.3319 28.112 43.0462 28.4601 42.8776 28.8673C42.7089 29.2745 42.6647 29.7227 42.7507 30.155C42.8367 30.5873 43.049 30.9844 43.3607 31.2961C43.6724 31.6078 44.0695 31.82 44.5018 31.906C44.9341 31.992 45.3822 31.9479 45.7894 31.7792C46.1967 31.6105 46.5448 31.3249 46.7896 30.9584C47.0345 30.5919 47.1652 30.161 47.1652 29.7202C47.1645 29.1293 46.9294 28.5629 46.5116 28.1451C46.0938 27.7273 45.5274 27.4923 44.9366 27.4915Z" fill="white"/>
<path d="M14.4667 34.7237C13.4771 34.7237 12.5098 34.4303 11.687 33.8805C10.8642 33.3307 10.2229 32.5493 9.84424 31.6351C9.46555 30.7208 9.36646 29.7148 9.55952 28.7443C9.75257 27.7737 10.2291 26.8822 10.9288 26.1825C11.6286 25.4828 12.52 25.0062 13.4906 24.8132C14.4611 24.6201 15.4671 24.7192 16.3814 25.0979C17.2956 25.4766 18.077 26.1179 18.6268 26.9407C19.1766 27.7635 19.47 28.7308 19.47 29.7204C19.4687 31.0469 18.9411 32.3187 18.003 33.2567C17.065 34.1947 15.7932 34.7223 14.4667 34.7237ZM14.4667 25.3848C13.6092 25.3848 12.771 25.6391 12.058 26.1155C11.345 26.5919 10.7893 27.269 10.4611 28.0612C10.133 28.8534 10.0471 29.7252 10.2144 30.5662C10.3817 31.4072 10.7946 32.1797 11.401 32.7861C12.0073 33.3924 12.7799 33.8054 13.6209 33.9726C14.4619 34.1399 15.3336 34.0541 16.1259 33.7259C16.9181 33.3978 17.5952 32.8421 18.0716 32.1291C18.548 31.4161 18.8023 30.5779 18.8023 29.7204C18.8009 28.5709 18.3437 27.469 17.5309 26.6562C16.7181 25.8434 15.6161 25.3862 14.4667 25.3848Z" fill="white"/>
<path d="M14.467 32.6166C13.8938 32.6166 13.3335 32.4466 12.8569 32.1281C12.3803 31.8097 12.0088 31.3571 11.7895 30.8275C11.5701 30.2979 11.5127 29.7152 11.6245 29.1531C11.7364 28.5909 12.0124 28.0745 12.4177 27.6692C12.823 27.2639 13.3394 26.9878 13.9016 26.876C14.4638 26.7642 15.0465 26.8216 15.576 27.0409C16.1056 27.2603 16.5582 27.6317 16.8767 28.1083C17.1951 28.5849 17.3651 29.1452 17.3651 29.7184C17.3651 30.4871 17.0598 31.2242 16.5163 31.7677C15.9728 32.3112 15.2356 32.6166 14.467 32.6166ZM14.467 27.4915C14.0262 27.4915 13.5953 27.6222 13.2288 27.8671C12.8623 28.112 12.5766 28.4601 12.408 28.8673C12.2393 29.2745 12.1951 29.7227 12.2811 30.155C12.3671 30.5873 12.5794 30.9844 12.8911 31.2961C13.2028 31.6078 13.5999 31.82 14.0322 31.906C14.4645 31.992 14.9126 31.9479 15.3199 31.7792C15.7271 31.6105 16.0751 31.3249 16.32 30.9584C16.5649 30.5919 16.6956 30.161 16.6956 29.7202C16.695 29.1293 16.46 28.5628 16.0422 28.145C15.6244 27.7271 15.0579 27.4921 14.467 27.4915Z" fill="white"/>
<path d="M56.6174 29.6403H50.8351C50.7466 29.6403 50.6616 29.6051 50.599 29.5425C50.5364 29.4799 50.5012 29.395 50.5012 29.3064C50.5012 29.2179 50.5364 29.1329 50.599 29.0703C50.6616 29.0077 50.7466 28.9726 50.8351 28.9726H56.6174C56.7458 28.9724 56.8688 28.9214 56.9595 28.8306C57.0502 28.7399 57.1013 28.6169 57.1014 28.4886V26.6656C57.1005 26.5487 57.0573 26.436 56.9797 26.3485C56.9021 26.261 56.7955 26.2046 56.6795 26.1898C56.5992 26.179 56.5256 26.1394 56.4723 26.0784C56.419 26.0175 56.3896 25.9392 56.3896 25.8582V22.0953C56.3896 20.1002 55.5718 17.4183 54.088 14.5439L53.9216 14.2199C52.5705 11.5925 51.8268 10.1458 48.4018 10.1458H42.1332C41.677 10.1464 41.2396 10.3279 40.917 10.6505C40.5944 10.9731 40.4129 11.4104 40.4123 11.8667V22.6726C40.4124 22.7165 40.4038 22.7599 40.387 22.8005C40.3703 22.841 40.3457 22.8778 40.3147 22.9088C40.2837 22.9399 40.2468 22.9645 40.2063 22.9812C40.1657 22.998 40.1223 23.0066 40.0784 23.0065H7.03516C6.83121 23.0066 6.63566 23.0877 6.49144 23.2319C6.34723 23.3761 6.26615 23.5717 6.266 23.7756V28.204C6.26631 28.4078 6.34746 28.6032 6.49165 28.7473C6.63585 28.8914 6.83131 28.9724 7.03516 28.9726H8.56884C8.65739 28.9726 8.74231 29.0077 8.80492 29.0703C8.86753 29.1329 8.9027 29.2179 8.9027 29.3064C8.9027 29.395 8.86753 29.4799 8.80492 29.5425C8.74231 29.6051 8.65739 29.6403 8.56884 29.6403H7.03516C6.65427 29.64 6.28905 29.4886 6.01967 29.2193C5.75028 28.95 5.59873 28.5849 5.59827 28.204V23.7756C5.59873 23.3947 5.75026 23.0295 6.01963 22.7601C6.289 22.4907 6.65421 22.3392 7.03516 22.3387H39.7446V11.8667C39.7452 11.2333 39.997 10.6261 40.4448 10.1783C40.8927 9.7305 41.4999 9.47864 42.1332 9.47803H48.4007C52.2332 9.47803 53.1408 11.243 54.514 13.9145L54.6803 14.2373C55.7636 16.3367 57.0568 19.4041 57.0568 22.0953V25.6049C57.2671 25.6915 57.447 25.8385 57.5737 26.0273C57.7005 26.2161 57.7685 26.4382 57.7692 26.6656V28.4897C57.7685 28.7949 57.647 29.0873 57.4311 29.303C57.2152 29.5187 56.9226 29.64 56.6174 29.6403Z" fill="white"/>
<path d="M39.0387 29.6404H20.3649C20.2763 29.6404 20.1914 29.6052 20.1288 29.5426C20.0662 29.48 20.031 29.3951 20.031 29.3065C20.031 29.218 20.0662 29.1331 20.1288 29.0704C20.1914 29.0078 20.2763 28.9727 20.3649 28.9727H39.0387C39.1272 28.9727 39.2121 29.0078 39.2747 29.0704C39.3373 29.1331 39.3725 29.218 39.3725 29.3065C39.3725 29.3951 39.3373 29.48 39.2747 29.5426C39.2121 29.6052 39.1272 29.6404 39.0387 29.6404Z" fill="white"/>
<path d="M52.6528 20.433C52.4856 20.4305 52.319 20.4134 52.1548 20.382C51.2274 20.2162 44.5705 18.0786 43.4292 17.6983C41.9604 17.2074 41.9679 16.4232 41.9737 15.8487V15.7461C41.9737 15.5108 41.9627 15.181 41.9506 14.8002C41.932 14.2664 41.9111 13.6334 41.9111 13.0109C41.9111 11.6633 42.6229 11.3879 43.6918 11.3879C44.316 11.3879 47.2275 11.4506 48.4482 11.4824C49.0071 11.4882 49.5575 11.6208 50.0578 11.8702C50.5581 12.1196 50.9953 12.4793 51.3364 12.9222C52.9258 14.8135 53.8039 17.652 53.8039 18.8924C53.8045 19.3126 53.8045 20.433 52.6528 20.433ZM43.6923 12.0551C42.7649 12.0551 42.5794 12.2162 42.5794 13.0109C42.5794 13.6259 42.6003 14.2507 42.6183 14.7776C42.631 15.1677 42.642 15.505 42.642 15.7461V15.8557C42.6368 16.3623 42.6334 16.728 43.6413 17.0648C45.04 17.5285 51.4309 19.5746 52.2725 19.7247C52.398 19.7493 52.5255 19.7628 52.6533 19.7653C52.902 19.7653 53.1373 19.7653 53.1373 18.89C52.9048 16.8626 52.1037 14.9422 50.8264 13.3506C50.5462 12.9802 50.1845 12.6793 49.7694 12.471C49.3543 12.2628 48.8969 12.1528 48.4325 12.1496C47.213 12.1183 44.3119 12.0557 43.6923 12.0557V12.0551Z" fill="white"/>
<path d="M38.3167 21.1401H2.28429C1.67869 21.1393 1.09811 20.8984 0.669891 20.4702C0.241667 20.042 0.000766873 19.4614 0 18.8558V2.28431C0.000613779 1.67866 0.241475 1.09801 0.669731 0.669749C1.09799 0.241492 1.67864 0.000613779 2.28429 0H36.3663C36.972 0.000613503 37.5527 0.241474 37.981 0.669714C38.4094 1.09795 38.6504 1.67861 38.6511 2.28431V20.8062C38.6512 20.8502 38.6426 20.8936 38.6258 20.9342C38.609 20.9748 38.5844 21.0117 38.5533 21.0427C38.5222 21.0737 38.4853 21.0983 38.4447 21.115C38.4041 21.1317 38.3606 21.1402 38.3167 21.1401ZM2.28429 0.667733C1.85574 0.668346 1.44491 0.838864 1.14188 1.1419C0.838846 1.44493 0.668328 1.85575 0.667715 2.28431V18.8558C0.668328 19.2843 0.838846 19.6952 1.14188 19.9982C1.44491 20.3012 1.85574 20.4717 2.28429 20.4724H37.9828V2.28431C37.9822 1.85565 37.8116 1.44474 37.5084 1.14169C37.2053 0.838635 36.7943 0.668193 36.3657 0.667733H2.28429Z" fill="white"/>
<path d="M31.1956 10.9038H6.65197C6.56343 10.9038 6.47851 10.8686 6.4159 10.806C6.35329 10.7434 6.31812 10.6585 6.31812 10.57C6.31812 10.4814 6.35329 10.3965 6.4159 10.3339C6.47851 10.2713 6.56343 10.2361 6.65197 10.2361H31.1956C31.2842 10.2361 31.3691 10.2713 31.4317 10.3339C31.4943 10.3965 31.5295 10.4814 31.5295 10.57C31.5295 10.6585 31.4943 10.7434 31.4317 10.806C31.3691 10.8686 31.2842 10.9038 31.1956 10.9038Z" fill="white"/>
<path d="M26.633 13.7747C26.609 13.7376 26.5927 13.6961 26.5849 13.6527C26.5771 13.6092 26.5779 13.5647 26.5874 13.5216C26.5969 13.4785 26.6148 13.4377 26.6401 13.4015C26.6655 13.3654 26.6977 13.3346 26.735 13.311L31.0433 10.5676L26.735 7.82367C26.6603 7.77609 26.6075 7.70078 26.5883 7.61431C26.5691 7.52784 26.5851 7.43729 26.6327 7.36258C26.6802 7.28787 26.7555 7.23513 26.842 7.21594C26.9285 7.19675 27.019 7.21269 27.0937 7.26027L31.8467 10.2859C31.8939 10.3162 31.9328 10.3578 31.9598 10.4071C31.9867 10.4563 32.0009 10.5115 32.0009 10.5676C32.0009 10.6237 31.9867 10.679 31.9598 10.7282C31.9328 10.7774 31.8939 10.8191 31.8467 10.8493L27.0937 13.8744C27.0191 13.9219 26.9286 13.9379 26.8422 13.9188C26.7558 13.8996 26.6806 13.847 26.633 13.7724V13.7747Z" fill="white"/>
</svg>
