<svg width="61" height="40" viewBox="0 0 61 40" fill="none" xmlns="http://www.w3.org/2000/svg">
<path d="M36.6159 30.6506C37.4497 30.6506 38.2648 30.8979 38.9581 31.3611C39.6514 31.8244 40.1918 32.4828 40.5109 33.2532C40.8299 34.0235 40.9134 34.8712 40.7508 35.689C40.5881 36.5068 40.1866 37.258 39.597 37.8476C39.0074 38.4372 38.2562 38.8387 37.4384 39.0014C36.6206 39.1641 35.7729 39.0806 35.0026 38.7615C34.2322 38.4424 33.5738 37.902 33.1105 37.2087C32.6473 36.5154 32.4 35.7003 32.4 34.8665C32.4 33.7484 32.8442 32.6761 33.6348 31.8854C34.4255 31.0948 35.4978 30.6506 36.6159 30.6506Z" fill="#FFA647"/>
<path d="M36.6164 39.4822C35.7026 39.4822 34.8093 39.2113 34.0495 38.7036C33.2898 38.1959 32.6976 37.4744 32.3479 36.6301C31.9982 35.7859 31.9067 34.857 32.085 33.9607C32.2633 33.0645 32.7033 32.2413 33.3494 31.5952C33.9956 30.949 34.8188 30.509 35.715 30.3307C36.6112 30.1524 37.5402 30.244 38.3844 30.5936C39.2286 30.9433 39.9502 31.5355 40.4579 32.2953C40.9655 33.0551 41.2365 33.9483 41.2365 34.8621C41.2354 36.0871 40.7483 37.2616 39.8821 38.1278C39.0159 38.994 37.8414 39.4811 36.6164 39.4822ZM36.6164 31.0551C35.8625 31.0551 35.1256 31.2786 34.4987 31.6975C33.8719 32.1163 33.3834 32.7116 33.0949 33.4081C32.8064 34.1045 32.7309 34.8709 32.878 35.6103C33.0251 36.3497 33.3881 37.0289 33.9211 37.5619C34.4542 38.095 35.1334 38.458 35.8727 38.6051C36.6121 38.7522 37.3785 38.6767 38.075 38.3882C38.7715 38.0997 39.3668 37.6111 39.7856 36.9843C40.2044 36.3575 40.428 35.6206 40.428 34.8667C40.428 33.8558 40.0264 32.8863 39.3116 32.1715C38.5968 31.4567 37.6273 31.0551 36.6164 31.0551Z" fill="#EB9233"/>
<path d="M23.7508 30.6506C24.5846 30.6506 25.3997 30.8979 26.093 31.3611C26.7863 31.8244 27.3267 32.4828 27.6457 33.2532C27.9648 34.0235 28.0483 34.8712 27.8857 35.689C27.723 36.5068 27.3215 37.258 26.7319 37.8476C26.1423 38.4372 25.3911 38.8387 24.5733 39.0014C23.7555 39.1641 22.9078 39.0806 22.1374 38.7615C21.3671 38.4424 20.7087 37.902 20.2454 37.2087C19.7822 36.5154 19.5349 35.7003 19.5349 34.8665C19.5349 33.7484 19.9791 32.6761 20.7697 31.8854C21.5603 31.0948 22.6327 30.6506 23.7508 30.6506Z" fill="#FFA647"/>
<path d="M23.752 39.4822C22.8382 39.4822 21.9449 39.2113 21.1852 38.7036C20.4254 38.1959 19.8332 37.4744 19.4835 36.6301C19.1338 35.7859 19.0423 34.857 19.2206 33.9607C19.3989 33.0645 19.8389 32.2413 20.485 31.5952C21.1312 30.949 21.9544 30.509 22.8506 30.3307C23.7469 30.1524 24.6758 30.244 25.52 30.5936C26.3642 30.9433 27.0858 31.5355 27.5935 32.2953C28.1011 33.0551 28.3721 33.9483 28.3721 34.8621C28.371 36.0871 27.8839 37.2616 27.0177 38.1278C26.1515 38.994 24.977 39.4811 23.752 39.4822ZM23.752 31.0551C22.9981 31.0551 22.2612 31.2786 21.6344 31.6975C21.0075 32.1163 20.519 32.7116 20.2305 33.4081C19.942 34.1045 19.8665 34.8709 20.0136 35.6103C20.1607 36.3497 20.5237 37.0289 21.0568 37.5619C21.5898 38.095 22.269 38.458 23.0084 38.6051C23.7477 38.7522 24.5141 38.6767 25.2106 38.3882C25.9071 38.0997 26.5024 37.6111 26.9212 36.9843C27.34 36.3575 27.5636 35.6206 27.5636 34.8667C27.5627 33.8561 27.1608 32.8871 26.4462 32.1725C25.7316 31.4579 24.7626 31.056 23.752 31.0551Z" fill="#EB9233"/>
<path d="M43.1143 25.9873H16.7628C16.6865 25.987 16.6119 25.9652 16.5475 25.9243C16.4831 25.8834 16.4316 25.8252 16.399 25.7563L9.73383 11.9086C9.70465 11.8471 9.69149 11.7792 9.69554 11.7112C9.6996 11.6433 9.72075 11.5774 9.75704 11.5198C9.79333 11.4622 9.84358 11.4147 9.90313 11.3817C9.96267 11.3487 10.0296 11.3313 10.0977 11.3311H49.877V12.1396H10.7416L17.0163 25.1788H43.1143V25.9873Z" fill="#EB9233"/>
<path d="M42.9664 33.9142H42.9594C42.8523 33.9122 42.7504 33.8678 42.676 33.7907C42.6016 33.7136 42.5608 33.6101 42.5627 33.503L42.7088 25.6055C42.7096 25.5467 42.7236 25.4889 42.7498 25.4363L50.8264 8.83495C50.8543 8.77752 50.8955 8.72755 50.9465 8.6891C50.9975 8.65066 51.0569 8.62483 51.1198 8.61376L53.2052 8.2505C53.2584 8.23888 53.3135 8.23815 53.3671 8.24837C53.4207 8.25859 53.4716 8.27953 53.5169 8.30995C53.5621 8.34037 53.6007 8.37963 53.6304 8.42537C53.6601 8.47111 53.6803 8.52239 53.6896 8.57611C53.699 8.62984 53.6974 8.68489 53.6849 8.73798C53.6724 8.79106 53.6493 8.84107 53.617 8.885C53.5847 8.92893 53.5438 8.96586 53.4969 8.99358C53.4499 9.02131 53.3978 9.03924 53.3438 9.04632L51.4622 9.37434L43.515 25.7094L43.3706 33.518C43.3685 33.6238 43.325 33.7246 43.2494 33.7987C43.1738 33.8727 43.0722 33.9142 42.9664 33.9142Z" fill="#EB9233"/>
<path d="M30.0886 25.9872C29.9814 25.9872 29.8785 25.9446 29.8027 25.8687C29.7269 25.7929 29.6843 25.6901 29.6843 25.5829V11.7329C29.6843 11.6257 29.7269 11.5228 29.8027 11.447C29.8785 11.3712 29.9814 11.3286 30.0886 11.3286C30.1958 11.3286 30.2986 11.3712 30.3744 11.447C30.4503 11.5228 30.4928 11.6257 30.4928 11.7329V25.5829C30.4928 25.6901 30.4503 25.7929 30.3744 25.8687C30.2986 25.9446 30.1958 25.9872 30.0886 25.9872Z" fill="#EB9233"/>
<path d="M25.5443 25.9874C25.4439 25.9872 25.3473 25.9496 25.2731 25.882C25.1989 25.8145 25.1525 25.7217 25.1429 25.6218L23.8302 11.7718C23.8234 11.667 23.8577 11.5636 23.9259 11.4837C23.994 11.4037 24.0906 11.3534 24.1952 11.3434C24.2998 11.3334 24.4041 11.3645 24.4862 11.4302C24.5682 11.4958 24.6215 11.5908 24.6347 11.695L25.9474 25.5456C25.9573 25.6523 25.9245 25.7585 25.8562 25.841C25.7879 25.9236 25.6896 25.9756 25.5829 25.9857C25.5701 25.9871 25.5572 25.9877 25.5443 25.9874Z" fill="#EB9233"/>
<path d="M20.603 25.9874C20.5062 25.9869 20.4127 25.9516 20.3397 25.888C20.2667 25.8244 20.2189 25.7368 20.2051 25.6409L18.1029 11.7909C18.0918 11.7372 18.0917 11.6817 18.1026 11.6279C18.1136 11.5741 18.1354 11.5231 18.1668 11.478C18.1981 11.4329 18.2383 11.3947 18.2849 11.3656C18.3314 11.3366 18.3835 11.3174 18.4377 11.3091C18.492 11.3008 18.5474 11.3036 18.6005 11.3175C18.6537 11.3313 18.7034 11.3558 18.7468 11.3895C18.7901 11.4231 18.8262 11.4653 18.8527 11.5134C18.8792 11.5614 18.8957 11.6144 18.9011 11.6691L21.0032 25.5196C21.0114 25.5722 21.0092 25.6259 20.9966 25.6776C20.984 25.7293 20.9614 25.778 20.9299 25.8209C20.8985 25.8638 20.8589 25.9001 20.8134 25.9277C20.7679 25.9553 20.7174 25.9736 20.6648 25.9817C20.6444 25.9853 20.6237 25.9872 20.603 25.9874Z" fill="#EB9233"/>
<path d="M34.6343 25.9874C34.6216 25.9883 34.6088 25.9883 34.5962 25.9874C34.4895 25.9773 34.3912 25.9253 34.3229 25.8428C34.2546 25.7603 34.2218 25.654 34.2317 25.5473L35.5496 11.695C35.5628 11.5908 35.6161 11.4958 35.6981 11.4302C35.7802 11.3645 35.8845 11.3334 35.9891 11.3434C36.0937 11.3534 36.1903 11.4037 36.2584 11.4837C36.3265 11.5636 36.3609 11.667 36.3541 11.7718L35.0362 25.6224C35.0265 25.7223 34.9799 25.815 34.9056 25.8824C34.8313 25.9499 34.7346 25.9873 34.6343 25.9874Z" fill="#EB9233"/>
<path d="M39.5764 25.9874C39.5557 25.9873 39.5351 25.9856 39.5147 25.9822C39.4621 25.9741 39.4116 25.9558 39.3661 25.9282C39.3206 25.9006 39.281 25.8643 39.2495 25.8214C39.2181 25.7785 39.1954 25.7298 39.1828 25.6781C39.1703 25.6264 39.168 25.5727 39.1762 25.5201L41.2784 11.6695C41.2838 11.6149 41.3002 11.5619 41.3268 11.5139C41.3533 11.4658 41.3893 11.4236 41.4327 11.39C41.476 11.3563 41.5258 11.3318 41.5789 11.318C41.6321 11.3041 41.6874 11.3013 41.7417 11.3096C41.796 11.3178 41.848 11.3371 41.8946 11.3661C41.9412 11.3952 41.9814 11.4334 42.0127 11.4785C42.044 11.5236 42.0658 11.5746 42.0768 11.6284C42.0878 11.6822 42.0877 11.7376 42.0765 11.7914L39.9749 25.6414C39.961 25.7373 39.913 25.8249 39.8399 25.8884C39.7668 25.9518 39.6733 25.987 39.5764 25.9874Z" fill="#EB9233"/>
<path d="M30.1725 33.9143C30.1194 33.9143 30.0668 33.9039 30.0178 33.8836C29.9687 33.8632 29.9242 33.8335 29.8866 33.7959C29.8491 33.7584 29.8193 33.7138 29.799 33.6648C29.7787 33.6157 29.7682 33.5632 29.7682 33.5101C29.7682 30.6635 27.0793 28.3476 23.7742 28.3476C20.469 28.3476 17.7807 30.6635 17.7807 33.5101C17.7807 33.6173 17.7381 33.7201 17.6623 33.7959C17.5865 33.8717 17.4836 33.9143 17.3764 33.9143C17.2692 33.9143 17.1664 33.8717 17.0906 33.7959C17.0148 33.7201 16.9722 33.6173 16.9722 33.5101C16.9722 30.2182 20.0226 27.5403 23.773 27.5403C27.5234 27.5403 30.5744 30.2182 30.5744 33.5101C30.5744 33.6169 30.5322 33.7194 30.4568 33.7951C30.3815 33.8709 30.2793 33.9137 30.1725 33.9143Z" fill="#EB9233"/>
<path d="M42.9671 33.9142C42.8599 33.9142 42.7571 33.8717 42.6813 33.7958C42.6055 33.72 42.5629 33.6172 42.5629 33.51C42.5629 30.6634 39.8751 28.3475 36.57 28.3475C33.2648 28.3475 30.5771 30.6651 30.5771 33.5106C30.5771 33.6178 30.5345 33.7206 30.4587 33.7964C30.3829 33.8722 30.28 33.9148 30.1728 33.9148C30.0656 33.9148 29.9628 33.8722 29.887 33.7964C29.8111 33.7206 29.7686 33.6178 29.7686 33.5106C29.7686 30.2187 32.819 27.5408 36.5694 27.5408C40.3198 27.5408 43.3702 30.2187 43.3702 33.5106C43.3701 33.6175 43.3276 33.72 43.252 33.7956C43.1765 33.8713 43.074 33.9139 42.9671 33.9142Z" fill="#EB9233"/>
<path d="M11.7339 22.9756C17.9426 22.9756 22.9758 17.9424 22.9758 11.7336C22.9758 5.52489 17.9426 0.491699 11.7339 0.491699C5.52514 0.491699 0.491943 5.52489 0.491943 11.7336C0.491943 17.9424 5.52514 22.9756 11.7339 22.9756Z" fill="#FFA647"/>
<path d="M11.7345 23.3792C9.43124 23.3792 7.1797 22.6962 5.2646 21.4166C3.3495 20.1369 1.85685 18.3182 0.975399 16.1903C0.0939519 14.0623 -0.136705 11.7208 0.312597 9.46179C0.7619 7.20277 1.87098 5.12773 3.49959 3.49904C5.12821 1.87035 7.20321 0.761148 9.4622 0.311734C11.7212 -0.137681 14.0627 0.092859 16.1907 0.974201C18.3187 1.85554 20.1375 3.3481 21.4172 5.26314C22.6969 7.17818 23.38 9.4297 23.3801 11.733C23.3766 14.8205 22.1486 17.7807 19.9654 19.964C17.7822 22.1473 14.8221 23.3755 11.7345 23.3792ZM11.7345 0.895279C9.59085 0.895164 7.4953 1.53073 5.71287 2.72161C3.93044 3.91249 2.54118 5.60519 1.72079 7.58565C0.900394 9.56611 0.685712 11.7454 1.10389 13.8478C1.52207 15.9503 2.55432 17.8816 4.07012 19.3973C5.58591 20.9131 7.51716 21.9454 9.61963 22.3636C11.7221 22.7817 13.9014 22.5671 15.8818 21.7467C17.8623 20.9263 19.555 19.537 20.7458 17.7546C21.9367 15.9722 22.5723 13.8766 22.5722 11.733C22.5688 8.85966 21.4259 6.10499 19.3942 4.07326C17.3625 2.04153 14.6078 0.898641 11.7345 0.895279Z" fill="#EB9233"/>
<path d="M21.2266 13.9749C22.4643 8.73218 19.2176 3.4788 13.9749 2.24112C8.7322 1.00344 3.47882 4.25015 2.24114 9.49285C1.00346 14.7355 4.25017 19.9889 9.49287 21.2266C14.7356 22.4643 19.989 19.2176 21.2266 13.9749Z" fill="#FFA647"/>
<path d="M53.2115 8.22076L53.3417 9.07322C53.432 9.66408 53.9842 10.0699 54.5751 9.97956L59.5346 9.22157C60.1255 9.13127 60.5313 8.57907 60.441 7.98821L60.3107 7.13575C60.2204 6.54489 59.6682 6.13911 59.0773 6.22941L54.1178 6.9874C53.5269 7.0777 53.1212 7.6299 53.2115 8.22076Z" fill="#FFA647"/>
<path d="M54.7705 10.3364C54.3131 10.3335 53.8716 10.1683 53.5247 9.87008C53.1779 9.57189 52.9483 9.16019 52.8768 8.7084C52.8385 8.45947 52.8496 8.20542 52.9095 7.96079C52.9695 7.71616 53.077 7.48575 53.2261 7.28273C53.3752 7.07971 53.5628 6.90806 53.7782 6.77761C53.9937 6.64716 54.2327 6.56048 54.4817 6.5225L58.5931 5.88953C59.0955 5.81544 59.6069 5.94256 60.0161 6.24327C60.4254 6.54398 60.6995 6.994 60.779 7.49561C60.8557 7.99829 60.7297 8.51087 60.4287 8.92067C60.1276 9.33047 59.6761 9.60392 59.1735 9.68093L55.0639 10.3098C54.9669 10.3262 54.8688 10.335 54.7705 10.3364ZM58.8841 6.67842C58.8273 6.67856 58.7705 6.68301 58.7144 6.69171L54.6042 7.32062C54.3131 7.36531 54.0517 7.52378 53.8774 7.76118C53.7032 7.99857 53.6303 8.29546 53.6749 8.58655C53.7213 8.87668 53.8801 9.13686 54.117 9.31077C54.3538 9.48468 54.6496 9.55832 54.9403 9.51576L59.0505 8.88685C59.3411 8.84187 59.6021 8.68348 59.7762 8.4464C59.9503 8.20931 60.0232 7.91288 59.9791 7.62208C59.9382 7.35993 59.8054 7.12089 59.6043 6.94777C59.4033 6.77465 59.1471 6.67877 58.8818 6.67727L58.8841 6.67842Z" fill="#EB9233"/>
<path d="M16.8496 12.1374H6.61886C6.51165 12.1374 6.40882 12.0948 6.333 12.019C6.25719 11.9432 6.2146 11.8403 6.2146 11.7331C6.2146 11.6259 6.25719 11.5231 6.333 11.4473C6.40882 11.3714 6.51165 11.3289 6.61886 11.3289H16.8496C16.9568 11.3289 17.0596 11.3714 17.1354 11.4473C17.2112 11.5231 17.2538 11.6259 17.2538 11.7331C17.2538 11.8403 17.2112 11.9432 17.1354 12.019C17.0596 12.0948 16.9568 12.1374 16.8496 12.1374Z" fill="#EB9233"/>
<path d="M11.735 17.2524C11.6277 17.2524 11.5249 17.2098 11.4491 17.134C11.3733 17.0582 11.3307 16.9554 11.3307 16.8482V6.61861C11.3307 6.51139 11.3733 6.40857 11.4491 6.33276C11.5249 6.25694 11.6277 6.21436 11.735 6.21436C11.8422 6.21436 11.945 6.25694 12.0208 6.33276C12.0966 6.40857 12.1392 6.51139 12.1392 6.61861V16.8488C12.1391 16.9559 12.0964 17.0585 12.0206 17.1342C11.9448 17.2099 11.8421 17.2524 11.735 17.2524Z" fill="#EB9233"/>
<path d="M25.1211 34.8647C25.121 35.1357 25.0406 35.4006 24.8899 35.6258C24.7393 35.8511 24.5253 36.0267 24.2749 36.1303C24.0245 36.234 23.749 36.2611 23.4832 36.2082C23.2174 36.1553 22.9733 36.0248 22.7816 35.8332C22.59 35.6415 22.4595 35.3974 22.4066 35.1316C22.3537 34.8658 22.3808 34.5903 22.4845 34.3399C22.5881 34.0895 22.7637 33.8755 22.989 33.7248C23.2142 33.5742 23.4791 33.4938 23.7501 33.4937C23.9302 33.4937 24.1084 33.5291 24.2748 33.598C24.4411 33.6669 24.5923 33.7679 24.7196 33.8952C24.8469 34.0225 24.9479 34.1737 25.0168 34.34C25.0857 34.5064 25.1211 34.6846 25.1211 34.8647Z" fill="#FFA647"/>
<path d="M23.7502 36.6049C23.4061 36.6048 23.0697 36.5026 22.7837 36.3113C22.4976 36.1201 22.2746 35.8483 22.143 35.5303C22.0114 35.2123 21.977 34.8625 22.0442 34.525C22.1115 34.1875 22.2772 33.8775 22.5206 33.6342C22.764 33.3909 23.074 33.2252 23.4115 33.1581C23.7491 33.0911 24.0989 33.1256 24.4168 33.2573C24.7347 33.389 25.0065 33.612 25.1976 33.8981C25.3888 34.1843 25.4909 34.5207 25.4909 34.8648C25.4903 35.3262 25.3066 35.7685 24.9803 36.0947C24.654 36.421 24.2116 36.6044 23.7502 36.6049ZM23.7502 33.8634C23.5523 33.8635 23.3589 33.9223 23.1944 34.0323C23.0299 34.1423 22.9017 34.2986 22.826 34.4815C22.7504 34.6644 22.7306 34.8655 22.7692 35.0596C22.8079 35.2537 22.9032 35.432 23.0431 35.5719C23.183 35.7119 23.3613 35.8072 23.5554 35.8458C23.7495 35.8845 23.9507 35.8647 24.1335 35.789C24.3164 35.7133 24.4727 35.5851 24.5827 35.4206C24.6927 35.2561 24.7515 35.0627 24.7516 34.8648C24.7515 34.5993 24.6459 34.3446 24.4582 34.1569C24.2704 33.9691 24.0158 33.8636 23.7502 33.8634Z" fill="#EB9233"/>
<path d="M37.9866 34.8647C37.9866 35.1359 37.9061 35.401 37.7555 35.6264C37.6048 35.8519 37.3906 36.0276 37.1401 36.1314C36.8895 36.2351 36.6138 36.2623 36.3478 36.2093C36.0819 36.1564 35.8376 36.0257 35.6459 35.8339C35.4541 35.6421 35.3236 35.3978 35.2708 35.1318C35.2179 34.8658 35.2452 34.5901 35.349 34.3396C35.4529 34.0891 35.6287 33.875 35.8543 33.7244C36.0798 33.5738 36.3449 33.4935 36.6161 33.4937C36.9796 33.4938 37.3282 33.6383 37.5852 33.8954C37.8422 34.1525 37.9866 34.5012 37.9866 34.8647Z" fill="#FFA647"/>
<path d="M36.6163 36.6049C36.2721 36.6049 35.9357 36.5028 35.6496 36.3116C35.3634 36.1204 35.1404 35.8487 35.0087 35.5307C34.877 35.2128 34.8425 34.8629 34.9097 34.5253C34.9768 34.1878 35.1425 33.8778 35.3859 33.6344C35.6292 33.3911 35.9393 33.2253 36.2768 33.1582C36.6144 33.091 36.9642 33.1255 37.2822 33.2572C37.6001 33.3889 37.8719 33.6119 38.0631 33.8981C38.2543 34.1842 38.3563 34.5207 38.3563 34.8648C38.3557 35.3261 38.1722 35.7684 37.846 36.0946C37.5198 36.4208 37.0776 36.6043 36.6163 36.6049ZM36.6163 33.8634C36.4184 33.8634 36.2249 33.9221 36.0603 34.032C35.8957 34.142 35.7675 34.2983 35.6917 34.4811C35.6159 34.664 35.5961 34.8652 35.6346 35.0593C35.6732 35.2534 35.7685 35.4317 35.9084 35.5717C36.0483 35.7117 36.2266 35.8071 36.4207 35.8458C36.6148 35.8845 36.816 35.8647 36.9989 35.7891C37.1818 35.7134 37.3381 35.5852 37.4482 35.4207C37.5582 35.2562 37.617 35.0627 37.6171 34.8648C37.6168 34.5994 37.5113 34.345 37.3237 34.1572C37.1361 33.9695 36.8817 33.8639 36.6163 33.8634Z" fill="#EB9233"/>
<path d="M32.1548 16.6818H28.1699C28.1214 16.6818 28.0733 16.6723 28.0285 16.6537C27.9836 16.6351 27.9429 16.6079 27.9086 16.5736C27.8742 16.5393 27.847 16.4985 27.8284 16.4537C27.8099 16.4088 27.8003 16.3608 27.8003 16.3122C27.8003 16.2637 27.8099 16.2156 27.8284 16.1708C27.847 16.1259 27.8742 16.0852 27.9086 16.0509C27.9429 16.0166 27.9836 15.9893 28.0285 15.9708C28.0733 15.9522 28.1214 15.9426 28.1699 15.9426H32.1548C32.2033 15.9426 32.2514 15.9522 32.2962 15.9708C32.3411 15.9893 32.3818 16.0166 32.4161 16.0509C32.4505 16.0852 32.4777 16.1259 32.4963 16.1708C32.5148 16.2156 32.5244 16.2637 32.5244 16.3122C32.5244 16.3608 32.5148 16.4088 32.4963 16.4537C32.4777 16.4985 32.4505 16.5393 32.4161 16.5736C32.3818 16.6079 32.3411 16.6351 32.2962 16.6537C32.2514 16.6723 32.2033 16.6818 32.1548 16.6818Z" fill="white"/>
<path d="M32.1551 21.6097H28.1702C28.0723 21.6097 27.9783 21.5708 27.9091 21.5016C27.8398 21.4323 27.8009 21.3384 27.8009 21.2404C27.8009 21.1425 27.8398 21.0485 27.9091 20.9793C27.9783 20.91 28.0723 20.8711 28.1702 20.8711H32.1551C32.253 20.8711 32.347 20.91 32.4162 20.9793C32.4855 21.0485 32.5244 21.1425 32.5244 21.2404C32.5244 21.3384 32.4855 21.4323 32.4162 21.5016C32.347 21.5708 32.253 21.6097 32.1551 21.6097Z" fill="white"/>
<path d="M42.8116 16.6818H38.8268C38.7782 16.6818 38.7302 16.6723 38.6853 16.6537C38.6405 16.6351 38.5997 16.6079 38.5654 16.5736C38.5311 16.5393 38.5039 16.4985 38.4853 16.4537C38.4667 16.4088 38.4572 16.3608 38.4572 16.3122C38.4572 16.2637 38.4667 16.2156 38.4853 16.1708C38.5039 16.1259 38.5311 16.0852 38.5654 16.0509C38.5997 16.0166 38.6405 15.9893 38.6853 15.9708C38.7302 15.9522 38.7782 15.9426 38.8268 15.9426H42.8116C42.8602 15.9426 42.9082 15.9522 42.9531 15.9708C42.9979 15.9893 43.0387 16.0166 43.073 16.0509C43.1073 16.0852 43.1345 16.1259 43.1531 16.1708C43.1717 16.2156 43.1812 16.2637 43.1812 16.3122C43.1812 16.3608 43.1717 16.4088 43.1531 16.4537C43.1345 16.4985 43.1073 16.5393 43.073 16.5736C43.0387 16.6079 42.9979 16.6351 42.9531 16.6537C42.9082 16.6723 42.8602 16.6818 42.8116 16.6818Z" fill="white"/>
<path d="M42.3185 21.6097H38.3337C38.2357 21.6097 38.1418 21.5708 38.0725 21.5016C38.0033 21.4323 37.9644 21.3384 37.9644 21.2404C37.9644 21.1425 38.0033 21.0485 38.0725 20.9793C38.1418 20.91 38.2357 20.8711 38.3337 20.8711H42.3185C42.4165 20.8711 42.5104 20.91 42.5797 20.9793C42.649 21.0485 42.6879 21.1425 42.6879 21.2404C42.6879 21.3384 42.649 21.4323 42.5797 21.5016C42.5104 21.5708 42.4165 21.6097 42.3185 21.6097Z" fill="white"/>
</svg>
