<svg width="20" height="20" viewBox="0 0 20 20" fill="none" xmlns="http://www.w3.org/2000/svg">
<path d="M0.769231 19.5897H19.2308C19.6555 19.5897 20 19.2453 20 18.8205V1.43586C20 1.01101 19.6555 0.666626 19.2308 0.666626H0.769231C0.344462 0.666626 0 1.01101 0 1.43586V18.8205C0 19.2453 0.344462 19.5897 0.769231 19.5897ZM7.69231 2.20509H12.3077V6.3507L10.3096 5.36186C10.0927 5.2544 9.83762 5.25555 9.62162 5.3647L7.69231 6.33932V2.20509ZM1.53846 2.20509H6.15385V7.5897C6.15385 7.85686 6.29246 8.10493 6.52008 8.24493C6.74754 8.38486 7.03154 8.39678 7.26992 8.27632L9.972 6.91132L12.7358 8.27916C12.9701 8.39516 13.2528 8.38601 13.4827 8.24324C13.7087 8.10286 13.8462 7.8557 13.8462 7.5897V2.20509H18.4615V18.0512H1.53846V2.20509Z" fill="white"/>
<path d="M16.1539 14.2051H11.5385C11.1137 14.2051 10.7693 14.5495 10.7693 14.9743C10.7693 15.3992 11.1137 15.7435 11.5385 15.7435H16.1539C16.5787 15.7435 16.9231 15.3992 16.9231 14.9743C16.9231 14.5495 16.5787 14.2051 16.1539 14.2051Z" fill="white"/>
</svg>
