<svg width="14" height="20" viewBox="0 0 14 20" fill="none" xmlns="http://www.w3.org/2000/svg">
<path d="M7.00004 4.99992V7.49992L10.3334 4.16658L7.00004 0.833252V3.33325C3.31671 3.33325 0.333374 6.31658 0.333374 9.99992C0.333374 11.3083 0.716707 12.5249 1.36671 13.5499L2.58337 12.3333C2.20837 11.6416 2.00004 10.8416 2.00004 9.99992C2.00004 7.24159 4.24171 4.99992 7.00004 4.99992ZM12.6334 6.44992L11.4167 7.66658C11.7834 8.36658 12 9.15825 12 9.99992C12 12.7583 9.75837 14.9999 7.00004 14.9999V12.4999L3.66671 15.8333L7.00004 19.1666V16.6666C10.6834 16.6666 13.6667 13.6833 13.6667 9.99992C13.6667 8.69158 13.2834 7.47492 12.6334 6.44992Z" fill="#2D19C1"/>
</svg>
