<svg width="18" height="18" viewBox="0 0 18 18" fill="none" xmlns="http://www.w3.org/2000/svg">
<path d="M14.8916 3.10841L13.7166 4.28342C14.9166 5.49175 15.6666 7.15841 15.6666 9.00008C15.6666 12.6834 12.6833 15.6667 8.99996 15.6667C5.31663 15.6667 2.33329 12.6834 2.33329 9.00008C2.33329 5.60008 4.87496 2.80008 8.16663 2.39175V4.07508C5.79996 4.47508 3.99996 6.52508 3.99996 9.00008C3.99996 11.7584 6.24163 14.0001 8.99996 14.0001C11.7583 14.0001 14 11.7584 14 9.00008C14 7.61675 13.4416 6.36675 12.5333 5.46675L11.3583 6.64175C11.9583 7.25008 12.3333 8.08342 12.3333 9.00008C12.3333 10.8417 10.8416 12.3334 8.99996 12.3334C7.15829 12.3334 5.66663 10.8417 5.66663 9.00008C5.66663 7.45008 6.73329 6.15842 8.16663 5.78342V7.56675C7.66663 7.85841 7.33329 8.38342 7.33329 9.00008C7.33329 9.91675 8.08329 10.6667 8.99996 10.6667C9.91663 10.6667 10.6666 9.91675 10.6666 9.00008C10.6666 8.38342 10.3333 7.85008 9.83329 7.56675V0.666748H8.99996C4.39996 0.666748 0.666626 4.40008 0.666626 9.00008C0.666626 13.6001 4.39996 17.3334 8.99996 17.3334C13.6 17.3334 17.3333 13.6001 17.3333 9.00008C17.3333 6.70008 16.4 4.61675 14.8916 3.10841Z" fill="#FFA647"/>
</svg>
