<svg width="21" height="16" viewBox="0 0 21 16" fill="none" xmlns="http://www.w3.org/2000/svg">
<path d="M0.599796 14.682L4.45554 5.42734H16.2158L20.0719 14.682H0.599796Z" fill="#47B9F3" fill-opacity="0.2" stroke="white" stroke-width="0.8"/>
<g clip-path="url(#clip0)">
<path d="M10.3909 0.295898C8.63599 0.295898 7.20819 1.70206 7.20819 3.43043C7.20819 5.60281 10.3941 9.31366 10.3941 9.31366C10.3941 9.31366 13.5737 5.49597 13.5737 3.43043C13.5737 1.70206 12.146 0.295898 10.3909 0.295898ZM11.3512 4.34822C11.0865 4.60895 10.7387 4.73934 10.3909 4.73934C10.0432 4.73934 9.69538 4.60895 9.4307 4.34822C8.90117 3.82677 8.90117 2.97828 9.4307 2.45677C9.68711 2.20414 10.0282 2.065 10.3909 2.065C10.7537 2.065 11.0947 2.20419 11.3512 2.45677C11.8808 2.97828 11.8808 3.82677 11.3512 4.34822Z" fill="white"/>
</g>
<defs>
<clipPath id="clip0">
<rect width="9.76693" height="9.61895" fill="white" transform="translate(5.59009)"/>
</clipPath>
</defs>
</svg>
