<svg width="19" height="18" viewBox="0 0 19 18" fill="none" xmlns="http://www.w3.org/2000/svg">
<path d="M2.52136 13.95C2.58858 14.0114 2.63494 14.0923 2.65398 14.1814C2.67301 14.2705 2.66378 14.3632 2.62756 14.4468C2.51596 14.715 2.42056 14.9868 2.28376 15.2442C1.95256 15.8616 1.45396 16.3242 0.951758 16.7868C0.721358 17.0064 0.476558 17.226 0.262358 17.46C0.0481578 17.694 0.102158 17.7984 0.399158 17.874C0.727961 17.958 1.06601 18.0003 1.40536 18C1.84096 17.9934 2.27494 17.9452 2.70136 17.856C4.14136 17.5734 5.50936 17.0208 6.84136 16.3908C6.95317 16.3346 7.07624 16.3045 7.20136 16.3026C7.24478 16.3027 7.28811 16.3064 7.33096 16.3134C7.88622 16.4036 8.44781 16.4494 9.01036 16.4502C9.75146 16.4539 10.4904 16.3699 11.2118 16.2C13.604 15.6258 15.5444 14.3496 16.88 12.186C17.8475 10.6496 18.2081 8.80788 17.8916 7.02C17.5208 4.788 16.3454 3.069 14.5814 1.8C12.9949 0.634008 11.0782 0.00354606 9.10936 0C8.64136 0.0306 8.16976 0.0342 7.70536 0.099C5.69296 0.3762 3.90196 1.179 2.42236 2.628C1.03456 3.9924 0.181358 5.6448 0.0265578 7.6446C-0.127072 9.46297 0.389573 11.2747 1.47916 12.7386C1.80538 13.1601 2.15324 13.5645 2.52136 13.95V13.95ZM1.10296 7.7292C1.23436 6.0588 1.91296 4.6422 3.17836 3.3984C4.44376 2.1546 5.97016 1.4184 7.85836 1.1682C8.12836 1.1304 8.41816 1.1178 8.72416 1.1016L9.13996 1.08C10.8683 1.09193 12.549 1.64736 13.9442 2.6676C15.5642 3.843 16.5164 5.3226 16.8242 7.1928C17.0967 8.72454 16.788 10.3029 15.9584 11.619C14.8226 13.4604 13.1882 14.6142 10.958 15.147C10.3233 15.2973 9.67332 15.3728 9.02116 15.372C8.51586 15.3706 8.01147 15.3291 7.51276 15.2478C7.12947 15.1853 6.73625 15.2438 6.38776 15.4152C5.34196 15.9102 3.95416 16.5132 2.50336 16.7958H2.48536C2.77957 16.4817 3.03352 16.1322 3.24136 15.7554C3.35521 15.5352 3.45618 15.3087 3.54376 15.0768C3.57256 15.0048 3.59956 14.9346 3.63016 14.8644C3.74614 14.5932 3.78 14.294 3.72752 14.0038C3.67505 13.7136 3.53855 13.4452 3.33496 13.2318C3.24136 13.1274 3.15496 13.0248 3.05236 12.9204C2.8066 12.6633 2.57582 12.3922 2.36116 12.1086C1.41569 10.8541 0.967548 9.29425 1.10296 7.7292V7.7292Z" fill="white"/>
<path d="M8.99148 10.035C9.19664 10.0372 9.39779 9.9783 9.56941 9.86588C9.74103 9.75346 9.87537 9.59257 9.95537 9.40365C10.0354 9.21473 10.0574 9.00629 10.0187 8.80482C9.97999 8.60334 9.88228 8.41791 9.73797 8.27208C9.59366 8.12625 9.40927 8.0266 9.20821 7.98578C9.00715 7.94496 8.79849 7.96482 8.60874 8.04283C8.41899 8.12084 8.2567 8.25348 8.14249 8.42391C8.02828 8.59434 7.9673 8.79487 7.96729 9.00003C7.96958 9.27196 8.07789 9.53226 8.26917 9.72556C8.46044 9.91885 8.7196 10.0299 8.99148 10.035Z" fill="white"/>
<path d="M5.35089 10.0332C5.5559 10.0343 5.75661 9.97447 5.92756 9.86132C6.09851 9.74816 6.23201 9.58679 6.31112 9.39766C6.39023 9.20853 6.4114 9.00017 6.37193 8.79899C6.33246 8.59782 6.23413 8.4129 6.08942 8.26768C5.94471 8.12246 5.76013 8.02349 5.5591 7.98332C5.35806 7.94315 5.14963 7.96359 4.96022 8.04204C4.77082 8.12049 4.60898 8.25342 4.49523 8.42398C4.38147 8.59454 4.32094 8.79503 4.32129 9.00004C4.32129 9.27344 4.42965 9.5357 4.62263 9.72935C4.81562 9.92301 5.07749 10.0323 5.35089 10.0332Z" fill="white"/>
<path d="M12.6526 10.0351C12.8576 10.0361 13.0582 9.97635 13.2291 9.86328C13.4 9.7502 13.5335 9.58893 13.6127 9.39991C13.6919 9.21088 13.7131 9.00261 13.6738 8.80149C13.6345 8.60036 13.5363 8.41544 13.3918 8.27015C13.2473 8.12486 13.0629 8.02575 12.862 7.98537C12.661 7.945 12.4527 7.96518 12.2632 8.04335C12.0738 8.12153 11.9118 8.25418 11.7979 8.4245C11.6839 8.59482 11.623 8.79514 11.623 9.00007C11.623 9.27364 11.7313 9.53608 11.9243 9.73003C12.1172 9.92397 12.3791 10.0336 12.6526 10.0351Z" fill="white"/>
</svg>
