<svg width="343" height="136" viewBox="0 0 343 136" fill="none" xmlns="http://www.w3.org/2000/svg">
<path d="M340.602 129.661C340.603 128.988 340.846 128.338 341.286 127.829C341.726 127.32 342.334 126.986 343 126.888V122.086C342.333 121.989 341.724 121.655 341.283 121.146C340.843 120.637 340.6 119.986 340.6 119.312C340.6 118.639 340.843 117.988 341.283 117.479C341.724 116.969 342.333 116.636 343 116.539V111.737C342.333 111.64 341.724 111.307 341.283 110.797C340.843 110.288 340.6 109.637 340.6 108.964C340.6 108.29 340.843 107.639 341.283 107.13C341.724 106.621 342.333 106.287 343 106.19V101.389C342.333 101.292 341.724 100.958 341.283 100.449C340.843 99.9396 340.6 99.2887 340.6 98.6153C340.6 97.9419 340.843 97.291 341.283 96.7816C341.724 96.2723 342.333 95.9387 343 95.8418V91.0394C342.333 90.9425 341.724 90.6088 341.283 90.0995C340.843 89.5902 340.6 88.9393 340.6 88.2659C340.6 87.5925 340.843 86.9416 341.283 86.4323C341.724 85.923 342.333 85.5893 343 85.4924V80.6909C342.333 80.594 341.724 80.2604 341.283 79.7511C340.843 79.2418 340.6 78.5909 340.6 77.9174C340.6 77.244 340.843 76.5931 341.283 76.0838C341.724 75.5745 342.333 75.2409 343 75.1439V70.3425C342.333 70.2455 341.724 69.9119 341.283 69.4026C340.843 68.8933 340.6 68.2424 340.6 67.5689C340.6 66.8955 340.843 66.2446 341.283 65.7353C341.724 65.226 342.333 64.8924 343 64.7954V59.994C342.333 59.897 341.724 59.5634 341.283 59.0541C340.843 58.5448 340.6 57.8939 340.6 57.2205C340.6 56.547 340.843 55.8961 341.283 55.3868C341.724 54.8775 342.333 54.5439 343 54.4469V49.6455C342.333 49.5485 341.724 49.2149 341.283 48.7056C340.843 48.1963 340.6 47.5454 340.6 46.872C340.6 46.1986 340.843 45.5476 341.283 45.0383C341.724 44.529 342.333 44.1954 343 44.0985V39.2961C342.333 39.1992 341.724 38.8656 341.283 38.3562C340.843 37.8469 340.6 37.196 340.6 36.5226C340.6 35.8492 340.843 35.1983 341.283 34.689C341.724 34.1797 342.333 33.846 343 33.7491V28.9476C342.333 28.8507 341.724 28.5171 341.283 28.0078C340.843 27.4985 340.6 26.8475 340.6 26.1741C340.6 25.5007 340.843 24.8498 341.283 24.3405C341.724 23.8312 342.333 23.4975 343 23.4006V18.5991C342.333 18.5022 341.724 18.1686 341.283 17.6593C340.843 17.15 340.6 16.4991 340.6 15.8256C340.6 15.1522 340.843 14.5013 341.283 13.992C341.724 13.4827 342.333 13.1491 343 13.0521V8.24978C342.334 8.1522 341.725 7.81834 341.286 7.30919C340.846 6.80005 340.603 6.14961 340.603 5.47672C340.603 4.80382 340.846 4.15338 341.286 3.64423C341.725 3.13509 342.334 2.80122 343 2.70364V0H84.6308C84.3127 0.00227156 83.9952 0.0279874 83.6809 0.0769419V0.289205C83.6807 1.75887 83.099 3.16875 82.0629 4.21102C81.0267 5.25328 79.6203 5.84327 78.1507 5.85215C78.1283 6.07195 78.1171 6.29274 78.1171 6.51368V128.624C78.1176 128.863 78.1312 129.102 78.1578 129.34C79.6261 129.35 81.0307 129.941 82.0653 130.983C83.1 132.025 83.6807 133.433 83.6809 134.902V135.061C83.9952 135.11 84.3127 135.136 84.6308 135.138H343V132.434C342.334 132.336 341.726 132.002 341.286 131.493C340.846 130.984 340.603 130.334 340.602 129.661Z" fill="#5258C0"/>
<path d="M79.4952 129.34C79.522 129.102 79.5359 128.863 79.5368 128.624V6.51368C79.5368 6.29274 79.5256 6.07195 79.5032 5.85215C78.0335 5.8435 76.6269 5.25359 75.5907 4.21127C74.5545 3.16895 73.9729 1.75894 73.973 0.289205V0.076942C73.6584 0.0279887 73.3406 0.00227306 73.0222 6.00467e-08H6.51456C5.6591 -0.000116092 4.81199 0.16828 4.02161 0.495571C3.23124 0.822862 2.51307 1.30264 1.90812 1.9075C1.30318 2.51236 0.823307 3.23047 0.495909 4.0208C0.16851 4.81114 -7.88544e-09 5.65822 0 6.51368V128.624C-7.88543e-09 129.48 0.16851 130.327 0.495909 131.117C0.823307 131.907 1.30318 132.626 1.90812 133.23C2.51307 133.835 3.23124 134.315 4.02161 134.642C4.81199 134.97 5.6591 135.138 6.51456 135.138H73.0222C73.3406 135.136 73.6584 135.11 73.973 135.061V134.902C73.9729 133.433 74.5535 132.025 75.588 130.983C76.6224 129.941 78.027 129.35 79.4952 129.34Z" fill="#343AA2"/>
<path d="M83.597 127.089C83.6236 127.089 83.6503 127.089 83.6769 127.089C83.9145 127.09 84.1512 127.116 84.3826 127.168L74.6936 108.894C74.3819 109.126 74.1598 109.452 74.0624 109.82C73.965 110.187 73.998 110.576 74.1561 110.924L82.8996 126.463C83.162 126.638 83.3968 126.849 83.597 127.089Z" fill="white"/>
<path d="M84.1358 108.89L74.2777 127.478C74.6291 127.297 75.0128 127.181 75.4088 127.137C75.4932 127.055 75.5822 126.979 75.6752 126.907L84.6714 110.92C84.8294 110.572 84.8625 110.184 84.7655 109.817C84.6685 109.449 84.4469 109.123 84.1358 108.89Z" fill="white"/>
<path d="M83.6256 122.561C83.0633 122.819 82.6298 123.281 82.4192 123.845C82.2086 124.409 82.238 125.031 82.501 125.575L82.7132 126.105C82.7828 126.401 82.9178 126.68 83.109 126.921C83.3002 127.162 83.5432 127.361 83.8213 127.504C84.0995 127.647 84.4063 127.731 84.721 127.749C85.0357 127.768 85.3509 127.721 85.6452 127.612C85.9394 127.503 86.2058 127.334 86.4263 127.117C86.6468 126.9 86.8162 126.64 86.923 126.355C87.0298 126.069 87.0714 125.765 87.0452 125.462C87.0189 125.16 86.9253 124.866 86.7707 124.602L86.5585 124.071C86.3747 123.499 85.9637 123.019 85.4146 122.736C84.8654 122.453 84.2226 122.39 83.6256 122.561ZM85.7784 124.829C85.8612 124.971 85.9114 125.128 85.9256 125.29C85.9398 125.451 85.9175 125.614 85.8604 125.767C85.8034 125.92 85.7127 126.059 85.5947 126.175C85.4767 126.292 85.3341 126.382 85.1767 126.44C85.0192 126.499 84.8505 126.524 84.682 126.514C84.5136 126.503 84.3494 126.459 84.2006 126.382C84.0517 126.306 83.9218 126.199 83.8196 126.07C83.7173 125.941 83.6452 125.792 83.6081 125.633L83.4942 125.349C83.4112 125.208 83.3609 125.051 83.3467 124.889C83.3325 124.727 83.3547 124.564 83.4118 124.411C83.4689 124.258 83.5596 124.119 83.6776 124.002C83.7957 123.886 83.9384 123.796 84.096 123.738C84.2536 123.679 84.4224 123.654 84.5909 123.664C84.7595 123.675 84.9237 123.72 85.0726 123.796C85.2214 123.873 85.3513 123.98 85.4535 124.109C85.5556 124.239 85.6276 124.388 85.6645 124.546L85.7784 124.829Z" fill="white"/>
<path d="M72.421 124.077L72.2096 124.607C72.0545 124.872 71.9605 125.165 71.9339 125.468C71.9072 125.771 71.9486 126.075 72.0553 126.361C72.1619 126.647 72.3313 126.907 72.5519 127.124C72.7724 127.342 73.039 127.511 73.3335 127.62C73.628 127.729 73.9434 127.776 74.2584 127.757C74.5733 127.738 74.8804 127.654 75.1587 127.511C75.437 127.368 75.6799 127.169 75.871 126.927C76.0622 126.685 76.197 126.407 76.2662 126.111L76.4776 125.58C76.6326 125.315 76.7267 125.022 76.7533 124.719C76.78 124.417 76.7386 124.112 76.6319 123.826C76.5253 123.54 76.3559 123.28 76.1353 123.063C75.9148 122.845 75.6482 122.677 75.3537 122.567C75.0592 122.458 74.7438 122.411 74.4288 122.43C74.1139 122.449 73.8068 122.533 73.5285 122.676C73.2502 122.819 73.0073 123.018 72.8161 123.26C72.625 123.502 72.4902 123.78 72.421 124.077ZM73.315 124.549C73.3515 124.39 73.4234 124.24 73.5256 124.11C73.6277 123.98 73.7579 123.873 73.907 123.796C74.0562 123.719 74.2209 123.674 74.3899 123.663C74.5589 123.653 74.7281 123.678 74.8861 123.737C75.0441 123.796 75.1871 123.886 75.3053 124.003C75.4235 124.12 75.5142 124.259 75.571 124.413C75.6279 124.566 75.6497 124.73 75.6349 124.892C75.6201 125.055 75.569 125.212 75.4852 125.354L75.3722 125.637C75.3351 125.795 75.263 125.944 75.1608 126.073C75.0586 126.202 74.9286 126.309 74.7798 126.386C74.631 126.462 74.4668 126.507 74.2983 126.517C74.1299 126.527 73.9612 126.502 73.8037 126.444C73.6462 126.385 73.5036 126.295 73.3856 126.179C73.2676 126.063 73.177 125.924 73.1199 125.771C73.0628 125.618 73.0406 125.455 73.0548 125.293C73.0689 125.131 73.1191 124.974 73.202 124.833L73.315 124.549Z" fill="white"/>
<line x1="79.5017" y1="6.55347" x2="79.5017" y2="128.486" stroke="white" stroke-linecap="round" stroke-linejoin="round" stroke-dasharray="1 4"/>
</svg>
