<svg width="12" height="12" viewBox="0 0 12 12" fill="none" xmlns="http://www.w3.org/2000/svg">
<path d="M2.86167 5.29417C3.70167 6.945 5.055 8.2925 6.70583 9.13833L7.98917 7.855C8.14667 7.6975 8.38 7.645 8.58417 7.715C9.2375 7.93083 9.94333 8.0475 10.6667 8.0475C10.9875 8.0475 11.25 8.31 11.25 8.63083V10.6667C11.25 10.9875 10.9875 11.25 10.6667 11.25C5.18917 11.25 0.75 6.81083 0.75 1.33333C0.75 1.0125 1.0125 0.75 1.33333 0.75H3.375C3.69583 0.75 3.95833 1.0125 3.95833 1.33333C3.95833 2.0625 4.075 2.7625 4.29083 3.41583C4.355 3.62 4.30833 3.8475 4.145 4.01083L2.86167 5.29417Z" fill="#FFA647"/>
</svg>
