<svg width="108" height="108" viewBox="0 0 108 108" fill="none" xmlns="http://www.w3.org/2000/svg">
<rect x="4" y="4" width="100" height="100" rx="4" fill="#9E60F2"/>
<rect x="11.5" y="12.5" width="85" height="84" rx="3.5" fill="#9E60F2" stroke="#A466F8"/>
<path d="M70.4333 46.5625H37.5667C37.255 46.5625 37 46.3075 37 45.9959V44.2959C37 42.7304 38.2679 41.4625 39.8333 41.4625H68.1667C69.7321 41.4625 71 42.7304 71 44.2959V45.9959C71 46.3075 70.745 46.5625 70.4333 46.5625ZM70.4333 47.6959H37.5667C37.255 47.6959 37 47.9509 37 48.2625V50.8125C37 51.1242 37.255 51.3792 37.5667 51.3792H70.4333C70.745 51.3792 71 51.1242 71 50.8125V48.2625C71 47.9509 70.745 47.6959 70.4333 47.6959ZM37.5667 52.5125H70.4333C70.745 52.5125 71 52.7675 71 53.0792V63.7042C71 65.2696 69.7321 66.5375 68.1667 66.5375H39.8333C38.2679 66.5375 37 65.2696 37 63.7042V53.0792C37 52.7675 37.255 52.5125 37.5667 52.5125ZM47.4833 60.8C47.4833 60.4884 47.2283 60.2334 46.9167 60.2334H42.1708C41.8592 60.2334 41.6042 60.4884 41.6042 60.8C41.6042 61.1117 41.8592 61.3667 42.1708 61.3667H46.9167C47.2283 61.3667 47.4833 61.1117 47.4833 60.8ZM47.4833 57.2584C47.4833 56.9467 47.2283 56.6917 46.9167 56.6917H42.1708C41.8592 56.6917 41.6042 56.9467 41.6042 57.2584C41.6042 57.57 41.8592 57.825 42.1708 57.825H46.9167C47.2283 57.825 47.4833 57.57 47.4833 57.2584Z" fill="white"/>
<path d="M35.5639 79.7C36.2106 79.7 36.7139 79.84 37.0739 80.12C37.4339 80.3933 37.6139 80.79 37.6139 81.31C37.6139 81.5033 37.5806 81.6767 37.5139 81.83C37.4539 81.9767 37.3706 82.1067 37.2639 82.22C37.1639 82.3267 37.0439 82.4167 36.9039 82.49C36.7639 82.5633 36.6173 82.62 36.4639 82.66C36.6506 82.6933 36.8239 82.7533 36.9839 82.84C37.1506 82.92 37.2939 83.0267 37.4139 83.16C37.5339 83.2867 37.6273 83.44 37.6939 83.62C37.7673 83.8 37.8039 84.0033 37.8039 84.23C37.8039 84.49 37.7473 84.73 37.6339 84.95C37.5206 85.1633 37.3606 85.35 37.1539 85.51C36.9539 85.6633 36.7139 85.7833 36.4339 85.87C36.1539 85.9567 35.8439 86 35.5039 86H33.5539V79.7H35.5639ZM34.6239 82.29H35.3439C35.5039 82.29 35.6539 82.2767 35.7939 82.25C35.9406 82.2233 36.0639 82.1767 36.1639 82.11C36.2706 82.0367 36.3539 81.9433 36.4139 81.83C36.4806 81.71 36.5139 81.5633 36.5139 81.39C36.5139 81.0967 36.4139 80.8833 36.2139 80.75C36.0139 80.61 35.7439 80.54 35.4039 80.54H34.6239V82.29ZM34.6239 85.16H35.3739C35.5539 85.16 35.7239 85.1433 35.8839 85.11C36.0439 85.07 36.1839 85.01 36.3039 84.93C36.4239 84.85 36.5173 84.7467 36.5839 84.62C36.6573 84.4867 36.6939 84.3233 36.6939 84.13C36.6939 83.9433 36.6539 83.7867 36.5739 83.66C36.4939 83.5267 36.3873 83.42 36.2539 83.34C36.1206 83.26 35.9673 83.2033 35.7939 83.17C35.6206 83.1367 35.4406 83.12 35.2539 83.12H34.6239V85.16ZM38.9825 81.7C39.2891 81.5333 39.5825 81.41 39.8625 81.33C40.1491 81.2433 40.4658 81.2 40.8125 81.2C41.0791 81.2 41.3225 81.23 41.5425 81.29C41.7691 81.35 41.9625 81.4467 42.1225 81.58C42.2825 81.7133 42.4058 81.8933 42.4925 82.12C42.5858 82.34 42.6325 82.61 42.6325 82.93V86H41.8025L41.6925 85.49H41.6625C41.4758 85.7033 41.2591 85.86 41.0125 85.96C40.7658 86.0533 40.4925 86.1 40.1925 86.1C39.7191 86.1 39.3358 85.9733 39.0425 85.72C38.7558 85.4667 38.6125 85.13 38.6125 84.71C38.6125 84.45 38.6658 84.2267 38.7725 84.04C38.8791 83.8467 39.0291 83.6867 39.2225 83.56C39.4158 83.4333 39.6458 83.34 39.9125 83.28C40.1791 83.2133 40.4725 83.18 40.7925 83.18H41.5925V82.82C41.5925 82.52 41.5125 82.3133 41.3525 82.2C41.1925 82.08 40.9725 82.02 40.6925 82.02C40.5191 82.02 40.3225 82.05 40.1025 82.11C39.8891 82.1633 39.6425 82.2667 39.3625 82.42L38.9825 81.7ZM41.6025 83.86L40.9725 83.87C40.4991 83.8833 40.1658 83.9667 39.9725 84.12C39.7791 84.2733 39.6825 84.4533 39.6825 84.66C39.6825 84.7933 39.7025 84.9033 39.7425 84.99C39.7891 85.0767 39.8491 85.1467 39.9225 85.2C39.9958 85.2533 40.0791 85.2933 40.1725 85.32C40.2725 85.34 40.3725 85.35 40.4725 85.35C40.6791 85.35 40.8825 85.3 41.0825 85.2C41.2891 85.0933 41.4625 84.9433 41.6025 84.75V83.86ZM44.9036 86H43.8736V81.28H44.6836L44.8236 81.91C45.057 81.6833 45.3003 81.51 45.5536 81.39C45.8136 81.2633 46.107 81.2 46.4336 81.2C46.9336 81.2 47.3203 81.3367 47.5936 81.61C47.867 81.8833 48.0036 82.2733 48.0036 82.78V86H46.9736V82.91C46.9736 82.6367 46.9036 82.42 46.7636 82.26C46.6236 82.1 46.4136 82.02 46.1336 82.02C45.9203 82.02 45.707 82.0733 45.4936 82.18C45.287 82.28 45.0903 82.4267 44.9036 82.62V86ZM50.3531 84.32V86H49.3331V78.89H50.3531V83.25L52.1431 81.28H53.4031L51.5031 83.27L53.4931 86H52.2831L50.7931 83.88L50.3531 84.32ZM59.422 85.24C59.7487 85.24 60.0187 85.2133 60.232 85.16C60.452 85.1 60.6587 85.0233 60.852 84.93L61.082 85.76C60.8687 85.86 60.622 85.94 60.342 86C60.062 86.0667 59.7187 86.1 59.312 86.1C58.8787 86.1 58.472 86.03 58.092 85.89C57.7187 85.7433 57.392 85.5333 57.112 85.26C56.8387 84.98 56.622 84.64 56.462 84.24C56.302 83.8333 56.222 83.37 56.222 82.85C56.222 82.3433 56.2987 81.89 56.452 81.49C56.6053 81.0833 56.8187 80.74 57.092 80.46C57.372 80.18 57.702 79.9667 58.082 79.82C58.4687 79.6733 58.892 79.6 59.352 79.6C59.772 79.6 60.1153 79.6367 60.382 79.71C60.6553 79.7767 60.8953 79.8667 61.102 79.98L60.852 80.79C60.6253 80.69 60.4087 80.61 60.202 80.55C60.002 80.49 59.762 80.46 59.482 80.46C59.1953 80.46 58.922 80.5033 58.662 80.59C58.4087 80.6767 58.1853 80.8167 57.992 81.01C57.8053 81.2033 57.6553 81.4533 57.542 81.76C57.4287 82.06 57.372 82.4233 57.372 82.85C57.372 83.2767 57.4253 83.6433 57.532 83.95C57.6453 84.25 57.792 84.4967 57.972 84.69C58.1587 84.8767 58.3753 85.0167 58.622 85.11C58.8753 85.1967 59.142 85.24 59.422 85.24ZM62.0391 81.7C62.3458 81.5333 62.6391 81.41 62.9191 81.33C63.2058 81.2433 63.5224 81.2 63.8691 81.2C64.1358 81.2 64.3791 81.23 64.5991 81.29C64.8258 81.35 65.0191 81.4467 65.1791 81.58C65.3391 81.7133 65.4624 81.8933 65.5491 82.12C65.6424 82.34 65.6891 82.61 65.6891 82.93V86H64.8591L64.7491 85.49H64.7191C64.5324 85.7033 64.3158 85.86 64.0691 85.96C63.8224 86.0533 63.5491 86.1 63.2491 86.1C62.7758 86.1 62.3924 85.9733 62.0991 85.72C61.8124 85.4667 61.6691 85.13 61.6691 84.71C61.6691 84.45 61.7224 84.2267 61.8291 84.04C61.9358 83.8467 62.0858 83.6867 62.2791 83.56C62.4724 83.4333 62.7024 83.34 62.9691 83.28C63.2358 83.2133 63.5291 83.18 63.8491 83.18H64.6491V82.82C64.6491 82.52 64.5691 82.3133 64.4091 82.2C64.2491 82.08 64.0291 82.02 63.7491 82.02C63.5758 82.02 63.3791 82.05 63.1591 82.11C62.9458 82.1633 62.6991 82.2667 62.4191 82.42L62.0391 81.7ZM64.6591 83.86L64.0291 83.87C63.5558 83.8833 63.2224 83.9667 63.0291 84.12C62.8358 84.2733 62.7391 84.4533 62.7391 84.66C62.7391 84.7933 62.7591 84.9033 62.7991 84.99C62.8458 85.0767 62.9058 85.1467 62.9791 85.2C63.0524 85.2533 63.1358 85.2933 63.2291 85.32C63.3291 85.34 63.4291 85.35 63.5291 85.35C63.7358 85.35 63.9391 85.3 64.1391 85.2C64.3458 85.0933 64.5191 84.9433 64.6591 84.75V83.86ZM66.9203 86V81.28H67.7003L67.8503 82.19C67.9636 81.91 68.1469 81.6767 68.4003 81.49C68.6536 81.2967 68.9603 81.2 69.3203 81.2C69.4803 81.2 69.6169 81.2133 69.7303 81.24C69.8503 81.2667 69.9569 81.3033 70.0503 81.35L69.8603 82.21C69.7803 82.17 69.6869 82.1367 69.5803 82.11C69.4803 82.0833 69.3636 82.07 69.2303 82.07C68.8636 82.07 68.5569 82.1967 68.3103 82.45C68.0636 82.6967 67.9403 83.0733 67.9403 83.58V86H66.9203ZM73.5168 78.89H74.5468V86H73.7368L73.6168 85.48H73.5768C73.4035 85.68 73.2102 85.8333 72.9968 85.94C72.7835 86.0467 72.5068 86.1 72.1668 86.1C71.9002 86.1 71.6435 86.05 71.3968 85.95C71.1568 85.8433 70.9402 85.6867 70.7468 85.48C70.5602 85.2733 70.4102 85.0167 70.2968 84.71C70.1835 84.4033 70.1268 84.05 70.1268 83.65C70.1268 83.2767 70.1735 82.94 70.2668 82.64C70.3668 82.34 70.5068 82.0833 70.6868 81.87C70.8735 81.6567 71.1002 81.4933 71.3668 81.38C71.6335 81.26 71.9368 81.2 72.2768 81.2C72.5102 81.2 72.7368 81.2367 72.9568 81.31C73.1768 81.3833 73.3635 81.4867 73.5168 81.62V78.89ZM73.5168 82.45C73.2368 82.13 72.9002 81.97 72.5068 81.97C72.3335 81.97 72.1668 82 72.0068 82.06C71.8468 82.12 71.7035 82.2167 71.5768 82.35C71.4502 82.4833 71.3502 82.6533 71.2768 82.86C71.2035 83.0667 71.1668 83.32 71.1668 83.62C71.1668 83.92 71.2002 84.1767 71.2668 84.39C71.3402 84.6033 71.4335 84.78 71.5468 84.92C71.6602 85.06 71.7902 85.1633 71.9368 85.23C72.0902 85.29 72.2468 85.32 72.4068 85.32C72.6468 85.32 72.8568 85.2667 73.0368 85.16C73.2235 85.0533 73.3835 84.9033 73.5168 84.71V82.45Z" fill="white"/>
</svg>
