<svg width="100" height="100" viewBox="0 0 100 100" fill="none" xmlns="http://www.w3.org/2000/svg">
<rect width="100" height="100" rx="4" fill="#FF7D4F"/>
<rect x="7.5" y="8.5" width="85" height="84" rx="3.5" fill="#FF7D4F" stroke="#FE8A5C"/>
<g clip-path="url(#clip0)">
<path d="M42.1505 35.8203C34.348 35.8203 28 42.1676 28 49.9695C28 57.7713 34.348 64.1186 42.1505 64.1186C49.953 64.1186 56.301 57.7713 56.301 49.9695C56.301 42.1676 49.953 35.8203 42.1505 35.8203Z" fill="#FFBC4F"/>
<path d="M57.8497 35.8203C50.0472 35.8203 43.6992 42.1676 43.6992 49.9695C43.6992 57.7713 50.0472 64.1186 57.8497 64.1186C65.6522 64.1186 72.0002 57.7713 72.0002 49.9695C72.0002 42.1676 65.6522 35.8203 57.8497 35.8203Z" fill="white"/>
<path d="M49.2104 54.6127C49.2104 53.9007 48.6333 53.3236 47.9213 53.3236H44.1018C44.3203 54.2192 44.6241 55.0816 45.0045 55.9017H47.9213C48.6333 55.9017 49.2104 55.3247 49.2104 54.6127Z" fill="#FFBC4F"/>
<path d="M49.2102 46.223C49.2102 45.5114 48.6331 44.934 47.9211 44.934H44.6256C44.3101 45.7594 44.0694 46.6215 43.9126 47.5121H47.9211C48.6331 47.5121 49.2102 46.935 49.2102 46.223Z" fill="#FFBC4F"/>
<path d="M52.7569 50.4178C52.7569 49.7058 52.1795 49.1288 51.4678 49.1288H43.7247C43.7083 49.4071 43.6992 49.687 43.6992 49.9694C43.6992 50.5575 43.7358 51.1372 43.806 51.7069H51.4678C52.1795 51.7069 52.7569 51.1298 52.7569 50.4178Z" fill="#FFBC4F"/>
</g>
<path d="M25.3246 75.7H26.7046L27.8146 79.1C27.9079 79.3867 27.9879 79.6467 28.0546 79.88C28.1279 80.1067 28.2012 80.3633 28.2746 80.65H28.3046C28.3779 80.41 28.4512 80.1533 28.5246 79.88C28.6046 79.6067 28.6812 79.3467 28.7546 79.1L29.8246 75.7H31.2046L31.7246 82H30.6846C30.6312 81.3333 30.5779 80.6633 30.5246 79.99C30.4779 79.31 30.4412 78.63 30.4146 77.95L30.3746 76.8H30.3546C30.2412 77.2133 30.1212 77.6333 29.9946 78.06C29.8746 78.4867 29.7479 78.8967 29.6146 79.29L28.7246 82H27.8146L26.9146 79.28C26.8212 78.9933 26.7379 78.7333 26.6646 78.5C26.5979 78.2667 26.5346 78.0533 26.4746 77.86C26.4212 77.66 26.3712 77.4733 26.3246 77.3C26.2779 77.1267 26.2346 76.96 26.1946 76.8H26.1646C26.1446 77.3667 26.1146 77.9433 26.0746 78.53C26.0346 79.1167 25.9979 79.68 25.9646 80.22L25.8446 82H24.8246L25.3246 75.7ZM33.0782 77.7C33.3848 77.5333 33.6782 77.41 33.9582 77.33C34.2448 77.2433 34.5615 77.2 34.9082 77.2C35.1748 77.2 35.4182 77.23 35.6382 77.29C35.8648 77.35 36.0582 77.4467 36.2182 77.58C36.3782 77.7133 36.5015 77.8933 36.5882 78.12C36.6815 78.34 36.7282 78.61 36.7282 78.93V82H35.8982L35.7882 81.49H35.7582C35.5715 81.7033 35.3548 81.86 35.1082 81.96C34.8615 82.0533 34.5882 82.1 34.2882 82.1C33.8148 82.1 33.4315 81.9733 33.1382 81.72C32.8515 81.4667 32.7082 81.13 32.7082 80.71C32.7082 80.45 32.7615 80.2267 32.8682 80.04C32.9748 79.8467 33.1248 79.6867 33.3182 79.56C33.5115 79.4333 33.7415 79.34 34.0082 79.28C34.2748 79.2133 34.5682 79.18 34.8882 79.18H35.6882V78.82C35.6882 78.52 35.6082 78.3133 35.4482 78.2C35.2882 78.08 35.0682 78.02 34.7882 78.02C34.6148 78.02 34.4182 78.05 34.1982 78.11C33.9848 78.1633 33.7382 78.2667 33.4582 78.42L33.0782 77.7ZM35.6982 79.86L35.0682 79.87C34.5948 79.8833 34.2615 79.9667 34.0682 80.12C33.8748 80.2733 33.7782 80.4533 33.7782 80.66C33.7782 80.7933 33.7982 80.9033 33.8382 80.99C33.8848 81.0767 33.9448 81.1467 34.0182 81.2C34.0915 81.2533 34.1748 81.2933 34.2682 81.32C34.3682 81.34 34.4682 81.35 34.5682 81.35C34.7748 81.35 34.9782 81.3 35.1782 81.2C35.3848 81.0933 35.5582 80.9433 35.6982 80.75V79.86ZM40.787 78.24C40.5737 78.14 40.3737 78.07 40.187 78.03C40.007 77.9833 39.827 77.96 39.647 77.96C39.367 77.96 39.1537 78.0133 39.007 78.12C38.867 78.22 38.797 78.3567 38.797 78.53C38.797 78.6633 38.8503 78.78 38.957 78.88C39.0637 78.9733 39.2837 79.0667 39.617 79.16L39.917 79.25C40.3503 79.3833 40.677 79.5567 40.897 79.77C41.1237 79.9833 41.237 80.27 41.237 80.63C41.237 81.07 41.0703 81.4267 40.737 81.7C40.4037 81.9667 39.947 82.1 39.367 82.1C39.0537 82.1 38.7603 82.07 38.487 82.01C38.2203 81.9567 37.9803 81.88 37.767 81.78L38.007 81C38.2003 81.0933 38.407 81.17 38.627 81.23C38.847 81.29 39.0737 81.32 39.307 81.32C39.5937 81.32 39.817 81.27 39.977 81.17C40.137 81.07 40.217 80.9167 40.217 80.71C40.217 80.5167 40.1437 80.38 39.997 80.3C39.857 80.2133 39.637 80.1233 39.337 80.03L39.027 79.94C38.607 79.8 38.2937 79.6233 38.087 79.41C37.887 79.1967 37.787 78.9167 37.787 78.57C37.787 78.3633 37.8303 78.1767 37.917 78.01C38.0037 77.8433 38.1237 77.7 38.277 77.58C38.4303 77.46 38.6137 77.3667 38.827 77.3C39.047 77.2333 39.287 77.2 39.547 77.2C39.7937 77.2 40.0437 77.2233 40.297 77.27C40.557 77.3167 40.797 77.39 41.017 77.49L40.787 78.24ZM44.8271 78.04H43.4871V80.59C43.4871 80.8233 43.5405 80.98 43.6471 81.06C43.7605 81.14 43.9105 81.18 44.0971 81.18C44.2305 81.18 44.3705 81.1667 44.5171 81.14C44.6705 81.1067 44.8038 81.07 44.9171 81.03L45.0771 81.79C44.9438 81.8433 44.7705 81.8933 44.5571 81.94C44.3505 81.98 44.1305 82 43.8971 82C43.3905 82 43.0238 81.8967 42.7971 81.69C42.5771 81.4767 42.4671 81.1633 42.4671 80.75V78.04H41.7471V77.28H42.4671V75.79H43.4871V77.28H44.8271V78.04ZM50.0183 79.82H46.7083V79.86C46.7083 80.34 46.8483 80.7033 47.1283 80.95C47.4083 81.1967 47.7783 81.32 48.2383 81.32C48.4917 81.32 48.7183 81.3 48.9183 81.26C49.125 81.2133 49.3317 81.1433 49.5383 81.05L49.7383 81.8C49.545 81.8867 49.315 81.9567 49.0483 82.01C48.7817 82.07 48.4883 82.1 48.1683 82.1C47.8283 82.1 47.505 82.0533 47.1983 81.96C46.8917 81.8667 46.6217 81.72 46.3883 81.52C46.1617 81.32 45.9817 81.0667 45.8483 80.76C45.715 80.4533 45.6483 80.0867 45.6483 79.66C45.6483 79.2933 45.7017 78.96 45.8083 78.66C45.9217 78.3533 46.0783 78.0933 46.2783 77.88C46.485 77.66 46.7317 77.4933 47.0183 77.38C47.3117 77.26 47.635 77.2 47.9883 77.2C48.295 77.2 48.5717 77.25 48.8183 77.35C49.0717 77.45 49.285 77.5933 49.4583 77.78C49.6383 77.96 49.775 78.1833 49.8683 78.45C49.9683 78.71 50.0183 79 50.0183 79.32V79.82ZM48.9583 79.1C48.9583 78.94 48.9383 78.79 48.8983 78.65C48.8583 78.51 48.7983 78.39 48.7183 78.29C48.6383 78.1833 48.5317 78.1 48.3983 78.04C48.2717 77.9733 48.1183 77.94 47.9383 77.94C47.605 77.94 47.3317 78.0467 47.1183 78.26C46.9117 78.4733 46.785 78.76 46.7383 79.12L48.9583 79.1ZM51.0062 82V77.28H51.7862L51.9362 78.19C52.0495 77.91 52.2329 77.6767 52.4862 77.49C52.7395 77.2967 53.0462 77.2 53.4062 77.2C53.5662 77.2 53.7029 77.2133 53.8162 77.24C53.9362 77.2667 54.0429 77.3033 54.1362 77.35L53.9462 78.21C53.8662 78.17 53.7729 78.1367 53.6662 78.11C53.5662 78.0833 53.4495 78.07 53.3162 78.07C52.9495 78.07 52.6429 78.1967 52.3962 78.45C52.1495 78.6967 52.0262 79.0733 52.0262 79.58V82H51.0062ZM60.0314 81.24C60.358 81.24 60.628 81.2133 60.8414 81.16C61.0614 81.1 61.268 81.0233 61.4614 80.93L61.6914 81.76C61.478 81.86 61.2314 81.94 60.9514 82C60.6714 82.0667 60.328 82.1 59.9214 82.1C59.488 82.1 59.0814 82.03 58.7014 81.89C58.328 81.7433 58.0014 81.5333 57.7214 81.26C57.448 80.98 57.2314 80.64 57.0714 80.24C56.9114 79.8333 56.8314 79.37 56.8314 78.85C56.8314 78.3433 56.908 77.89 57.0614 77.49C57.2147 77.0833 57.428 76.74 57.7014 76.46C57.9814 76.18 58.3114 75.9667 58.6914 75.82C59.078 75.6733 59.5014 75.6 59.9614 75.6C60.3814 75.6 60.7247 75.6367 60.9914 75.71C61.2647 75.7767 61.5047 75.8667 61.7114 75.98L61.4614 76.79C61.2347 76.69 61.018 76.61 60.8114 76.55C60.6114 76.49 60.3714 76.46 60.0914 76.46C59.8047 76.46 59.5314 76.5033 59.2714 76.59C59.018 76.6767 58.7947 76.8167 58.6014 77.01C58.4147 77.2033 58.2647 77.4533 58.1514 77.76C58.038 78.06 57.9814 78.4233 57.9814 78.85C57.9814 79.2767 58.0347 79.6433 58.1414 79.95C58.2547 80.25 58.4014 80.4967 58.5814 80.69C58.768 80.8767 58.9847 81.0167 59.2314 81.11C59.4847 81.1967 59.7514 81.24 60.0314 81.24ZM62.6485 77.7C62.9551 77.5333 63.2485 77.41 63.5285 77.33C63.8151 77.2433 64.1318 77.2 64.4785 77.2C64.7451 77.2 64.9885 77.23 65.2085 77.29C65.4351 77.35 65.6285 77.4467 65.7885 77.58C65.9485 77.7133 66.0718 77.8933 66.1585 78.12C66.2518 78.34 66.2985 78.61 66.2985 78.93V82H65.4685L65.3585 81.49H65.3285C65.1418 81.7033 64.9251 81.86 64.6785 81.96C64.4318 82.0533 64.1585 82.1 63.8585 82.1C63.3851 82.1 63.0018 81.9733 62.7085 81.72C62.4218 81.4667 62.2785 81.13 62.2785 80.71C62.2785 80.45 62.3318 80.2267 62.4385 80.04C62.5451 79.8467 62.6951 79.6867 62.8885 79.56C63.0818 79.4333 63.3118 79.34 63.5785 79.28C63.8451 79.2133 64.1385 79.18 64.4585 79.18H65.2585V78.82C65.2585 78.52 65.1785 78.3133 65.0185 78.2C64.8585 78.08 64.6385 78.02 64.3585 78.02C64.1851 78.02 63.9885 78.05 63.7685 78.11C63.5551 78.1633 63.3085 78.2667 63.0285 78.42L62.6485 77.7ZM65.2685 79.86L64.6385 79.87C64.1651 79.8833 63.8318 79.9667 63.6385 80.12C63.4451 80.2733 63.3485 80.4533 63.3485 80.66C63.3485 80.7933 63.3685 80.9033 63.4085 80.99C63.4551 81.0767 63.5151 81.1467 63.5885 81.2C63.6618 81.2533 63.7451 81.2933 63.8385 81.32C63.9385 81.34 64.0385 81.35 64.1385 81.35C64.3451 81.35 64.5485 81.3 64.7485 81.2C64.9551 81.0933 65.1285 80.9433 65.2685 80.75V79.86ZM67.5296 82V77.28H68.3096L68.4596 78.19C68.573 77.91 68.7563 77.6767 69.0096 77.49C69.263 77.2967 69.5696 77.2 69.9296 77.2C70.0896 77.2 70.2263 77.2133 70.3396 77.24C70.4596 77.2667 70.5663 77.3033 70.6596 77.35L70.4696 78.21C70.3896 78.17 70.2963 78.1367 70.1896 78.11C70.0896 78.0833 69.973 78.07 69.8396 78.07C69.473 78.07 69.1663 78.1967 68.9196 78.45C68.673 78.6967 68.5496 79.0733 68.5496 79.58V82H67.5296ZM74.1262 74.89H75.1562V82H74.3462L74.2262 81.48H74.1862C74.0129 81.68 73.8195 81.8333 73.6062 81.94C73.3929 82.0467 73.1162 82.1 72.7762 82.1C72.5095 82.1 72.2529 82.05 72.0062 81.95C71.7662 81.8433 71.5495 81.6867 71.3562 81.48C71.1695 81.2733 71.0195 81.0167 70.9062 80.71C70.7929 80.4033 70.7362 80.05 70.7362 79.65C70.7362 79.2767 70.7829 78.94 70.8762 78.64C70.9762 78.34 71.1162 78.0833 71.2962 77.87C71.4829 77.6567 71.7095 77.4933 71.9762 77.38C72.2429 77.26 72.5462 77.2 72.8862 77.2C73.1195 77.2 73.3462 77.2367 73.5662 77.31C73.7862 77.3833 73.9729 77.4867 74.1262 77.62V74.89ZM74.1262 78.45C73.8462 78.13 73.5095 77.97 73.1162 77.97C72.9429 77.97 72.7762 78 72.6162 78.06C72.4562 78.12 72.3129 78.2167 72.1862 78.35C72.0595 78.4833 71.9595 78.6533 71.8862 78.86C71.8129 79.0667 71.7762 79.32 71.7762 79.62C71.7762 79.92 71.8095 80.1767 71.8762 80.39C71.9495 80.6033 72.0429 80.78 72.1562 80.92C72.2695 81.06 72.3995 81.1633 72.5462 81.23C72.6995 81.29 72.8562 81.32 73.0162 81.32C73.2562 81.32 73.4662 81.2667 73.6462 81.16C73.8329 81.0533 73.9929 80.9033 74.1262 80.71V78.45Z" fill="white"/>
<defs>
<clipPath id="clip0">
<rect width="44" height="44" fill="white" transform="translate(28 28)"/>
</clipPath>
</defs>
</svg>
