<svg width="100" height="100" viewBox="0 0 100 100" fill="none" xmlns="http://www.w3.org/2000/svg">
<rect width="100" height="100" rx="4" fill="#47B9F3"/>
<rect x="7.5" y="8.5" width="85" height="84" rx="3.5" fill="#47B9F3" stroke="#50C2FC"/>
<path d="M63.7207 42.2544C63.4286 41.8933 63.0889 41.5636 62.7124 41.2693C62.7627 42.203 62.6762 43.1977 62.4513 44.2507C61.8372 47.1273 60.3688 49.5718 58.2049 51.3193C56.0427 53.0656 53.3428 53.9888 50.3972 53.9888H46.1018L44.7114 60.5028C44.4384 61.7811 43.2919 62.7087 41.985 62.7087H40.0487L39.7 64.3092C39.6105 64.7213 39.7121 65.1519 39.9767 65.4803C40.2412 65.8087 40.6404 65.9998 41.0622 65.9998H45.7957C46.4534 65.9998 47.0218 65.54 47.159 64.8968L48.7848 57.2797H54.2079C56.8313 57.2797 59.2282 56.4636 61.1399 54.9198C63.0525 53.3754 64.3523 51.2051 64.8988 48.6443C65.4523 46.0549 65.0559 43.905 63.7207 42.2544Z" fill="white"/>
<path d="M43.349 60.2119L44.9748 52.5949H50.398C53.0212 52.5949 55.4182 51.7788 57.3299 50.235C59.2423 48.6905 60.5422 46.5203 61.0889 43.9595C61.6422 41.3701 61.246 39.2202 59.9106 37.5696C58.6289 35.9846 56.4377 35 54.1929 35H42.3771C41.7216 35 41.1547 35.4568 41.0151 36.0972L35.8901 59.6245C35.8004 60.0365 35.902 60.4671 36.1667 60.7956C36.431 61.124 36.8302 61.315 37.2521 61.315H41.9857C42.6434 61.315 43.2115 60.8553 43.349 60.2119ZM47.687 40.3593H51.4048C52.2794 40.3593 53.0614 40.7259 53.5505 41.3651C54.0699 42.0441 54.2219 42.983 53.9672 43.941C53.9638 43.9532 53.9609 43.9653 53.9578 43.9777C53.4902 45.9516 51.5453 47.5575 49.623 47.5575H46.0604L47.687 40.3593Z" fill="white"/>
<path d="M36.8245 75.7H38.8845C39.2245 75.7 39.5311 75.7433 39.8045 75.83C40.0845 75.9167 40.3211 76.0433 40.5145 76.21C40.7145 76.37 40.8678 76.57 40.9745 76.81C41.0878 77.0433 41.1445 77.3133 41.1445 77.62C41.1445 77.96 41.0845 78.2567 40.9645 78.51C40.8445 78.7567 40.6778 78.9633 40.4645 79.13C40.2511 79.29 39.9978 79.41 39.7045 79.49C39.4178 79.57 39.1045 79.61 38.7645 79.61H37.8945V82H36.8245V75.7ZM37.8945 78.76H38.4645C38.6911 78.76 38.8978 78.7433 39.0845 78.71C39.2778 78.6767 39.4445 78.62 39.5845 78.54C39.7245 78.4533 39.8345 78.34 39.9145 78.2C39.9945 78.0533 40.0345 77.8667 40.0345 77.64C40.0345 77.44 39.9978 77.27 39.9245 77.13C39.8511 76.99 39.7511 76.8767 39.6245 76.79C39.4978 76.7033 39.3545 76.64 39.1945 76.6C39.0345 76.56 38.8645 76.54 38.6845 76.54H37.8945V78.76ZM42.126 77.7C42.4327 77.5333 42.726 77.41 43.006 77.33C43.2927 77.2433 43.6093 77.2 43.956 77.2C44.2227 77.2 44.466 77.23 44.686 77.29C44.9127 77.35 45.106 77.4467 45.266 77.58C45.426 77.7133 45.5493 77.8933 45.636 78.12C45.7293 78.34 45.776 78.61 45.776 78.93V82H44.946L44.836 81.49H44.806C44.6193 81.7033 44.4027 81.86 44.156 81.96C43.9093 82.0533 43.636 82.1 43.336 82.1C42.8627 82.1 42.4793 81.9733 42.186 81.72C41.8993 81.4667 41.756 81.13 41.756 80.71C41.756 80.45 41.8093 80.2267 41.916 80.04C42.0227 79.8467 42.1727 79.6867 42.366 79.56C42.5593 79.4333 42.7893 79.34 43.056 79.28C43.3227 79.2133 43.616 79.18 43.936 79.18H44.736V78.82C44.736 78.52 44.656 78.3133 44.496 78.2C44.336 78.08 44.116 78.02 43.836 78.02C43.6627 78.02 43.466 78.05 43.246 78.11C43.0327 78.1633 42.786 78.2667 42.506 78.42L42.126 77.7ZM44.746 79.86L44.116 79.87C43.6427 79.8833 43.3093 79.9667 43.116 80.12C42.9227 80.2733 42.826 80.4533 42.826 80.66C42.826 80.7933 42.846 80.9033 42.886 80.99C42.9327 81.0767 42.9927 81.1467 43.066 81.2C43.1393 81.2533 43.2227 81.2933 43.316 81.32C43.416 81.34 43.516 81.35 43.616 81.35C43.8227 81.35 44.026 81.3 44.226 81.2C44.4327 81.0933 44.606 80.9433 44.746 80.75V79.86ZM46.3398 77.28H47.4498L48.3998 79.83L48.7398 80.96H48.7598L49.0898 79.82L49.9498 77.28H50.9998L49.2098 82.32C49.0098 82.8867 48.7531 83.3467 48.4398 83.7C48.1331 84.06 47.7298 84.3267 47.2298 84.5L46.7898 83.69C47.1231 83.5633 47.4131 83.38 47.6598 83.14C47.9064 82.9067 48.0898 82.6 48.2098 82.22L48.2898 81.99L46.3398 77.28ZM53.7742 82.1C53.5742 82.1 53.3809 82.0733 53.1942 82.02C53.0076 81.9667 52.8476 81.8933 52.7142 81.8V84.3H51.6942V77.22H52.5242L52.6542 77.81C52.8409 77.6367 53.0509 77.4933 53.2842 77.38C53.5176 77.26 53.7876 77.2 54.0942 77.2C54.7209 77.2 55.2142 77.4033 55.5742 77.81C55.9342 78.2167 56.1142 78.7933 56.1142 79.54C56.1142 79.9733 56.0476 80.3533 55.9142 80.68C55.7876 81 55.6142 81.2667 55.3942 81.48C55.1809 81.6867 54.9309 81.8433 54.6442 81.95C54.3642 82.05 54.0742 82.1 53.7742 82.1ZM53.8442 78.01C53.5909 78.01 53.3642 78.0733 53.1642 78.2C52.9709 78.32 52.8209 78.4467 52.7142 78.58V81.01C52.9876 81.2167 53.2976 81.32 53.6442 81.32C53.8176 81.32 53.9876 81.29 54.1542 81.23C54.3209 81.17 54.4709 81.07 54.6042 80.93C54.7376 80.79 54.8442 80.61 54.9242 80.39C55.0042 80.1633 55.0442 79.89 55.0442 79.57C55.0442 79.0967 54.9442 78.72 54.7442 78.44C54.5509 78.1533 54.2509 78.01 53.8442 78.01ZM57.1944 77.7C57.501 77.5333 57.7944 77.41 58.0744 77.33C58.361 77.2433 58.6777 77.2 59.0244 77.2C59.291 77.2 59.5344 77.23 59.7544 77.29C59.981 77.35 60.1744 77.4467 60.3344 77.58C60.4944 77.7133 60.6177 77.8933 60.7044 78.12C60.7977 78.34 60.8444 78.61 60.8444 78.93V82H60.0144L59.9044 81.49H59.8744C59.6877 81.7033 59.471 81.86 59.2244 81.96C58.9777 82.0533 58.7044 82.1 58.4044 82.1C57.931 82.1 57.5477 81.9733 57.2544 81.72C56.9677 81.4667 56.8244 81.13 56.8244 80.71C56.8244 80.45 56.8777 80.2267 56.9844 80.04C57.091 79.8467 57.241 79.6867 57.4344 79.56C57.6277 79.4333 57.8577 79.34 58.1244 79.28C58.391 79.2133 58.6844 79.18 59.0044 79.18H59.8044V78.82C59.8044 78.52 59.7244 78.3133 59.5644 78.2C59.4044 78.08 59.1844 78.02 58.9044 78.02C58.731 78.02 58.5344 78.05 58.3144 78.11C58.101 78.1633 57.8544 78.2667 57.5744 78.42L57.1944 77.7ZM59.8144 79.86L59.1844 79.87C58.711 79.8833 58.3777 79.9667 58.1844 80.12C57.991 80.2733 57.8944 80.4533 57.8944 80.66C57.8944 80.7933 57.9144 80.9033 57.9544 80.99C58.001 81.0767 58.061 81.1467 58.1344 81.2C58.2077 81.2533 58.291 81.2933 58.3844 81.32C58.4844 81.34 58.5844 81.35 58.6844 81.35C58.891 81.35 59.0944 81.3 59.2944 81.2C59.501 81.0933 59.6744 80.9433 59.8144 80.75V79.86ZM62.2232 82V74.89H63.2332V82H62.2232Z" fill="white"/>
</svg>
