<svg width="14" height="12" viewBox="0 0 14 12" fill="none" xmlns="http://www.w3.org/2000/svg">
<path d="M0.44444 0.888991H1.86221L3.11108 6.77338L3.55552 8.55114C3.57986 8.64975 3.63723 8.73705 3.7181 8.79851C3.79896 8.85997 3.89844 8.89188 3.99996 8.88892H11.9999C12.1178 8.88892 12.2308 8.84209 12.3142 8.75874C12.3975 8.6754 12.4443 8.56235 12.4443 8.44448C12.4443 8.3266 12.3975 8.21356 12.3142 8.13021C12.2308 8.04686 12.1178 8.00004 11.9999 8.00004H4.34663L4.12441 7.11116H11.5554C11.6558 7.11459 11.7543 7.08396 11.835 7.02424C11.9157 6.96452 11.9738 6.87923 11.9999 6.78227L13.3332 1.89343C13.3512 1.8275 13.3537 1.75833 13.3406 1.69126C13.3275 1.6242 13.2991 1.56107 13.2577 1.50676C13.2145 1.45054 13.1584 1.40547 13.0943 1.37532C13.0301 1.34516 12.9596 1.3308 12.8888 1.33343H2.86664L2.66664 0.351218C2.64496 0.250139 2.58872 0.159781 2.5076 0.0956962C2.42648 0.0316118 2.32555 -0.00218965 2.2222 0.000110061H0.44444C0.326567 0.000110061 0.213522 0.0469349 0.130174 0.130284C0.0468248 0.213632 0 0.326677 0 0.44455C0 0.562423 0.0468248 0.675468 0.130174 0.758817C0.213522 0.842166 0.326567 0.888991 0.44444 0.888991ZM12.3066 2.22231L11.2177 6.22227H3.91552L3.05775 2.22231H12.3066Z" fill="#878787"/>
<path d="M9.33292 10.6667C9.33292 10.9304 9.41111 11.1882 9.55762 11.4074C9.70413 11.6267 9.91236 11.7976 10.156 11.8985C10.3996 11.9994 10.6677 12.0258 10.9264 11.9744C11.185 11.923 11.4226 11.796 11.609 11.6095C11.7955 11.423 11.9225 11.1855 11.9739 10.9268C12.0254 10.6682 11.999 10.4001 11.8981 10.1565C11.7971 9.91282 11.6263 9.70459 11.407 9.55808C11.1877 9.41157 10.9299 9.33337 10.6662 9.33337C10.3126 9.33337 9.97348 9.47385 9.72344 9.72389C9.47339 9.97394 9.33292 10.3131 9.33292 10.6667ZM11.1107 10.6667C11.1107 10.7546 11.0846 10.8405 11.0358 10.9136C10.9869 10.9867 10.9175 11.0437 10.8363 11.0773C10.7551 11.1109 10.6657 11.1197 10.5795 11.1026C10.4933 11.0854 10.4141 11.0431 10.352 10.981C10.2898 10.9188 10.2475 10.8396 10.2303 10.7534C10.2132 10.6672 10.222 10.5778 10.2556 10.4966C10.2893 10.4154 10.3462 10.346 10.4193 10.2972C10.4924 10.2483 10.5783 10.2223 10.6662 10.2223C10.7841 10.2223 10.8972 10.2691 10.9805 10.3524C11.0639 10.4358 11.1107 10.5488 11.1107 10.6667Z" fill="#878787"/>
<path d="M3.99982 10.6667C3.99982 10.9304 4.07802 11.1882 4.22453 11.4074C4.37104 11.6267 4.57927 11.7976 4.82291 11.8985C5.06654 11.9994 5.33462 12.0258 5.59326 11.9744C5.8519 11.923 6.08948 11.796 6.27595 11.6095C6.46241 11.423 6.5894 11.1855 6.64085 10.9268C6.69229 10.6682 6.66589 10.4001 6.56497 10.1565C6.46406 9.91282 6.29316 9.70459 6.0739 9.55808C5.85464 9.41157 5.59685 9.33337 5.33315 9.33337C4.97953 9.33337 4.64039 9.47385 4.39035 9.72389C4.1403 9.97394 3.99982 10.3131 3.99982 10.6667ZM5.77759 10.6667C5.77759 10.7546 5.75152 10.8405 5.70268 10.9136C5.65385 10.9867 5.58444 11.0437 5.50323 11.0773C5.42201 11.1109 5.33265 11.1197 5.24644 11.1026C5.16023 11.0854 5.08103 11.0431 5.01888 10.981C4.95672 10.9188 4.91439 10.8396 4.89724 10.7534C4.8801 10.6672 4.8889 10.5778 4.92254 10.4966C4.95617 10.4154 5.01314 10.346 5.08623 10.2972C5.15932 10.2483 5.24524 10.2223 5.33315 10.2223C5.45102 10.2223 5.56406 10.2691 5.64741 10.3524C5.73076 10.4358 5.77759 10.5488 5.77759 10.6667Z" fill="#878787"/>
</svg>
