<svg width="14" height="12" viewBox="0 0 14 12" fill="none" xmlns="http://www.w3.org/2000/svg">
<path d="M0.44444 0.888991H1.86221L3.11108 6.77338L3.55552 8.55114C3.57986 8.64975 3.63723 8.73705 3.7181 8.79851C3.79896 8.85997 3.89844 8.89188 3.99996 8.88892H11.9999C12.1178 8.88892 12.2308 8.84209 12.3142 8.75874C12.3975 8.6754 12.4443 8.56235 12.4443 8.44448C12.4443 8.3266 12.3975 8.21356 12.3142 8.13021C12.2308 8.04686 12.1178 8.00004 11.9999 8.00004H4.34663L4.12441 7.11116H11.5554C11.6558 7.11459 11.7543 7.08396 11.835 7.02424C11.9157 6.96452 11.9738 6.87923 11.9999 6.78227L13.3332 1.89343C13.3512 1.8275 13.3537 1.75833 13.3406 1.69126C13.3275 1.6242 13.2991 1.56107 13.2577 1.50676C13.2145 1.45054 13.1584 1.40547 13.0943 1.37532C13.0301 1.34516 12.9596 1.3308 12.8888 1.33343H2.86664L2.66664 0.351218C2.64496 0.250139 2.58872 0.159781 2.5076 0.0956962C2.42648 0.0316118 2.32555 -0.00218965 2.2222 0.000110061H0.44444C0.326567 0.000110061 0.213522 0.0469349 0.130174 0.130284C0.0468248 0.213632 0 0.326677 0 0.44455C0 0.562423 0.0468248 0.675468 0.130174 0.758817C0.213522 0.842166 0.326567 0.888991 0.44444 0.888991Z" fill="#FFA647"/>
<path d="M9.33289 10.6667C9.33289 10.9304 9.41108 11.1882 9.55759 11.4074C9.7041 11.6267 9.91233 11.7976 10.156 11.8985C10.3996 11.9994 10.6677 12.0258 10.9263 11.9744C11.185 11.923 11.4225 11.796 11.609 11.6095C11.7955 11.423 11.9225 11.1855 11.9739 10.9268C12.0254 10.6682 11.999 10.4001 11.898 10.1565C11.7971 9.91282 11.6262 9.70459 11.407 9.55808C11.1877 9.41157 10.9299 9.33337 10.6662 9.33337C10.3126 9.33337 9.97345 9.47385 9.72341 9.72389C9.47336 9.97394 9.33289 10.3131 9.33289 10.6667ZM11.1106 10.6667C11.1106 10.7546 11.0846 10.8405 11.0357 10.9136C10.9869 10.9867 10.9175 11.0437 10.8363 11.0773C10.7551 11.1109 10.6657 11.1197 10.5795 11.1026C10.4933 11.0854 10.4141 11.0431 10.3519 10.981C10.2898 10.9188 10.2475 10.8396 10.2303 10.7534C10.2132 10.6672 10.222 10.5778 10.2556 10.4966C10.2892 10.4154 10.3462 10.346 10.4193 10.2972C10.4924 10.2483 10.5783 10.2223 10.6662 10.2223C10.7841 10.2223 10.8971 10.2691 10.9805 10.3524C11.0638 10.4358 11.1106 10.5488 11.1106 10.6667Z" fill="#FFA647"/>
<path d="M3.99988 10.6667C3.99988 10.9304 4.07808 11.1882 4.22458 11.4074C4.37109 11.6267 4.57933 11.7976 4.82296 11.8985C5.06659 11.9994 5.33468 12.0258 5.59332 11.9744C5.85196 11.923 6.08953 11.796 6.276 11.6095C6.46247 11.423 6.58945 11.1855 6.6409 10.9268C6.69235 10.6682 6.66594 10.4001 6.56503 10.1565C6.46411 9.91282 6.29322 9.70459 6.07395 9.55808C5.85469 9.41157 5.5969 9.33337 5.3332 9.33337C4.97958 9.33337 4.64044 9.47385 4.3904 9.72389C4.14035 9.97394 3.99988 10.3131 3.99988 10.6667ZM5.77764 10.6667C5.77764 10.7546 5.75157 10.8405 5.70274 10.9136C5.6539 10.9867 5.58449 11.0437 5.50328 11.0773C5.42207 11.1109 5.33271 11.1197 5.24649 11.1026C5.16028 11.0854 5.08109 11.0431 5.01893 10.981C4.95678 10.9188 4.91445 10.8396 4.8973 10.7534C4.88015 10.6672 4.88895 10.5778 4.92259 10.4966C4.95623 10.4154 5.01319 10.346 5.08628 10.2972C5.15937 10.2483 5.2453 10.2223 5.3332 10.2223C5.45107 10.2223 5.56412 10.2691 5.64747 10.3524C5.73081 10.4358 5.77764 10.5488 5.77764 10.6667Z" fill="#FFA647"/>
</svg>
