<svg width="23" height="20" viewBox="0 0 23 20" fill="none" xmlns="http://www.w3.org/2000/svg">
<path d="M0.740734 1.48165H3.10367L5.18514 11.289L5.92587 14.2519C5.96643 14.4163 6.06205 14.5618 6.19683 14.6642C6.3316 14.7666 6.4974 14.8198 6.6666 14.8149H19.9998C20.1963 14.8149 20.3847 14.7368 20.5236 14.5979C20.6625 14.459 20.7405 14.2706 20.7405 14.0741C20.7405 13.8777 20.6625 13.6893 20.5236 13.5503C20.3847 13.4114 20.1963 13.3334 19.9998 13.3334H7.24438L6.87401 11.8519H19.2591C19.4263 11.8577 19.5906 11.8066 19.7251 11.7071C19.8596 11.6075 19.9564 11.4654 19.9998 11.3038L22.222 3.15571C22.252 3.04584 22.2562 2.93054 22.2344 2.81877C22.2125 2.70701 22.1652 2.60178 22.0961 2.51127C22.0241 2.41757 21.9307 2.34245 21.8238 2.2922C21.7168 2.24194 21.5994 2.218 21.4813 2.22239H4.77773L4.4444 0.585363C4.40826 0.416898 4.31453 0.266301 4.17933 0.159494C4.04413 0.0526863 3.87592 -0.00364942 3.70367 0.000183435H0.740734C0.544279 0.000183435 0.35587 0.0782248 0.216956 0.217139C0.0780413 0.356054 0 0.544462 0 0.740917C0 0.937372 0.0780413 1.12578 0.216956 1.2647C0.35587 1.40361 0.544279 1.48165 0.740734 1.48165ZM20.5109 3.70385L18.6961 10.3705H6.52587L5.09625 3.70385H20.5109Z" fill="white"/>
<path d="M15.5554 17.7778C15.5554 18.2173 15.6857 18.647 15.9299 19.0124C16.1741 19.3778 16.5212 19.6627 16.9272 19.8309C17.3333 19.999 17.7801 20.0431 18.2112 19.9573C18.6422 19.8716 19.0382 19.6599 19.349 19.3491C19.6597 19.0384 19.8714 18.6424 19.9571 18.2113C20.0429 17.7803 19.9989 17.3335 19.8307 16.9274C19.6625 16.5214 19.3776 16.1743 19.0122 15.9301C18.6468 15.6859 18.2171 15.5556 17.7776 15.5556C17.1883 15.5556 16.623 15.7897 16.2063 16.2065C15.7895 16.6232 15.5554 17.1884 15.5554 17.7778ZM18.5184 17.7778C18.5184 17.9243 18.4749 18.0675 18.3935 18.1893C18.3121 18.3111 18.1964 18.4061 18.0611 18.4622C17.9257 18.5182 17.7768 18.5329 17.6331 18.5043C17.4894 18.4757 17.3574 18.4052 17.2538 18.3016C17.1502 18.198 17.0797 18.066 17.0511 17.9223C17.0225 17.7786 17.0372 17.6297 17.0933 17.4943C17.1493 17.359 17.2443 17.2433 17.3661 17.1619C17.4879 17.0805 17.6311 17.0371 17.7776 17.0371C17.9741 17.0371 18.1625 17.1151 18.3014 17.254C18.4403 17.3929 18.5184 17.5813 18.5184 17.7778Z" fill="white"/>
<path d="M6.66663 17.7778C6.66663 18.2173 6.79696 18.647 7.04113 19.0124C7.28531 19.3778 7.63237 19.6627 8.03843 19.8309C8.44448 19.999 8.89129 20.0431 9.32236 19.9573C9.75342 19.8716 10.1494 19.6599 10.4602 19.3491C10.7709 19.0384 10.9826 18.6424 11.0683 18.2113C11.1541 17.7803 11.1101 17.3335 10.9419 16.9274C10.7737 16.5214 10.4889 16.1743 10.1234 15.9301C9.75798 15.6859 9.32834 15.5556 8.88883 15.5556C8.29946 15.5556 7.73424 15.7897 7.31749 16.2065C6.90075 16.6232 6.66663 17.1884 6.66663 17.7778ZM9.62956 17.7778C9.62956 17.9243 9.58612 18.0675 9.50473 18.1893C9.42333 18.3111 9.30765 18.4061 9.17229 18.4622C9.03694 18.5182 8.88801 18.5329 8.74432 18.5043C8.60063 18.4757 8.46864 18.4052 8.36505 18.3016C8.26146 18.198 8.19091 18.066 8.16233 17.9223C8.13375 17.7786 8.14841 17.6297 8.20448 17.4943C8.26054 17.359 8.35548 17.2433 8.4773 17.1619C8.59911 17.0805 8.74232 17.0371 8.88883 17.0371C9.08528 17.0371 9.27369 17.1151 9.41261 17.254C9.55152 17.3929 9.62956 17.5813 9.62956 17.7778Z" fill="white"/>
</svg>
