<svg width="22" height="22" viewBox="0 0 22 22" fill="none" xmlns="http://www.w3.org/2000/svg">
<path d="M10.75 21.5C7.87857 21.5 5.17898 20.3818 3.14857 18.3514C1.11817 16.321 0 13.6214 0 10.75C0 7.87857 1.11821 5.17902 3.14857 3.14857C5.17894 1.11813 7.87857 0 10.75 0C13.6214 0 16.321 1.11817 18.3514 3.14857C20.3818 5.17898 21.5 7.87857 21.5 10.75C21.5 13.6214 20.3818 16.321 18.3514 18.3514C16.3211 20.3819 13.6214 21.5 10.75 21.5ZM10.75 1.34375C5.56338 1.34375 1.34375 5.56338 1.34375 10.75C1.34375 15.9366 5.56338 20.1562 10.75 20.1562C15.9366 20.1562 20.1562 15.9366 20.1562 10.75C20.1562 5.56338 15.9366 1.34375 10.75 1.34375Z" fill="#9E60F2"/>
<path d="M10.75 10.0781C9.82382 10.0781 9.07031 9.32462 9.07031 8.39844C9.07031 7.47226 9.82382 6.71875 10.75 6.71875C11.6762 6.71875 12.4297 7.47226 12.4297 8.39844C12.4297 8.76948 12.7305 9.07031 13.1016 9.07031C13.4726 9.07031 13.7734 8.76948 13.7734 8.39844C13.7734 6.96226 12.7665 5.75763 11.4219 5.45117V4.70312C11.4219 4.33208 11.1211 4.03125 10.75 4.03125C10.3789 4.03125 10.0781 4.33208 10.0781 4.70312V5.45117C8.73345 5.75763 7.72656 6.96226 7.72656 8.39844C7.72656 10.0656 9.08287 11.4219 10.75 11.4219C11.6762 11.4219 12.4297 12.1754 12.4297 13.1016C12.4297 14.0277 11.6762 14.7812 10.75 14.7812C9.82382 14.7812 9.07031 14.0277 9.07031 13.1016C9.07031 12.7305 8.76952 12.4297 8.39844 12.4297C8.02735 12.4297 7.72656 12.7305 7.72656 13.1016C7.72656 14.5377 8.73345 15.7424 10.0781 16.0488V16.7969C10.0781 17.1679 10.3789 17.4688 10.75 17.4688C11.1211 17.4688 11.4219 17.1679 11.4219 16.7969V16.0488C12.7665 15.7424 13.7734 14.5377 13.7734 13.1016C13.7734 11.4344 12.4171 10.0781 10.75 10.0781Z" fill="#9E60F2"/>
</svg>
