<svg width="70" height="70" viewBox="0 0 70 70" fill="none" xmlns="http://www.w3.org/2000/svg">
<circle cx="35" cy="35" r="35" fill="#FF3B30" fill-opacity="0.3"/>
<circle cx="34.5528" cy="34.5549" r="26.7647" fill="#FF3B30"/>
<g clip-path="url(#clip0)">
<path d="M33.545 25.3453C34.4246 25.3452 35.2845 25.0914 36.0158 24.616C36.7471 24.1407 37.3171 23.465 37.6536 22.6746C37.9902 21.8841 38.0782 21.0144 37.9065 20.1753C37.7349 19.3362 37.3112 18.5655 36.6892 17.9605C36.0672 17.3556 35.2747 16.9437 34.412 16.7768C33.5492 16.6099 32.655 16.6956 31.8424 17.0231C31.0297 17.3505 30.3351 17.9049 29.8464 18.6163C29.3578 19.3277 29.0969 20.164 29.0969 21.0195C29.0969 21.5876 29.212 22.1502 29.4355 22.675C29.6591 23.1999 29.9867 23.6768 30.3998 24.0785C30.8128 24.4802 31.3032 24.7988 31.8428 25.0162C32.3825 25.2335 32.9609 25.3454 33.545 25.3453Z" fill="white"/>
<path d="M48.966 33.5508V33.4997H48.9176L39.577 23.8454L39.5102 23.9063L39.455 23.8454L29.7058 32.2443C29.5955 32.3392 29.5055 32.4543 29.441 32.583C29.3765 32.7117 29.3386 32.8516 29.3297 32.9945C29.3208 33.1375 29.3409 33.2807 29.3889 33.4161C29.4369 33.5515 29.5119 33.6764 29.6095 33.7836L30.4984 34.7602C30.5959 34.8674 30.7143 34.9549 30.8467 35.0177C30.9791 35.0804 31.1228 35.1172 31.2698 35.1258C31.4168 35.1345 31.5641 35.1149 31.7033 35.0681C31.8425 35.0213 31.9708 34.9483 32.081 34.8533L37.8666 29.8691L44.1934 36.4099L44.1335 50.3419C44.1303 51.12 45.0176 51.7549 46.1153 51.7584L46.8969 51.7625C47.3986 51.7723 47.8909 51.6292 48.3049 51.3533C48.477 51.2453 48.6201 51.0988 48.7221 50.9261C48.8241 50.7533 48.8822 50.5593 48.8914 50.3603L48.9645 33.5518L48.966 33.5508Z" fill="white"/>
<path d="M21.1445 38.8215H21.7904V41.1471C21.7903 41.2635 21.8137 41.3787 21.8594 41.4863C21.9051 41.5938 21.9721 41.6916 22.0567 41.7739C22.1413 41.8562 22.2417 41.9216 22.3522 41.9661C22.4627 42.0107 22.5812 42.0336 22.7009 42.0336H22.8523V46.0029C22.8523 46.2366 22.9473 46.4608 23.1166 46.6267C23.2858 46.7926 23.5157 46.8866 23.7559 46.8884C23.9342 46.8884 24.112 46.8914 24.2572 46.8914C25.0757 46.8924 25.8603 47.2091 26.4391 47.772C27.0178 48.335 27.3432 49.0983 27.3441 49.8943H27.3693V50.8745C27.3692 50.9909 27.3928 51.1061 27.4385 51.2136C27.4843 51.3212 27.5514 51.4189 27.636 51.5012C27.7206 51.5834 27.821 51.6487 27.9316 51.6932C28.0422 51.7377 28.1606 51.7606 28.2803 51.7605H32.1893C32.4309 51.7605 32.6626 51.6672 32.8334 51.501C33.0043 51.3348 33.1002 51.1095 33.1002 50.8745V49.3485V42.0331H33.2533C33.3729 42.033 33.4914 42.0101 33.6019 41.9655C33.7123 41.9209 33.8127 41.8556 33.8973 41.7732C33.9818 41.6909 34.0489 41.5932 34.0946 41.4857C34.1403 41.3782 34.1638 41.2629 34.1637 41.1466V38.8215H34.8086V37.8859H21.1445V38.8215Z" fill="white"/>
<path d="M24.2567 47.4818C23.7663 47.482 23.2869 47.6236 22.8793 47.8887C22.4716 48.1539 22.1539 48.5306 21.9664 48.9713C21.7788 49.4121 21.7298 49.897 21.8256 50.3648C21.9213 50.8326 22.1576 51.2623 22.5044 51.5995C22.8512 51.9368 23.293 52.1664 23.774 52.2595C24.255 52.3525 24.7536 52.3048 25.2067 52.1223C25.6597 51.9397 26.047 51.6307 26.3195 51.2341C26.5921 50.8375 26.7376 50.3713 26.7377 49.8943C26.7377 49.5774 26.6735 49.2637 26.5488 48.9709C26.4241 48.6782 26.2414 48.4122 26.011 48.1882C25.7806 47.9642 25.5071 47.7865 25.2061 47.6652C24.9051 47.544 24.5825 47.4817 24.2567 47.4818ZM24.2567 51.1241C24.0061 51.1247 23.761 51.053 23.5525 50.9179C23.3439 50.7829 23.1812 50.5907 23.085 50.3657C22.9888 50.1407 22.9635 49.8929 23.0122 49.6539C23.061 49.4149 23.1816 49.1953 23.3587 49.0229C23.5359 48.8506 23.7617 48.7333 24.0074 48.6859C24.2532 48.6386 24.5079 48.6632 24.7393 48.7567C24.9706 48.8503 25.1683 49.0085 25.3071 49.2114C25.4459 49.4143 25.5196 49.6526 25.519 49.8963C25.519 50.222 25.386 50.5342 25.1493 50.7645C24.9126 50.9947 24.5915 51.1241 24.2567 51.1241Z" fill="white"/>
<path d="M26.3383 33.0751L31.2471 28.6419L28.9728 28.2699C28.8388 28.2476 28.7013 28.2555 28.5709 28.293C28.4405 28.3305 28.3207 28.3966 28.2207 28.4863L27.8346 28.8357L27.306 28.6664C27.2065 28.6261 27.0976 28.6128 26.9909 28.628C26.8842 28.6431 26.7837 28.6861 26.7001 28.7523L24.2896 30.9285L21.8797 33.1063C21.8056 33.1824 21.7541 33.2767 21.7309 33.3791C21.7076 33.4814 21.7134 33.588 21.7477 33.6874L21.8818 34.2123L21.4947 34.5617C21.3953 34.6519 21.3185 34.7631 21.2704 34.8868C21.2222 35.0104 21.204 35.1432 21.217 35.2748L21.4274 37.5083L26.3383 33.0751Z" fill="white"/>
<path d="M29.4821 37.2101C29.6551 37.2102 29.8242 37.1604 29.9681 37.067C30.112 36.9736 30.2242 36.8408 30.2905 36.6854C30.3568 36.53 30.3742 36.3589 30.3406 36.1939C30.3069 36.0288 30.2237 35.8772 30.1015 35.7581C29.9792 35.6391 29.8234 35.558 29.6538 35.5251C29.4841 35.4921 29.3082 35.5089 29.1484 35.5732C28.9885 35.6375 28.8518 35.7464 28.7556 35.8863C28.6594 36.0261 28.608 36.1906 28.6079 36.3588C28.6078 36.4705 28.6304 36.5812 28.6743 36.6844C28.7182 36.7877 28.7826 36.8815 28.8637 36.9605C28.9449 37.0396 29.0413 37.1023 29.1474 37.1451C29.2535 37.1879 29.3672 37.21 29.4821 37.2101Z" fill="white"/>
<path d="M28.2907 33.8992C28.1798 33.8992 28.0714 33.9312 27.9792 33.9911C27.887 34.0511 27.8151 34.1362 27.7727 34.2359C27.7302 34.3355 27.7191 34.4452 27.7408 34.5509C27.7624 34.6567 27.8158 34.7539 27.8942 34.8302C27.9726 34.9064 28.0725 34.9584 28.1813 34.9794C28.29 35.0005 28.4028 34.9897 28.5052 34.9484C28.6077 34.9071 28.6952 34.8372 28.7568 34.7475C28.8185 34.6578 28.8513 34.5524 28.8513 34.4446C28.8513 34.2999 28.7923 34.1612 28.6871 34.059C28.582 33.9567 28.4394 33.8992 28.2907 33.8992Z" fill="white"/>
<path d="M26.6084 36.3588C26.6084 36.4667 26.6413 36.5721 26.7029 36.6618C26.7645 36.7515 26.8521 36.8214 26.9545 36.8626C27.057 36.9039 27.1697 36.9147 27.2785 36.8937C27.3872 36.8726 27.4871 36.8207 27.5655 36.7444C27.6439 36.6681 27.6973 36.571 27.719 36.4652C27.7406 36.3594 27.7295 36.2498 27.6871 36.1501C27.6447 36.0505 27.5728 35.9653 27.4806 35.9054C27.3884 35.8455 27.28 35.8135 27.1691 35.8135C27.0954 35.8133 27.0224 35.8274 26.9544 35.8547C26.8863 35.8821 26.8244 35.9222 26.7723 35.9729C26.7202 36.0236 26.6789 36.0837 26.6508 36.15C26.6227 36.2162 26.6083 36.2872 26.6084 36.3588Z" fill="white"/>
</g>
<defs>
<clipPath id="clip0">
<rect width="27.8219" height="35.6121" fill="white" transform="translate(21.1445 16.6932)"/>
</clipPath>
</defs>
</svg>
