<svg width="11" height="10" viewBox="0 0 11 10" fill="none" xmlns="http://www.w3.org/2000/svg">
<path d="M0.549668 6.72421L2.33431 7.37542C2.366 7.38692 2.39834 7.39655 2.43116 7.40427C2.49465 7.41925 2.55965 7.42686 2.62488 7.42694C2.82688 7.42715 3.02207 7.35391 3.17408 7.22086L4.66608 6.12246L5.35748 7.00242L4.53934 8.78706C4.45866 8.95563 4.43513 9.14591 4.47232 9.32906C4.50951 9.5122 4.60538 9.67824 4.74542 9.80199C4.84868 9.8901 4.9717 9.95196 5.104 9.98231C5.13796 9.98998 5.17238 9.99548 5.20704 9.9988C5.23724 10.0004 5.26751 10.0004 5.29771 9.9988C5.45776 9.99861 5.61444 9.95275 5.74932 9.8666C5.88421 9.78045 5.9917 9.65759 6.05917 9.51245L6.95664 7.55471C7.05436 7.34168 7.10166 7.10899 7.09487 6.87471C7.08808 6.64044 7.02738 6.41088 6.91749 6.20386L6.29925 5.03849L6.7279 4.2894L6.88349 4.60779C6.92652 4.71882 6.9959 4.81772 7.08565 4.89598C7.1754 4.97424 7.28283 5.02951 7.39868 5.05704C7.42135 5.06219 7.44608 5.06631 7.46772 5.0694L9.21938 5.29712C9.31937 5.3117 9.4213 5.3051 9.51857 5.27777C9.61584 5.25043 9.70628 5.20296 9.78404 5.13844C9.86187 5.07559 9.92599 4.99744 9.97242 4.90882C10.0189 4.82021 10.0466 4.72301 10.054 4.62324C10.0633 4.43215 10.0001 4.24458 9.87708 4.09806C9.75405 3.95154 9.58025 3.85685 9.39043 3.83293L8.09729 3.66601L7.75211 2.81491C7.72319 2.74363 7.68874 2.67473 7.64907 2.60883C7.91474 2.59343 8.16936 2.49722 8.37882 2.33307C8.58829 2.16892 8.74258 1.94468 8.82103 1.69039C8.89949 1.43609 8.89836 1.1639 8.81779 0.91027C8.73722 0.65664 8.58107 0.433689 8.37025 0.271287C8.15944 0.108884 7.90402 0.0147879 7.63823 0.00160365C7.37244 -0.0115806 7.10896 0.0567774 6.88311 0.197519C6.65725 0.338261 6.4798 0.544664 6.37453 0.789076C6.26926 1.03349 6.2412 1.30423 6.2941 1.56504C6.27945 1.56567 6.26489 1.56247 6.25186 1.55577C5.7101 1.26477 5.14313 1.02337 4.55789 0.834493L4.41055 0.786064C4.28263 0.744502 4.14574 0.738956 4.01487 0.770036C3.88401 0.801115 3.76423 0.86762 3.66866 0.962261L2.42292 2.19358C2.28541 2.32547 2.20332 2.5048 2.19337 2.69508C2.18341 2.88535 2.24634 3.07227 2.36934 3.21779C2.43547 3.29383 2.51647 3.35552 2.60735 3.39905C2.69824 3.44258 2.79708 3.46703 2.89777 3.47089C2.99847 3.47475 3.09889 3.45794 3.19284 3.4215C3.28679 3.38506 3.37228 3.32976 3.44404 3.259L4.35903 2.35638L4.79488 2.58513L4.07361 3.68662L4.06742 3.69692C3.95779 3.88702 3.8877 4.0973 3.86135 4.31516L2.43013 5.6186L1.14626 5.1508C0.948414 5.07838 0.730869 5.08108 0.534873 5.15837C0.338877 5.23567 0.178056 5.3822 0.0829002 5.57017C0.0318509 5.67592 0.00371799 5.79125 0.000344184 5.90863C-0.00302962 6.026 0.0184318 6.14276 0.0633227 6.25126C0.107201 6.35949 0.173091 6.45741 0.256812 6.53883C0.340534 6.62024 0.44026 6.68337 0.549668 6.72421Z" fill="#92C967"/>
</svg>
