<svg width="50" height="24" viewBox="0 0 50 24" fill="none" xmlns="http://www.w3.org/2000/svg">
<path d="M50 11.6657L43.3093 5.0043L38.3813 5H38.3313V1.66688C38.3313 0.746485 37.5854 0 36.665 0H18.335C17.4146 0 16.6688 0.746485 16.6688 1.66688H0.83375C0.373516 1.66695 0 2.03984 0 2.50008C0 2.96031 0.373516 3.3332 0.83375 3.3332H16.6688L16.6675 6.66695H3.5C3.03977 6.66695 2.6675 7.0393 2.6675 7.49945C2.6675 7.95961 3.03977 8.3332 3.5 8.3332H16.6675V11.667H7.1675C6.70727 11.667 6.33375 12.0393 6.33375 12.4995C6.33375 12.9596 6.70727 13.3332 7.1675 13.3332H16.6675V16.6657H10.8337C10.3735 16.6657 10 17.0393 10 17.4995C10 17.9596 10.3735 18.3332 10.8337 18.3332H16.6675C16.6675 19.2536 17.4134 19.9995 18.3337 19.9995H20.0842C20.47 21.9013 22.1509 23.3332 24.1663 23.3332C26.1828 23.3332 27.8638 21.9013 28.2495 19.9995H36.6638H39.2505C39.6362 21.9013 41.3171 23.3332 43.3325 23.3332C45.3491 23.3332 47.03 21.9013 47.4158 19.9995H49.9829L50 11.6657ZM24.1663 21.6657C22.788 21.6657 21.6675 20.5451 21.6675 19.1657C21.6675 17.7875 22.7881 16.6657 24.1663 16.6657C25.5456 16.6657 26.6663 17.7875 26.6663 19.1657C26.6663 20.5452 25.5456 21.6657 24.1663 21.6657ZM36.6638 18.3332H28.2495C27.8638 16.4313 26.1829 14.9995 24.1663 14.9995C22.1509 14.9995 20.47 16.4313 20.0842 18.3332H18.3337L18.335 1.66695H36.6651L36.6638 18.3332ZM43.3325 21.6657C41.9543 21.6657 40.8325 20.5451 40.8325 19.1657C40.8325 17.7875 41.9543 16.6657 43.3325 16.6657C44.7119 16.6657 45.8325 17.7875 45.8325 19.1657C45.8325 20.5452 44.7119 21.6657 43.3325 21.6657ZM48.3203 18.3332H47.4158C47.03 16.4313 45.3491 14.9995 43.3325 14.9995C41.3171 14.9995 39.6362 16.4313 39.2505 18.3332H38.3301L38.3313 6.66695H38.3789L42.6209 6.67062L48.3325 12.3579L48.3203 18.3332Z" fill="#878787"/>
</svg>
