<svg width="14" height="13" viewBox="0 0 14 13" fill="none" xmlns="http://www.w3.org/2000/svg">
<path d="M10 1C11.6545 1 13 2.3455 13 4C13 8.486 8.3895 11.18 6.9985 11.891C5.604 11.1825 1 8.5025 1 4C1 2.3455 2.3455 1 4 1C4.8585 1 5.6775 1.372 6.2495 2.021C6.4395 2.2365 6.713 2.3605 7 2.3605C7.287 2.3605 7.5605 2.2365 7.7505 2.021C8.3225 1.372 9.1415 1 10 1ZM10 0C8.8035 0 7.733 0.528 7 1.3605C6.267 0.528 5.1965 0 4 0C1.791 0 0 1.791 0 4C0 10 7 13 7 13C7 13 14 10 14 4C14 1.791 12.209 0 10 0Z" fill="#878787"/>
</svg>
