<svg width="24" height="24" viewBox="0 0 24 24" fill="none" xmlns="http://www.w3.org/2000/svg">
<path fill-rule="evenodd" clip-rule="evenodd" d="M9.85506 13C9.42479 14.4457 8.08551 15.5 6.5 15.5C4.91449 15.5 3.57521 14.4457 3.14494 13H1.00069C0.448026 13 0 12.5561 0 12C0 11.4477 0.447469 11 1.00069 11H3.14494C3.57521 9.55426 4.91449 8.5 6.5 8.5C8.08551 8.5 9.42479 9.55426 9.85506 11H22.9993C23.552 11 24 11.4439 24 12C24 12.5523 23.5525 13 22.9993 13H9.85506ZM14.1449 19.5C14.5752 18.0543 15.9145 17 17.5 17C19.0855 17 20.4248 18.0543 20.8551 19.5H22.9993C23.552 19.5 24 19.9439 24 20.5C24 21.0523 23.5525 21.5 22.9993 21.5H20.8551C20.4248 22.9457 19.0855 24 17.5 24C15.9145 24 14.5752 22.9457 14.1449 21.5H1.00069C0.448026 21.5 0 21.0561 0 20.5C0 19.9477 0.447469 19.5 1.00069 19.5H14.1449ZM14.1449 2.5C14.5752 1.05426 15.9145 0 17.5 0C19.0855 0 20.4248 1.05426 20.8551 2.5H22.9993C23.552 2.5 24 2.94386 24 3.5C24 4.05228 23.5525 4.5 22.9993 4.5H20.8551C20.4248 5.94574 19.0855 7 17.5 7C15.9145 7 14.5752 5.94574 14.1449 4.5H1.00069C0.448026 4.5 0 4.05614 0 3.5C0 2.94772 0.447469 2.5 1.00069 2.5H14.1449ZM17.5 5C18.3284 5 19 4.32843 19 3.5C19 2.67157 18.3284 2 17.5 2C16.6716 2 16 2.67157 16 3.5C16 4.32843 16.6716 5 17.5 5ZM17.5 22C18.3284 22 19 21.3284 19 20.5C19 19.6716 18.3284 19 17.5 19C16.6716 19 16 19.6716 16 20.5C16 21.3284 16.6716 22 17.5 22ZM6.5 10.5C5.67157 10.5 5 11.1716 5 12C5 12.8284 5.67157 13.5 6.5 13.5C7.32843 13.5 8 12.8284 8 12C8 11.1716 7.32843 10.5 6.5 10.5Z" fill="#878787" fill-opacity="0.5"/>
</svg>
