<svg width="26" height="26" viewBox="0 0 26 26" fill="none" xmlns="http://www.w3.org/2000/svg">
<path d="M13.0001 9.79053C11.2305 9.79053 9.79071 11.2303 9.79071 12.9999C9.79071 14.7695 11.2305 16.2093 13.0001 16.2093C14.7698 16.2093 16.2094 14.7695 16.2094 12.9999C16.2094 11.2303 14.7698 9.79053 13.0001 9.79053ZM13.0001 14.6858C12.0705 14.6858 11.3141 13.9295 11.3141 12.9999C11.3141 12.0703 12.0705 11.314 13.0001 11.314C13.9297 11.314 14.686 12.0703 14.686 12.9999C14.686 13.9295 13.9298 14.6858 13.0001 14.6858Z" fill="white"/>
<path d="M22.1922 3.80763C19.7368 1.35225 16.4722 0 13 0C9.52763 0 6.263 1.35225 3.80763 3.80768C1.35225 6.263 0 9.52758 0 13C0 15.4876 0.705047 17.9056 2.03897 19.9924C3.21765 21.8364 4.83504 23.3487 6.74279 24.3976C6.67921 24.6379 6.62919 24.8824 6.59369 25.1304C6.56241 25.349 6.62756 25.5704 6.77224 25.7373C6.91691 25.9041 7.12689 26 7.34774 26H18.6522C18.8731 26 19.083 25.9041 19.2277 25.7373C19.3724 25.5704 19.4375 25.349 19.4063 25.1304C19.3708 24.8824 19.3207 24.6378 19.2572 24.3975C21.165 23.3487 22.7823 21.8364 23.961 19.9924C25.295 17.9056 26 15.4877 26 13C26 9.52763 24.6477 6.26305 22.1922 3.80763ZM8.30893 24.4766C8.97513 22.504 10.8568 21.1047 13 21.1047C15.1432 21.1047 17.0248 22.504 17.691 24.4766H8.30893ZM6.41875 13C6.41875 9.37107 9.37112 6.41875 13.0001 6.41875C16.6289 6.41875 19.5813 9.37107 19.5813 13C19.5813 16.6289 16.6289 19.5813 13 19.5813C9.37112 19.5813 6.41875 16.6289 6.41875 13ZM18.6903 22.9696C18.3261 22.2984 17.8428 21.6908 17.258 21.1794C16.9345 20.8965 16.5858 20.6488 16.2178 20.4379C19.0903 19.1903 21.1047 16.3262 21.1047 13C21.1047 8.53105 17.469 4.89531 13 4.89531C8.5311 4.89536 4.89531 8.53105 4.89531 13C4.89531 16.3262 6.90965 19.1903 9.78225 20.4379C9.41423 20.6488 9.06552 20.8965 8.74204 21.1794C8.15725 21.6908 7.67391 22.2984 7.30971 22.9696C3.72145 20.9275 1.52344 17.1749 1.52344 13C1.52344 6.67179 6.67179 1.52344 13 1.52344C19.3282 1.52344 24.4766 6.67179 24.4766 13C24.4766 17.1749 22.2785 20.9275 18.6903 22.9696Z" fill="white"/>
</svg>
