<svg width="35" height="35" viewBox="0 0 35 35" fill="none" xmlns="http://www.w3.org/2000/svg">
<path d="M17.5 35C27.165 35 35 27.165 35 17.5C35 7.83502 27.165 0 17.5 0C7.83502 0 0 7.83502 0 17.5C0 27.165 7.83502 35 17.5 35Z" fill="#273B7A"/>
<path d="M21.0851 34.6318C27.8685 33.2195 33.2111 27.8803 34.6288 21.0989L25.6043 12.0544L15.462 18.9582L16.666 20.1622L9.37671 22.926L21.0851 34.6318Z" fill="#121149" fill-opacity="0.49"/>
<path d="M24.5094 11.5884H10.4904C9.65104 11.5884 8.96484 12.2753 8.96484 13.1141V21.8864C8.96484 22.7246 9.65097 23.4117 10.4904 23.4117H24.5094C25.3487 23.4117 26.035 22.7247 26.035 21.8864V13.1142C26.035 12.2755 25.3487 11.5884 24.5094 11.5884Z" fill="url(#paint0_linear)"/>
<path d="M17.4365 19.8103L11.0815 23.2515L11.0919 23.4117L17.5106 19.9519L17.4365 19.8103Z" fill="#B5B4B0"/>
<path d="M24.6387 13.0469L20.5668 16.1825L17.5105 19.9521L23.7247 23.4119H24.5092C25.0726 23.4119 25.566 23.1019 25.8304 22.6442L25.3043 19.1489L24.6387 13.0469Z" fill="#B5B4B0"/>
<path d="M17.5107 19.9519L26.035 13.3521V13.1141C26.035 12.2753 25.3488 11.5884 24.5094 11.5884H24.17L17.714 17.0994L10.9973 11.5884H10.4904C9.65104 11.5884 8.96484 12.2753 8.96484 13.1141V21.8864C8.96484 22.7246 9.65097 23.4117 10.4904 23.4117H11.092V14.8577L17.5107 19.9519Z" fill="#DD4B40"/>
<path d="M26.0352 21.8864V13.3521L23.7251 15.1406V23.4117H24.5096C25.3489 23.4118 26.0352 22.7247 26.0352 21.8864Z" fill="#A43026"/>
<defs>
<linearGradient id="paint0_linear" x1="8.96485" y1="17.5002" x2="21.8924" y2="17.5002" gradientUnits="userSpaceOnUse">
<stop stop-color="#F3F1E8"/>
<stop offset="1" stop-color="#E3E0D0"/>
</linearGradient>
</defs>
</svg>
