<svg width="18" height="18" viewBox="0 0 18 18" fill="none" xmlns="http://www.w3.org/2000/svg">
<g clip-path="url(#clip0)">
<path d="M8.99895 5.625L8.99731 9.56032C8.99731 9.70974 9.05663 9.85257 9.16212 9.95802L11.9773 12.7727L12.7728 11.9773L10.1223 9.32739L10.1239 5.625H8.99895Z" fill="#878787" fill-opacity="0.7"/>
<path d="M10.125 1.125C6.16562 1.125 2.88873 4.06549 2.33991 7.87501H0L2.8125 10.6875L5.625 7.87501H3.47661C4.01475 4.68773 6.78688 2.25001 10.125 2.25001C13.8472 2.25001 16.875 5.27784 16.875 9.00002C16.875 12.7222 13.8472 15.75 10.125 15.75C8.03267 15.75 6.09249 14.803 4.80212 13.1517L3.91553 13.8439C5.42064 15.7698 7.68383 16.875 10.125 16.875C14.4673 16.875 18 13.3418 18 9.00002C18 4.65824 14.4673 1.12503 10.125 1.125Z" fill="#878787" fill-opacity="0.7"/>
</g>
<defs>
<clipPath id="clip0">
<rect width="18" height="18" fill="white"/>
</clipPath>
</defs>
</svg>
