<svg width="24" height="24" viewBox="0 0 24 24" fill="none" xmlns="http://www.w3.org/2000/svg">
<path d="M3.36116 18.5964C3.45077 18.6783 3.51257 18.7862 3.53795 18.9049C3.56333 19.0236 3.55102 19.1473 3.50273 19.2587C3.35396 19.6162 3.22679 19.9785 3.04442 20.3217C2.60291 21.1447 1.93824 21.7614 1.26877 22.3781C0.961625 22.6708 0.635288 22.9636 0.349743 23.2755C0.064198 23.5875 0.136184 23.7266 0.532108 23.8274C0.970428 23.9393 1.42107 23.9958 1.87345 23.9954C2.45414 23.9866 3.03267 23.9224 3.60112 23.8034C5.52075 23.4267 7.34439 22.69 9.12005 21.8502C9.26911 21.7753 9.43317 21.7351 9.59996 21.7326C9.65784 21.7328 9.71561 21.7376 9.77273 21.747C10.5129 21.8673 11.2616 21.9283 12.0115 21.9294C12.9994 21.9343 13.9845 21.8224 14.9461 21.5958C18.1351 20.8304 20.7218 19.1291 22.5023 16.2449C23.7921 14.1967 24.2729 11.7416 23.8508 9.3582C23.3565 6.38277 21.7896 4.09121 19.4381 2.39954C17.3231 0.845181 14.7681 0.00472717 12.1435 0C11.5196 0.0407921 10.8909 0.0455912 10.2718 0.131975C7.58915 0.501503 5.20161 1.5717 3.22919 3.50332C1.37914 5.32217 0.241764 7.52495 0.0354036 10.1908C-0.169397 12.6149 0.519331 15.0301 1.97183 16.9815C2.40671 17.5435 2.87044 18.0825 3.36116 18.5964ZM1.47033 10.3036C1.64549 8.07684 2.55012 6.18841 4.23699 4.53033C5.92387 2.87225 7.95868 1.89084 10.4758 1.5573C10.8357 1.50691 11.222 1.49011 11.63 1.46852L12.1843 1.43972C14.4882 1.45563 16.7288 2.19605 18.5886 3.55611C20.7482 5.12301 22.0176 7.09543 22.4279 9.58855C22.7912 11.6305 22.3797 13.7345 21.2737 15.489C19.7596 17.9437 17.5808 19.4818 14.6078 20.1921C13.7618 20.3925 12.8953 20.4931 12.0259 20.492C11.3523 20.4902 10.6799 20.4348 10.0151 20.3265C9.50413 20.2432 8.97993 20.3212 8.51537 20.5496C7.12124 21.2095 5.27119 22.0134 3.33717 22.3901H3.31317C3.70537 21.9714 4.04391 21.5055 4.32098 21.0031C4.47275 20.7097 4.60735 20.4076 4.7241 20.0985C4.76249 20.0025 4.79849 19.909 4.83928 19.8154C4.9939 19.4539 5.03903 19.055 4.96907 18.6681C4.89912 18.2813 4.71716 17.9234 4.44575 17.639C4.32098 17.4998 4.2058 17.3631 4.06903 17.2239C3.74141 16.8811 3.43376 16.5198 3.1476 16.1417C1.88722 14.4693 1.28981 12.3899 1.47033 10.3036Z" fill="black"/>
<path d="M11.985 13.3774C12.2584 13.3802 12.5266 13.3017 12.7554 13.1519C12.9842 13.002 13.1633 12.7875 13.2699 12.5357C13.3765 12.2838 13.4059 12.006 13.3543 11.7374C13.3027 11.4688 13.1725 11.2216 12.9801 11.0272C12.7877 10.8328 12.5419 10.7 12.2739 10.6456C12.0058 10.5912 11.7277 10.6176 11.4747 10.7216C11.2218 10.8256 11.0054 11.0024 10.8532 11.2296C10.7009 11.4568 10.6196 11.7241 10.6196 11.9976C10.6227 12.3601 10.7671 12.7071 11.0221 12.9648C11.277 13.2225 11.6225 13.3705 11.985 13.3774Z" fill="black"/>
<path d="M7.13371 13.375C7.407 13.3764 7.67455 13.2966 7.90245 13.1458C8.13034 12.995 8.3083 12.7798 8.41377 12.5277C8.51923 12.2756 8.54744 11.9978 8.49483 11.7296C8.44221 11.4615 8.31114 11.2149 8.11822 11.0214C7.92531 10.8278 7.67926 10.6958 7.41126 10.6423C7.14327 10.5887 6.86541 10.616 6.61292 10.7206C6.36042 10.8251 6.14468 11.0024 5.99304 11.2297C5.8414 11.4571 5.7607 11.7244 5.76117 11.9977C5.76117 12.3621 5.90562 12.7117 6.16289 12.9699C6.42015 13.228 6.76925 13.3737 7.13371 13.375Z" fill="black"/>
<path d="M16.8656 13.3774C17.1388 13.3789 17.4063 13.2991 17.6341 13.1484C17.862 12.9977 18.0399 12.7827 18.1455 12.5307C18.251 12.2787 18.2794 12.0011 18.2269 11.733C18.1745 11.4648 18.0437 11.2183 17.851 11.0247C17.6583 10.831 17.4125 10.6988 17.1447 10.645C16.8768 10.5912 16.599 10.6181 16.3465 10.7223C16.094 10.8265 15.8781 11.0034 15.7261 11.2304C15.5742 11.4575 15.4931 11.7245 15.4931 11.9977C15.4931 12.3624 15.6375 12.7122 15.8947 12.9708C16.1519 13.2293 16.501 13.3755 16.8656 13.3774Z" fill="black"/>
</svg>
