<svg width="24" height="24" viewBox="0 0 24 24" fill="none" xmlns="http://www.w3.org/2000/svg">
<path d="M10.3056 23.6668H1.54799C1.22585 23.6668 0.916899 23.5389 0.689109 23.3112C0.461319 23.0836 0.333348 22.7748 0.333348 22.4528V13.7401H9.09098C9.41313 13.7401 9.72208 13.868 9.94987 14.0956C10.1777 14.3233 10.3056 14.6321 10.3056 14.9541V23.6668ZM1.14311 14.5494V22.4528C1.14311 22.5601 1.18577 22.6631 1.2617 22.7389C1.33763 22.8148 1.44061 22.8575 1.54799 22.8575H9.49587V14.9541C9.49587 14.8468 9.45321 14.7438 9.37728 14.6679C9.30135 14.592 9.19837 14.5494 9.09098 14.5494H1.14311ZM22.452 23.6668H13.7996V14.9541C13.7996 14.6321 13.9276 14.3233 14.1554 14.0956C14.3832 13.868 14.6921 13.7401 15.0143 13.7401H23.6667V22.4528C23.6667 22.7748 23.5387 23.0836 23.3109 23.3112C23.0831 23.5389 22.7742 23.6668 22.452 23.6668ZM14.6094 22.8575H22.452C22.5594 22.8575 22.6624 22.8148 22.7383 22.7389C22.8142 22.6631 22.8569 22.5601 22.8569 22.4528V14.5494H15.0143C14.9069 14.5494 14.8039 14.592 14.728 14.6679C14.6521 14.7438 14.6094 14.8468 14.6094 14.9541V22.8575ZM9.09098 10.2599H0.333348V1.54721C0.333348 1.22523 0.461319 0.916435 0.689109 0.68876C0.916899 0.461085 1.22585 0.333179 1.54799 0.333179H10.3056V9.04592C10.3056 9.20535 10.2742 9.36322 10.2132 9.51051C10.1521 9.6578 10.0627 9.79163 9.94987 9.90437C9.83708 10.0171 9.70318 10.1065 9.55581 10.1675C9.40844 10.2285 9.25049 10.2599 9.09098 10.2599ZM1.14311 9.45059H9.09098C9.19837 9.45059 9.30135 9.40796 9.37728 9.33207C9.45321 9.25618 9.49587 9.15325 9.49587 9.04592V1.14253H1.54799C1.44061 1.14253 1.33763 1.18517 1.2617 1.26106C1.18577 1.33695 1.14311 1.43988 1.14311 1.54721V9.45059ZM23.6667 10.2599H15.0143C14.6921 10.2599 14.3832 10.132 14.1554 9.90437C13.9276 9.67669 13.7996 9.3679 13.7996 9.04592V0.333179H22.452C22.7742 0.333179 23.0831 0.461085 23.3109 0.68876C23.5387 0.916435 23.6667 1.22523 23.6667 1.54721V10.2599ZM14.6094 1.14253V9.04592C14.6094 9.15325 14.6521 9.25618 14.728 9.33207C14.8039 9.40796 14.9069 9.45059 15.0143 9.45059H22.8569V1.54721C22.8569 1.43988 22.8142 1.33695 22.7383 1.26106C22.6624 1.18517 22.5594 1.14253 22.452 1.14253H14.6094Z" fill="black"/>
<path fill-rule="evenodd" clip-rule="evenodd" d="M10.639 24H1.54799C1.13744 24 0.743701 23.837 0.453396 23.5468C0.163092 23.2567 0 22.8631 0 22.4528V13.4069H9.09098C9.50154 13.4069 9.89528 13.5699 10.1856 13.86C10.4759 14.1502 10.639 14.5437 10.639 14.9541V24ZM13.4663 24V14.9541C13.4663 14.5437 13.6294 14.1502 13.9197 13.86C14.21 13.5699 15.6037 13.4069 16.0143 13.4069H24V22.4528C24 22.8631 23.8369 23.2567 23.5466 23.5468C23.2563 23.837 22.8626 24 22.452 24H13.4663ZM0 10.5931V1.54721C0 1.13686 0.163092 0.743325 0.453396 0.453167C0.743701 0.163009 1.13744 0 1.54799 0H10.639V9.04592C10.639 9.2491 10.5989 9.45029 10.5211 9.63801C10.4433 9.82573 10.3293 9.99629 10.1856 10.14C10.0418 10.2836 9.87119 10.3976 9.68338 10.4754C9.49556 10.5531 9.29427 10.5931 9.09098 10.5931H0ZM24 10.5931H15.0143C14.6037 10.5931 14.21 10.4301 13.9197 10.14C13.6294 9.8498 13.4663 9.45627 13.4663 9.04592V0H22.452C22.8626 0 23.2563 0.163009 23.5466 0.453167C23.8369 0.743325 24 1.13686 24 1.54721V10.5931ZM1.47646 14.8826V22.4528C1.47646 22.4718 1.48399 22.4899 1.49741 22.5033C1.51082 22.5168 1.52902 22.5243 1.54799 22.5243H9.16252V14.9541C9.16252 14.9351 9.15498 14.9169 9.14157 14.9035C9.12815 14.8901 9.10996 14.8826 9.09098 14.8826H1.47646ZM1.14311 22.4528C1.14311 22.5601 1.18577 22.6631 1.2617 22.7389C1.33763 22.8148 1.44061 22.8575 1.54799 22.8575H9.49587V14.9541C9.49587 14.8468 9.45321 14.7438 9.37728 14.6679C9.30135 14.592 9.19837 14.5494 9.09098 14.5494H1.14311V22.4528ZM14.9428 22.5243H22.452C22.471 22.5243 22.4892 22.5168 22.5026 22.5033C22.516 22.4899 22.5235 22.4718 22.5235 22.4528V14.8826H15.0143C14.9953 14.8826 14.9771 14.8901 14.9637 14.9035C14.9503 14.9169 14.9428 14.9351 14.9428 14.9541V22.5243ZM22.452 22.8575C22.5594 22.8575 22.6624 22.8148 22.7383 22.7389C22.8142 22.6631 22.8569 22.5601 22.8569 22.4528V14.5494H15.0143C14.9069 14.5494 14.8039 14.592 14.728 14.6679C14.6521 14.7438 14.6094 14.8468 14.6094 14.9541V22.8575H22.452ZM1.47646 9.11742H9.09098C9.10996 9.11742 9.12815 9.10988 9.14157 9.09648C9.15498 9.08307 9.16252 9.06488 9.16252 9.04592V1.47571H1.54799C1.52902 1.47571 1.51082 1.48324 1.49741 1.49665C1.48399 1.51006 1.47646 1.52825 1.47646 1.54721V9.11742ZM1.14311 9.45059V1.54721C1.14311 1.43988 1.18577 1.33695 1.2617 1.26106C1.33763 1.18517 1.44061 1.14253 1.54799 1.14253H9.49587V9.04592C9.49587 9.15325 9.45321 9.25618 9.37728 9.33207C9.30135 9.40796 9.19837 9.45059 9.09098 9.45059H1.14311ZM14.9428 1.47571V9.04592C14.9428 9.06488 14.9503 9.08307 14.9637 9.09648C14.9771 9.10988 14.9953 9.11742 15.0143 9.11742H22.5235V1.54721C22.5235 1.52825 22.516 1.51006 22.5026 1.49665C22.4892 1.48324 22.471 1.47571 22.452 1.47571H14.9428ZM14.6094 9.04592C14.6094 9.15325 14.6521 9.25618 14.728 9.33207C14.8039 9.40796 14.9069 9.45059 15.0143 9.45059H22.8569V1.54721C22.8569 1.43988 22.8142 1.33695 22.7383 1.26106C22.6624 1.18517 22.5594 1.14253 22.452 1.14253H14.6094V9.04592ZM10.3056 23.6668V14.9541C10.3056 14.6321 10.1777 14.3233 9.94987 14.0956C9.72208 13.868 9.41313 13.7401 9.09098 13.7401H0.333348V22.4528C0.333348 22.7748 0.461319 23.0836 0.689109 23.3112C0.916899 23.5389 1.22585 23.6668 1.54799 23.6668H10.3056ZM22.452 23.6668C22.7742 23.6668 23.0831 23.5389 23.3109 23.3112C23.5387 23.0836 23.6667 22.7748 23.6667 22.4528V13.7401H15.0143C14.6921 13.7401 14.3832 13.868 14.1554 14.0956C13.9276 14.3233 13.7996 14.6321 13.7996 14.9541V23.6668H22.452ZM9.09098 10.2599C9.25049 10.2599 9.40844 10.2285 9.55581 10.1675C9.70318 10.1065 9.83708 10.0171 9.94987 9.90437C10.0627 9.79163 10.1521 9.6578 10.2132 9.51051C10.2742 9.36322 10.3056 9.20535 10.3056 9.04592V0.333179H1.54799C1.22585 0.333179 0.916899 0.461085 0.689109 0.68876C0.461319 0.916435 0.333348 1.22523 0.333348 1.54721V10.2599H9.09098ZM23.6667 10.2599V1.54721C23.6667 1.22523 23.5387 0.916435 23.3109 0.68876C23.0831 0.461085 22.7742 0.333179 22.452 0.333179H13.7996V9.04592C13.7996 9.3679 13.9276 9.67669 14.1554 9.90437C14.3832 10.132 14.6921 10.2599 15.0143 10.2599H23.6667Z" fill="black"/>
</svg>
