<svg width="22" height="20" viewBox="0 0 22 20" fill="none" xmlns="http://www.w3.org/2000/svg">
<path d="M19.6754 7.39397V18.2977C19.6754 18.6871 19.3725 19.0332 18.9398 19.0332H13.7476C13.3581 19.0332 13.012 18.6871 13.012 18.2977V12.6727H8.94474V18.2977C8.94474 18.6871 8.64186 19.0332 8.20918 19.0332H3.01694C2.62753 19.0332 2.28138 18.6871 2.28138 18.2977V7.39397L1.11313 8.17281C0.810246 8.38915 0.334292 8.30261 0.117949 7.99973C-0.0983944 7.65358 -0.0118572 7.17763 0.334292 6.96129L10.5889 0.124849C10.8486 -0.0482255 11.1947 -0.0482255 11.4543 0.168117L21.6657 6.96129C22.0119 7.17763 22.0984 7.65358 21.8821 7.95646C21.6657 8.30261 21.1898 8.38915 20.8436 8.17281L19.6754 7.39397ZM3.75251 6.44206V17.5621H7.51688V11.9804C7.51688 11.5478 7.81976 11.2449 8.20918 11.2449H13.7476C14.137 11.2449 14.4831 11.5478 14.4831 11.9804V17.5621H18.2042V6.44206L10.9784 1.59598L3.75251 6.44206Z" fill="#263238"/>
</svg>
