<svg width="24" height="23" viewBox="0 0 24 23" fill="none" xmlns="http://www.w3.org/2000/svg">
<path d="M17.1429 1.71429C19.9791 1.71429 22.2857 4.02086 22.2857 6.85714C22.2857 14.5474 14.382 19.1657 11.9974 20.3846C9.60686 19.17 1.71429 14.5757 1.71429 6.85714C1.71429 4.02086 4.02086 1.71429 6.85714 1.71429C8.32886 1.71429 9.73286 2.352 10.7134 3.46457C11.0391 3.834 11.508 4.04657 12 4.04657C12.492 4.04657 12.9609 3.834 13.2866 3.46457C14.2671 2.352 15.6711 1.71429 17.1429 1.71429ZM17.1429 0C15.0917 0 13.2566 0.905143 12 2.33229C10.7434 0.905143 8.90829 0 6.85714 0C3.07029 0 0 3.07029 0 6.85714C0 17.1429 12 22.2857 12 22.2857C12 22.2857 24 17.1429 24 6.85714C24 3.07029 20.9297 0 17.1429 0Z" fill="black"/>
</svg>
