<svg width="24" height="24" viewBox="0 0 24 24" fill="none" xmlns="http://www.w3.org/2000/svg">
<path d="M23.8073 22.6775L16.9562 15.8264C18.5587 13.9324 19.3671 11.4923 19.2124 9.01609C19.0578 6.53993 17.952 4.21938 16.1262 2.53952C14.3005 0.859651 11.8961 -0.0495077 9.41563 0.00208132C6.93518 0.0536704 4.57066 1.06201 2.81634 2.81634C1.06201 4.57066 0.0536704 6.93518 0.00208132 9.41564C-0.0495077 11.8961 0.859651 14.3005 2.53952 16.1262C4.21938 17.952 6.53993 19.0578 9.01609 19.2124C11.4923 19.3671 13.9324 18.5587 15.8264 16.9562L22.6775 23.8073C22.8308 23.9386 23.028 24.0072 23.2296 23.9994C23.4313 23.9916 23.6226 23.908 23.7653 23.7653C23.908 23.6226 23.9916 23.4313 23.9994 23.2296C24.0072 23.028 23.9386 22.8308 23.8073 22.6775ZM1.60335 9.62435C1.60335 8.03953 2.07331 6.4903 2.95378 5.17257C3.83426 3.85485 5.08572 2.8278 6.5499 2.22132C8.01408 1.61484 9.62522 1.45615 11.1796 1.76533C12.734 2.07452 14.1617 2.83768 15.2824 3.95831C16.403 5.07895 17.1662 6.50673 17.4753 8.06109C17.7845 9.61546 17.6258 11.2266 17.0194 12.6908C16.4129 14.155 15.3858 15.4064 14.0681 16.2869C12.7504 17.1674 11.2012 17.6373 9.61633 17.6373C7.49116 17.6373 5.45303 16.7931 3.9503 15.2904C2.44758 13.7877 1.60335 11.7495 1.60335 9.62435Z" fill="black"/>
</svg>
