<svg width="26" height="26" viewBox="0 0 26 26" fill="none" xmlns="http://www.w3.org/2000/svg">
<g clip-path="url(#clip0)">
<path d="M14.2186 5.28137C10.6346 5.28137 7.71869 8.19721 7.71869 11.7813C7.71869 12.3032 7.7809 12.8106 7.89759 13.2971L0.535332 20.6594C0.190123 21.0047 0 21.4637 0 21.9519V24.1719C0 25.1799 0.82006 26 1.82811 26H4.04805C4.53641 26 4.99552 25.8098 5.34067 25.4646L12.7028 18.1024C13.1894 18.2191 13.6969 18.2813 14.2186 18.2813C17.8027 18.2813 20.7186 15.3654 20.7186 11.7813C20.7186 8.19721 17.8027 5.28137 14.2186 5.28137ZM4.19155 24.3156C4.15326 24.3539 4.10228 24.375 4.04805 24.375H1.82811C1.71609 24.375 1.62499 24.2839 1.62499 24.1719V21.9519C1.62499 21.8977 1.64611 21.8467 1.68445 21.8083L8.54434 14.9484C9.13223 15.9975 10.0024 16.8678 11.0515 17.4556L4.19155 24.3156ZM14.2186 16.6563C11.5306 16.6563 9.34368 14.4694 9.34368 11.7813C9.34368 9.09324 11.5306 6.90636 14.2186 6.90636C16.9067 6.90636 19.0936 9.09324 19.0936 11.7813C19.0936 14.4694 16.9067 16.6563 14.2186 16.6563Z" fill="white"/>
<path d="M15.4373 12.1875C14.5412 12.1875 13.8123 11.4585 13.8123 10.5625C13.8123 9.66646 14.5412 8.9375 15.4373 8.9375C16.3333 8.9375 17.0623 9.66646 17.0623 10.5625C17.0623 11.4585 16.3333 12.1875 15.4373 12.1875ZM15.4373 10.5625C15.4373 10.5632 15.4373 10.5635 15.4373 10.5636L15.4373 10.5625Z" fill="white"/>
</g>
<defs>
<clipPath id="clip0">
<rect width="26" height="26" fill="white"/>
</clipPath>
</defs>
</svg>
