<svg width="22" height="22" viewBox="0 0 22 22" fill="none" xmlns="http://www.w3.org/2000/svg">
<g clip-path="url(#clip0)">
<path d="M19.3822 5.02193H10.2532L8.72546 0.426159C8.64088 0.1717 8.40286 0 8.1347 0H1.86766C0.837833 0 0 0.837833 0 1.86766V14.3602C0 15.3901 0.837833 16.2279 1.86766 16.2279H8.72808L10.2433 20.8115C10.327 21.0799 10.5753 21.25 10.838 21.25C10.8395 21.25 10.8409 21.2498 10.8424 21.2498H19.3822C20.412 21.2498 21.2499 20.412 21.2499 19.3822V6.88959C21.2498 5.85977 20.412 5.02193 19.3822 5.02193ZM1.86766 14.9828C1.52439 14.9828 1.24511 14.7035 1.24511 14.3602V1.86766C1.24511 1.52438 1.52439 1.24511 1.86766 1.24511H7.68559L12.2521 14.9828C9.91994 14.9828 4.17036 14.9828 1.86766 14.9828ZM12.1493 16.2279L10.9291 18.919L10.0395 16.2279H12.1493ZM20.0047 19.3822C20.0047 19.7254 19.7254 20.0047 19.3822 20.0047H11.804L13.6821 15.8624C13.7495 15.7139 13.7526 15.5493 13.7058 15.4087L10.667 6.26704H19.3822C19.7254 6.26704 20.0047 6.54632 20.0047 6.88959V19.3822Z" fill="#47B9F3"/>
<path d="M8.13472 7.51218H6.26706C5.92324 7.51218 5.64451 7.79092 5.64451 8.13474C5.64451 8.47855 5.92324 8.75729 6.26706 8.75729H7.40509C7.1481 9.4819 6.45611 10.0024 5.64451 10.0024C4.61468 10.0024 3.77685 9.16456 3.77685 8.13474C3.77685 7.10491 4.61468 6.26708 5.64451 6.26708C6.14338 6.26708 6.61237 6.46136 6.96515 6.81409C7.20824 7.05722 7.60244 7.05722 7.84557 6.81409C8.08865 6.57097 8.08865 6.17681 7.84557 5.93368C7.25763 5.34574 6.47595 5.02197 5.64451 5.02197C3.92813 5.02197 2.53174 6.41836 2.53174 8.13474C2.53174 9.85112 3.92813 11.2475 5.64451 11.2475C7.36089 11.2475 8.75728 9.85112 8.75728 8.13474C8.75728 7.79092 8.47854 7.51218 8.13472 7.51218Z" fill="#47B9F3"/>
<path d="M18.0957 10.0024H16.228V9.37988C16.228 9.03606 15.9493 8.75732 15.6054 8.75732C15.2616 8.75732 14.9829 9.03606 14.9829 9.37988V10.0024H13.1152C12.7714 10.0024 12.4927 10.2812 12.4927 10.625C12.4927 10.9688 12.7714 11.2475 13.1152 11.2475H16.7318C16.5338 11.8363 16.1084 12.534 15.6138 13.2054C15.5073 13.0616 15.402 12.9144 15.3006 12.7651C15.1072 12.4808 14.72 12.407 14.4357 12.6004C14.1514 12.7937 14.0777 13.1809 14.271 13.4653C14.4456 13.7221 14.6287 13.9721 14.8112 14.209C14.5001 14.5698 14.1935 14.8967 13.9243 15.1611C13.6789 15.4019 13.6752 15.796 13.916 16.0415C14.1558 16.2859 14.5499 16.2916 14.7964 16.0498C14.8178 16.0287 15.1574 15.6943 15.6108 15.1808C16.0534 15.6872 16.3847 16.02 16.4104 16.0456C16.6534 16.2886 17.0474 16.2888 17.2906 16.0457C17.5337 15.8027 17.5338 15.4086 17.2909 15.1654C17.2844 15.1588 16.9032 14.7756 16.4168 14.2083C17.2981 13.0691 17.8354 12.0768 18.0215 11.2475H18.0956C18.4394 11.2475 18.7182 10.9688 18.7182 10.625C18.7182 10.2812 18.4395 10.0024 18.0957 10.0024Z" fill="#47B9F3"/>
</g>
<defs>
<clipPath id="clip0">
<rect width="21.25" height="21.25" fill="white"/>
</clipPath>
</defs>
</svg>
