<svg width="13" height="20" viewBox="0 0 13 20" fill="none" xmlns="http://www.w3.org/2000/svg">
<path d="M5.58024 3.36C4.96024 3.36 4.36024 3.48 3.78024 3.72C3.22024 3.94 2.63024 4.31 2.01024 4.83L0.210244 2.07C0.950244 1.47 1.79024 0.979999 2.73024 0.599999C3.67024 0.2 4.84024 0 6.24024 0C7.16024 0 7.99024 0.14 8.73024 0.42C9.49024 0.7 10.1302 1.09 10.6502 1.59C11.1702 2.07 11.5702 2.65 11.8502 3.33C12.1502 4.01 12.3002 4.75 12.3002 5.55C12.3002 6.81 11.8602 8.15 10.9802 9.57C10.1202 10.99 8.84024 12.49 7.14024 14.07L5.22024 15.87H12.4502V19.26H0.780244L0.000244141 16.35L2.76024 13.59C3.74024 12.61 4.55024 11.76 5.19024 11.04C5.83024 10.3 6.34024 9.64 6.72024 9.06C7.12024 8.46 7.40024 7.91 7.56024 7.41C7.72024 6.91 7.80024 6.42 7.80024 5.94C7.80024 5.04 7.58024 4.39 7.14024 3.99C6.70024 3.57 6.18024 3.36 5.58024 3.36Z" fill="#743185"/>
</svg>
