<svg width="25" height="25" viewBox="0 0 25 25" fill="none" xmlns="http://www.w3.org/2000/svg">
<g clip-path="url(#clip0)">
<path d="M8.04005 4.44336C3.6068 4.44336 0 8.04977 0 12.4826C0 16.9155 3.6068 20.5219 8.04005 20.5219C12.4733 20.5219 16.0801 16.9155 16.0801 12.4826C16.0801 8.04977 12.4733 4.44336 8.04005 4.44336Z" fill="#FFBC4F"/>
<path d="M16.96 4.44336C12.5267 4.44336 8.91992 8.04977 8.91992 12.4826C8.91992 16.9155 12.5267 20.5219 16.96 20.5219C21.3932 20.5219 25 16.9155 25 12.4826C25 8.04977 21.3932 4.44336 16.96 4.44336Z" fill="white"/>
<path d="M12.0514 15.1211C12.0514 14.7165 11.7235 14.3887 11.319 14.3887H9.1488C9.27297 14.8976 9.44559 15.3876 9.66169 15.8535H11.319C11.7235 15.8535 12.0514 15.5256 12.0514 15.1211Z" fill="#FFBC4F"/>
<path d="M12.0514 10.3535C12.0514 9.94916 11.7236 9.62109 11.319 9.62109H9.44656C9.26727 10.0901 9.13052 10.5799 9.04144 11.0859H11.319C11.7236 11.0859 12.0514 10.7581 12.0514 10.3535Z" fill="#FFBC4F"/>
<path d="M14.0663 12.7363C14.0663 12.3318 13.7383 12.0039 13.3339 12.0039H8.93442C8.92507 12.162 8.91992 12.3211 8.91992 12.4815C8.91992 12.8157 8.94071 13.1451 8.98058 13.4688H13.3339C13.7383 13.4688 14.0663 13.1409 14.0663 12.7363Z" fill="#FFBC4F"/>
</g>
<defs>
<clipPath id="clip0">
<rect width="25" height="25" fill="white"/>
</clipPath>
</defs>
</svg>
