<svg width="21" height="19" viewBox="0 0 21 19" fill="none" xmlns="http://www.w3.org/2000/svg">
<path d="M18.3596 0.82472L2.09712 5.07875C1.412 5.25795 0.901279 5.79417 0.764223 6.47801C0.627213 7.1619 0.891497 7.8556 1.45398 8.28833L5.8963 11.7061L11.2484 7.65267C11.4946 7.46615 11.8503 7.51266 12.0428 7.7566C12.2352 8.00052 12.1915 8.34951 11.9452 8.53605L6.59316 12.5894L8.84922 17.6629C9.13488 18.3053 9.75339 18.7307 10.4634 18.7731C11.1748 18.8155 11.8322 18.4652 12.1813 17.8618L20.481 3.51382C20.8588 2.86057 20.7997 2.08231 20.3268 1.48274C19.8538 0.883168 19.1 0.630976 18.3596 0.82472Z" fill="white"/>
</svg>
