<svg width="47" height="24" viewBox="0 0 47 24" fill="none" xmlns="http://www.w3.org/2000/svg">
<path d="M46.3325 11.6657L39.6418 5.0043L34.7138 5H34.6637V1.66688C34.6637 0.746485 33.9179 0 32.9975 0H1.6675C0.74711 0 0.00125027 0.746485 0.00125027 1.66688L0 7.50004L0.00125027 3.3332L0 6.66695V7.50004V8.3332V11.667V7.50004V13.3332V16.6657L0.00138664 17.4995L0 18.3332C0 19.2536 0.74586 19.9995 1.66625 19.9995H12.4167C12.8025 21.9013 14.4834 23.3332 16.4987 23.3332C18.5153 23.3332 20.1963 21.9013 20.582 19.9995H32.9963H35.583C35.9688 21.9013 37.6496 23.3332 39.665 23.3332C41.6816 23.3332 43.3625 21.9013 43.7483 19.9995H46.3154L46.3325 11.6657ZM16.4987 21.6657C15.1205 21.6657 14 20.5451 14 19.1657C14 17.7875 15.1206 16.6657 16.4987 16.6657C17.8781 16.6657 18.9987 17.7875 18.9987 19.1657C18.9987 20.5452 17.8781 21.6657 16.4987 21.6657ZM32.9963 18.3332H20.582C20.1963 16.4313 18.5154 14.9995 16.4987 14.9995C14.4834 14.9995 12.8025 16.4313 12.4167 18.3332H1.66625L1.6675 1.66695H32.9976L32.9963 18.3332ZM39.665 21.6657C38.2868 21.6657 37.165 20.5451 37.165 19.1657C37.165 17.7875 38.2868 16.6657 39.665 16.6657C41.0444 16.6657 42.165 17.7875 42.165 19.1657C42.165 20.5452 41.0444 21.6657 39.665 21.6657ZM44.6528 18.3332H43.7483C43.3625 16.4313 41.6816 14.9995 39.665 14.9995C37.6496 14.9995 35.9688 16.4313 35.583 18.3332H34.6626L34.6638 6.66695H34.7114L38.9534 6.67062L44.665 12.3579L44.6528 18.3332Z" fill="#FFA647"/>
</svg>
