<svg width="20" height="21" viewBox="0 0 20 21" fill="none" xmlns="http://www.w3.org/2000/svg">
<path d="M11.948 18.054C11.8235 18.6019 11.5446 19.0999 11.1561 19.4834C10.6232 20.0213 9.88614 20.35 9.07433 20.35C8.26252 20.35 7.52542 20.0213 6.98753 19.4834C6.60404 19.0999 6.32513 18.6019 6.20062 18.054H1.94734C1.41444 18.054 0.926358 17.8349 0.572748 17.4813C0.219139 17.1277 0 16.6396 0 16.1017C0 15.5688 0.219139 15.0807 0.572748 14.7271C0.926358 14.3735 1.41444 14.1544 1.94734 14.1544H2.29597V8.67589C2.29597 6.80824 3.05798 5.11489 4.28814 3.88971C4.82603 3.34684 5.45854 2.89861 6.15082 2.56492C6.23549 1.9075 6.53929 1.31483 6.98753 0.866593C7.52542 0.328708 8.26252 0 9.07433 0C9.88614 0 10.6232 0.328708 11.1561 0.866593C11.6044 1.31483 11.9082 1.9075 11.9978 2.56492C12.5556 2.83386 13.0686 3.17751 13.5318 3.5859C13.8506 3.5112 14.1793 3.47633 14.5179 3.47633C15.773 3.47633 16.9085 3.98434 17.7353 4.81109C18.557 5.63286 19.0651 6.76839 19.0651 8.02346C19.0651 9.27852 18.557 10.419 17.7353 11.2408C17.2123 11.7588 16.5699 12.1522 15.8477 12.3714V14.1544H16.1963C16.7342 14.1544 17.2223 14.3735 17.5759 14.7271C17.9295 15.0807 18.1487 15.5688 18.1487 16.1017C18.1487 16.6396 17.9295 17.1277 17.5759 17.4813C17.2223 17.8349 16.7342 18.054 16.1963 18.054H11.948ZM12.1423 4.14371C11.8235 3.92457 11.4799 3.7403 11.1163 3.59586C10.4838 3.33688 9.79649 3.19743 9.07433 3.19743C7.57024 3.19743 6.20062 3.815 5.20454 4.80611C4.21344 5.79721 3.59586 7.16683 3.59586 8.67589V14.1544H14.5528V12.5706H14.5179C13.2629 12.5706 12.1273 12.0626 11.3006 11.2408C10.4788 10.419 9.9708 9.27852 9.9708 8.02346C9.9708 6.76839 10.4788 5.63286 11.3006 4.81109C11.5546 4.55709 11.8385 4.33297 12.1423 4.14371ZM16.8139 5.72748C16.2262 5.13979 15.4144 4.77622 14.5179 4.77622C13.6215 4.77622 12.8096 5.13979 12.222 5.72748C11.6343 6.31517 11.2707 7.12698 11.2707 8.02346C11.2707 8.91993 11.6343 9.73174 12.222 10.3194C12.8096 10.9071 13.6215 11.2707 14.5179 11.2707C15.4144 11.2707 16.2262 10.9071 16.8139 10.3194C17.4016 9.73174 17.7652 8.91993 17.7652 8.02346C17.7652 7.12698 17.4016 6.31517 16.8139 5.72748ZM7.69475 2.04197C8.14299 1.94734 8.60119 1.89754 9.07433 1.89754C9.54249 1.89754 10.0057 1.94734 10.4489 2.04197C10.3892 1.94734 10.3194 1.8577 10.2397 1.77801C9.94092 1.48417 9.53253 1.29989 9.07433 1.29989C8.61613 1.29989 8.20275 1.48417 7.90891 1.77801C7.82922 1.8577 7.7595 1.94734 7.69475 2.04197ZM6.12592 16.7541H12.0227H16.1963C16.3756 16.7541 16.54 16.6794 16.6545 16.5599C16.7741 16.4454 16.8488 16.281 16.8488 16.1017C16.8488 15.9274 16.7741 15.763 16.6545 15.6435C16.54 15.529 16.3756 15.4542 16.1963 15.4542H15.8477H2.29597H1.94734C1.77303 15.4542 1.60868 15.529 1.48915 15.6435C1.3746 15.763 1.29989 15.9274 1.29989 16.1017C1.29989 16.281 1.3746 16.4454 1.48915 16.5599C1.60868 16.6794 1.77303 16.7541 1.94734 16.7541H6.12592ZM10.2397 18.572C10.3842 18.4226 10.5037 18.2483 10.5884 18.054H7.56028C7.63997 18.2483 7.7595 18.4226 7.90891 18.572C8.20275 18.8658 8.61613 19.0501 9.07433 19.0501C9.53253 19.0501 9.94092 18.8658 10.2397 18.572Z" fill="white"/>
</svg>
