<svg width="19" height="23" viewBox="0 0 19 23" fill="none" xmlns="http://www.w3.org/2000/svg">
<path d="M18.1414 18.3147C17.1115 18.3147 16.2737 17.4769 16.2737 16.447V10.1384C16.2737 7.00957 14.1645 4.36416 11.2932 3.54918V2.66772C11.2932 1.63789 10.4554 0.800049 9.42554 0.800049C8.3957 0.800049 7.55786 1.63789 7.55786 2.66772V3.54918C4.68662 4.36411 2.57739 7.00957 2.57739 10.1384V16.447C2.57739 17.4769 1.73955 18.3147 0.709717 18.3147H0.0871582V19.5598H7.55786V20.1824C7.55786 21.2122 8.3957 22.05 9.42554 22.05C10.4554 22.05 11.2932 21.2122 11.2932 20.1824V19.5598H18.7639V18.3147H18.1414ZM8.80298 2.66772C8.80298 2.32445 9.08226 2.04517 9.42554 2.04517C9.76882 2.04517 10.0481 2.32445 10.0481 2.66772V3.31888C9.84298 3.30033 9.63542 3.29028 9.42554 3.29028C9.21565 3.29028 9.00809 3.30033 8.80298 3.31888V2.66772ZM9.42554 4.5354C12.515 4.5354 15.0286 7.04892 15.0286 10.1384V15.8245H3.82251V10.1384C3.82251 7.04892 6.33603 4.5354 9.42554 4.5354ZM3.75988 17.0696H15.0912C15.185 17.5294 15.3804 17.9526 15.6528 18.3147H3.19825C3.47072 17.9526 3.66616 17.5294 3.75988 17.0696V17.0696ZM10.0481 20.1824C10.0481 20.5257 9.76882 20.8049 9.42554 20.8049C9.08226 20.8049 8.80298 20.5257 8.80298 20.1824V19.5598H10.0481V20.1824Z" fill="white"/>
</svg>
