<svg width="10" height="9" viewBox="0 0 10 9" fill="none" xmlns="http://www.w3.org/2000/svg">
<path d="M6.34778 2.8483C5.17601 0.000211 4.82981 0 4.64279 0C4.47105 0 4.11684 2.38419e-07 2.84133 2.80876C0.178788 3.27515 0.0738928 3.59015 0.0228684 3.74312C-0.0350084 3.91644 -0.141695 4.23629 1.95621 5.93169C1.40717 8.57937 1.73556 8.76185 1.89548 8.85062C1.95589 8.88414 2.02579 8.90122 2.10359 8.90122C2.58083 8.90122 3.9334 8.03644 4.64353 7.5593C5.66728 8.24128 6.88111 9.00021 7.21446 9C7.31798 9 7.38946 8.96026 7.43068 8.92715C7.56657 8.81867 7.73503 8.68416 7.2542 6.03258C9.50591 4.09028 9.44456 3.9371 9.36033 3.72678C9.29507 3.5638 9.2335 3.40957 6.34778 2.8483Z" fill="#F3B961"/>
</svg>
