<svg width="35" height="35" viewBox="0 0 35 35" fill="none" xmlns="http://www.w3.org/2000/svg">
<g clip-path="url(#clip0)">
<path d="M35 17.5C35 27.1651 27.1651 35 17.5 35C7.83489 35 0 27.1651 0 17.5C0 7.83489 7.83489 0 17.5 0C27.1651 0 35 7.83489 35 17.5Z" fill="#4A7AFF"/>
<path d="M35 17.5C35 27.1651 27.1651 35 17.5 35C7.83489 35 0 27.1651 0 17.5C0 7.83489 7.83489 0 17.5 0C27.1651 0 35 7.83489 35 17.5Z" fill="#4A7AFF"/>
<path d="M34.9999 17.5C34.9999 16.4319 34.9038 15.3865 34.7206 14.3712L28.6297 8.28003L19.3724 17.8295L7.86768 17.9102L11.8261 21.8689L10.0095 21.8905L12.7647 24.6457L11.5893 25.8583L5.71997 24.9026L15.7287 34.9113C16.3111 34.9698 16.9021 35 17.4999 35C27.1651 35 34.9999 27.1651 34.9999 17.5Z" fill="#0053BF"/>
<path d="M13.1295 27.0738C22.0205 27.0738 26.8825 19.7078 26.8825 13.3208C26.8825 13.1114 26.8782 12.9034 26.8686 12.6962C27.8123 12.0137 28.6326 11.1624 29.2799 10.1933C28.4137 10.5781 27.4817 10.8374 26.5039 10.9541C27.502 10.3559 28.2681 9.40906 28.6297 8.28033C27.6953 8.83414 26.6614 9.23656 25.5605 9.45365C24.6782 8.51424 23.4221 7.92651 22.0322 7.92651C19.3624 7.92651 17.1976 10.0913 17.1976 12.7597C17.1976 13.1392 17.2401 13.5079 17.3229 13.862C13.306 13.6599 9.74354 11.7362 7.35977 8.81171C6.94427 9.52602 6.70528 10.3559 6.70528 11.2411C6.70528 12.9181 7.55871 14.3988 8.8562 15.2647C8.06339 15.2404 7.31838 15.0223 6.6671 14.6599C6.66603 14.6802 6.66603 14.7005 6.66603 14.7216C6.66603 17.0629 8.33229 19.0173 10.5438 19.4603C10.1379 19.5708 9.71069 19.6304 9.26956 19.6304C8.95821 19.6304 8.6554 19.5994 8.36086 19.5433C8.97636 21.4635 10.7606 22.8612 12.8766 22.9007C11.2218 24.1971 9.13792 24.9696 6.87325 24.9696C6.48338 24.9696 6.09859 24.9475 5.72021 24.9026C7.85938 26.2735 10.3994 27.0738 13.1295 27.0738" fill="white"/>
<path d="M29.2799 10.1933C28.4136 10.5781 27.4817 10.8371 26.5038 10.9541C27.502 10.3559 28.2681 9.40879 28.6296 8.28033C27.6953 8.83414 26.6614 9.23656 25.5604 9.45338C24.6782 8.51424 23.422 7.92651 22.0322 7.92651C19.9293 7.92651 18.1408 9.26967 17.4756 11.1439V26.4239C23.5916 24.49 26.8825 18.5748 26.8825 13.3208C26.8825 13.1114 26.8782 12.9034 26.8686 12.6962C27.8123 12.0137 28.6326 11.1624 29.2799 10.1933V10.1933Z" fill="#DCE1EB"/>
</g>
<defs>
<clipPath id="clip0">
<rect width="35" height="35" fill="white"/>
</clipPath>
</defs>
</svg>
